<svg xmlns:inkscape="http://www.inkscape.org/namespaces/inkscape" xmlns:sodipodi="http://sodipodi.sourceforge.net/DTD/sodipodi-0.dtd" xmlns="http://www.w3.org/2000/svg" xmlns:svg="http://www.w3.org/2000/svg" version="1.1" id="svg1" width="85.361229" height="148.13084" viewBox="0 0 85.361227 148.13084" sodipodi:docname="arrw.svg" inkscape:version="1.3.2 (1:1.3.2+202311252150+091e20ef0f)">
  <defs id="defs1"/>
  <sodipodi:namedview id="namedview1" pagecolor="#ffffff" bordercolor="#000000" borderopacity="0.25" inkscape:showpageshadow="2" inkscape:pageopacity="0.0" inkscape:pagecheckerboard="0" inkscape:deskcolor="#d1d1d1" inkscape:zoom="1.2969378" inkscape:cx="-13.878846" inkscape:cy="190.83413" inkscape:window-width="1920" inkscape:window-height="1017" inkscape:window-x="0" inkscape:window-y="26" inkscape:window-maximized="1" inkscape:current-layer="g1"/>
  <g inkscape:groupmode="layer" inkscape:label="Image" id="g1" transform="translate(-59.014002,-28.236023)">
    <path style="fill:#00ccff" d="m 143.38041,105.64676 c -1.62286,4.77663 -5.12899,11.13245 -10.36474,18.78894 -13.27624,19.41451 -14.02608,20.63181 -20.12351,32.66869 -6.09129,12.02476 -9.41435,17.96768 -10.59455,18.94716 -0.56306,0.4673 -0.74276,0.43407 -1.22592,-0.2267 -0.31138,-0.42584 -0.56615,-0.99013 -0.56615,-1.25398 0,-0.26385 -1.211883,-2.56276 -2.693073,-5.10869 -1.48119,-2.54594 -4.431064,-7.83236 -6.555274,-11.74762 -12.72369,-23.45174 -14.62735,-26.69329 -21.23017,-36.15068 -2.713261,-3.88627 -5.670331,-8.30671 -6.571261,-9.8232 -1.73699,-2.92379 -4.44176,-9.95841 -4.44176,-11.55224 0,-1.336834 1.00535,-2.083974 2.12935,-1.582434 0.60934,0.2719 1.72674,0.22151 3.54642,-0.15993 5.301731,-1.11134 17.738661,-2.6255 19.999291,-2.43486 l 2.28522,0.19271 -0.76153,-3.31248 c -1.2093,-5.26014 -2.32787,-12.9725 -2.83996,-19.58104 -0.46758,-6.03413 -0.29473,-27.52734 0.31188,-38.78078 0.24526,-4.54994 0.35283,-5.06947 1.15906,-5.59773 0.69689,-0.45662 2.98793,-0.60329 10.614244,-0.67949 11.207213,-0.11198 13.856583,0.29736 18.674683,2.88532 l 2.84746,1.52946 0.48777,4.43478 c 0.8159,7.41823 1.29839,15.97556 1.77762,31.52784 0.47647,15.46281 0.21093,22.61849 -1.00763,27.15254 l -0.57396,2.1356 h 1.47111 c 1.56472,0 10.79567,0.89118 19.20102,1.85372 3.83373,0.439014 5.20985,0.752104 5.59322,1.272544 0.67299,0.91358 0.65597,1.05636 -0.54886,4.60255 z m -16.41335,-0.35436 c -7.30245,6.98585 -15.10435,11.27407 -39.141997,21.51396 l -8.0025,3.40901 0.54777,1.03773 c 1.52541,2.88983 0.25671,3.25801 15.684134,-4.55159 14.614523,-7.3981 24.359963,-12.68601 35.891033,-19.47459 6.46122,-3.80386 8.01767,-4.51244 8.01767,-3.65009 0,0.48797 -6.30635,5.47039 -10.16949,8.03454 -9.902,6.57242 -20.06587,11.71534 -38.093457,19.27527 -4.88928,2.05034 -8.96256,3.79666 -9.05173,3.88071 -0.0892,0.0841 0.27318,0.97339 0.80522,1.97631 0.96618,1.82127 0.9686,1.82264 1.99264,1.13516 4.93189,-3.311 14.116014,-8.34804 27.669357,-15.1753 24.82725,-12.50628 22.41816,-11.0005 25.48158,-15.92701 l 2.59961,-4.1806 -5.43494,-0.25889 -5.43495,-0.2589 z m 2.78399,11.14427 c -2.10198,1.24574 -7.20822,3.93007 -11.3472,5.96517 -23.900837,11.75185 -33.355947,16.64943 -33.355947,17.27779 0,0.55554 1.71282,3.39086 2.04842,3.39086 0.97795,0 11.094514,-5.43682 22.057837,-11.85429 6.54156,-3.82915 14.07445,-8.03927 16.73975,-9.3558 4.71169,-2.32736 4.88889,-2.46345 6.39354,-4.91014 0.85114,-1.38403 1.48855,-2.57541 1.41646,-2.6475 -0.0721,-0.0721 -1.85088,0.88817 -3.95286,2.13391 z m -4.77361,8.53634 c -8.35296,5.75393 -20.98481,12.39022 -31.895637,16.75676 -3.07627,1.23113 -5.59322,2.42565 -5.59322,2.65448 0,0.77686 4.12077,8.04218 4.5614,8.04218 0.63794,0 7.235124,-3.37757 11.709797,-5.99508 2.12542,-1.24329 6.85953,-4.288 10.52023,-6.76601 6.66047,-4.50863 6.96319,-4.79768 9.59965,-9.16617 0.37689,-0.6245 0.3792,-0.62556 -2.40893,1.11034 -0.8861,0.55169 -4.45559,2.26757 -7.93221,3.81307 -9.9263,4.41265 -14.929553,7.341 -19.864327,11.62638 -3.01429,2.61762 -3.87609,2.51311 -1.27888,-0.15509 2.86986,-2.94831 7.405914,-5.92625 16.092167,-10.56461 16.87938,-9.01338 17.59276,-9.44813 18.8697,-11.49973 0.64207,-1.03157 1.11086,-1.93213 1.04176,-2.00123 -0.0691,-0.0691 -1.60877,0.89602 -3.4215,2.14471 z m -12.54312,-17.57306 c -17.334277,11.13975 -27.739047,16.54493 -33.793197,17.55525 -0.95085,0.15867 -1.72881,0.41297 -1.72881,0.5651 0,0.21208 1.6211,2.82651 2.26162,3.64741 0.0563,0.0721 7.2128,-3.44147 15.90339,-7.80797 15.769027,-7.92298 23.480717,-12.25015 29.897827,-16.77622 l 3.3948,-2.39439 -3.73224,-0.11655 -3.73223,-0.11656 z m 3.42715,33.34502 c -5.87326,4.18989 -13.88598,8.59713 -20.513747,11.28318 l -3.32731,1.34846 1.23992,2.47406 c 0.68196,1.36074 1.28019,2.52077 1.32941,2.57785 0.0492,0.0571 3.723534,-2.28592 8.165167,-5.20669 4.44163,-2.92077 8.93049,-5.791 9.97525,-6.37829 1.47405,-0.82861 2.31895,-1.75805 3.77181,-4.14923 1.02974,-1.6948 1.87892,-3.2348 1.88707,-3.42223 0.008,-0.18744 -1.12926,0.47536 -2.52757,1.47289 z m 0.63414,-39.05159 c -0.62729,0.11992 -1.49584,-0.0536 -2.03425,-0.40637 -0.8877,-0.58166 -1.03139,-0.5327 -2.60245,0.88667 -4.73823,4.28071 -21.759857,13.13508 -33.621527,17.48938 l -4.16646,1.52947 0.63718,1.07457 c 1.61862,2.72973 1.55756,2.69865 3.71678,1.89214 3.81107,-1.4235 13.8465,-6.73294 20.453534,-10.82135 3.691533,-2.2843 9.411873,-5.78457 12.711873,-7.77837 3.3,-1.9938 6,-3.72641 6,-3.85025 0,-0.12383 -0.49261,-0.13098 -1.09468,-0.0159 z m -1.07553,-24.927984 c -0.075,0 -2.22582,1.66106 -4.77966,3.69123 -6.39631,5.08475 -12.850143,9.33609 -17.559077,11.56674 -3.91262,1.85342 -3.96564,1.89774 -3.96564,3.31447 0,1.09112 -0.19426,1.48673 -0.80899,1.64749 -0.44494,0.11635 -0.71783,0.35903 -0.60643,0.53929 0.36097,0.58405 -1.01267,1.57486 -2.56376,1.84923 -0.83179,0.14713 -2.96116,1.186944 -4.73193,2.310714 -3.58064,2.27232 -8.09915,4.45612 -11.899911,5.75122 l -2.50932,0.85505 2.32057,3.94685 c 1.276321,2.17077 2.434611,4.06087 2.573971,4.20024 0.23587,0.23586 8.51611,-4.35649 14.56478,-8.07786 5.84536,-3.59628 20.830277,-11.998814 25.125957,-14.088944 l 4.56897,-2.2231 v -3.18743 -3.18742 l -4.98305,3.45952 c -12.977093,9.00944 -29.704327,18.558524 -39.864417,22.757404 -3.091181,1.2775 -1.39605,-0.13949 2.84746,-2.38024 2.40508,-1.26999 9.8644,-5.92613 16.57627,-10.346994 13.028267,-8.58123 15.767537,-10.25097 21.631307,-13.18553 2.80534,-1.40396 3.77716,-2.09835 3.91071,-2.79431 0.21678,-1.12973 0.34218,-6.41762 0.15219,-6.41762 z m -0.22066,-4.47457 c -0.19634,0 -0.60286,0.29627 -0.90339,0.65838 -2.02803,2.44364 -23.269877,14.39247 -25.585977,14.39247 -0.34058,0 -0.39279,0.76726 -0.18681,2.74576 0.15722,1.51017 0.31845,2.78564 0.35828,2.83438 0.28239,0.34552 7.871004,-4.76685 14.674867,-9.88631 4.47457,-3.36683 9.00475,-6.65833 10.06707,-7.31445 1.54609,-0.95492 1.93162,-1.41615 1.9322,-2.31159 4e-4,-0.61525 -0.15991,-1.11864 -0.35624,-1.11864 z m 0.11707,-4.47458 c -0.13194,0 -1.2325,0.8847 -2.44569,1.96599 -3.62039,3.22681 -12.59382,8.13395 -23.298577,12.74089 -1.72168,0.74095 -1.77288,0.81503 -1.54282,2.23269 0.13087,0.80648 0.31854,1.54691 0.41704,1.64542 0.58535,0.58534 12.125417,-6.22855 19.584517,-11.56377 7.50511,-5.36814 7.52543,-5.38495 7.52543,-6.22836 0,-0.43607 -0.10796,-0.79286 -0.2399,-0.79286 z m -0.54299,26.44068 c -0.20685,0 -2.63228,1.40091 -5.38983,3.11313 -7.44339,4.621764 -14.775727,8.609864 -26.512137,14.420154 -5.78344,2.86317 -10.71588,5.27262 -10.96098,5.35432 -0.59392,0.19797 1.23154,3.1463 1.94804,3.1463 1.60854,0 13.11789,-5.64727 20.34185,-9.9811 8.403177,-5.04127 20.503787,-13.363944 20.675127,-14.220134 0.2972,-1.48511 0.27785,-1.83267 -0.10207,-1.83267 z m -0.13237,-31.07935 c -0.27966,0.15988 -1.6983,1.15626 -3.15254,2.21418 -6.33392,4.60775 -14.170313,9.16284 -20.338987,11.82253 -1.9017,0.81994 -3.43933,1.69504 -3.41695,1.94468 0.0224,0.24964 0.0681,1.02263 0.10169,1.71775 0.0494,1.02374 0.19627,1.21278 0.77288,0.99498 2.23385,-0.84375 14.263157,-7.89494 19.932217,-11.68361 6.46815,-4.32272 6.61017,-4.4486 6.61017,-5.85942 0,-1.03728 -0.14266,-1.36023 -0.50848,-1.15109 z m -1.05655,-5.11747 c -5.40133,4.15616 -15.838153,9.8079 -24.545637,13.29194 l -1.55036,0.62033 v 2.5999 c 0,1.71284 0.16226,2.5999 0.47558,2.5999 0.8184,0 4.33112,-2.14602 12.749467,-7.78902 4.47487,-2.99961 9.50783,-6.05644 11.18436,-6.79297 l 3.04823,-1.33914 -0.1413,-2.01062 -0.1413,-2.01061 z m 0.47958,-5.70149 c -0.14954,0 -1.56819,0.94742 -3.15255,2.10538 -4.25277,3.10821 -10.64941,6.90424 -17.399987,10.32586 -3.28732,1.66623 -6.09241,3.21632 -6.23353,3.44465 -0.14111,0.22833 -0.14007,0.94557 0.002,1.59387 l 0.25889,1.17871 4.20011,-2.38448 c 2.31006,-1.31147 7.744414,-4.56076 12.076347,-7.22065 4.33192,-2.65989 8.47114,-5.18157 9.19825,-5.60373 1.06738,-0.61971 1.32204,-1.02491 1.32204,-2.10358 0,-0.73482 -0.12235,-1.33603 -0.27189,-1.33603 z m -0.40376,-6.91525 c -0.14788,0 -1.56653,0.97143 -3.15255,2.15874 -5.53427,4.143 -13.295143,8.39074 -19.866727,10.8736 l -3.55932,1.34478 v 3.38771 c 0,1.86324 0.11063,3.38771 0.24584,3.38771 0.13522,0 4.02505,-2.40335 8.644074,-5.34078 9.749903,-6.20036 11.202723,-7.09255 14.499923,-8.90457 1.34237,-0.73772 2.66949,-1.51774 2.94915,-1.73338 0.5235,-0.40366 0.74441,-5.17381 0.23961,-5.17381 z m -0.16631,-6.50848 c -0.23935,0 -1.2919,0.59002 -2.33899,1.31114 -1.04709,0.72113 -5.74787,3.29589 -10.44617,5.72169 -4.698313,2.4258 -9.686447,5.07721 -11.084757,5.89202 l -2.54237,1.48148 v 2.54509 2.5451 l 1.9322,-0.82786 c 2.57082,-1.10148 5.22498,-2.62784 12.398527,-7.13018 3.29546,-2.06833 7.23105,-4.44239 8.74577,-5.27569 1.51471,-0.83329 2.98283,-1.69047 3.26249,-1.90484 0.62399,-0.47831 0.68924,-4.35795 0.0733,-4.35795 z m -0.24848,-4.47457 c -0.37602,0 -1.97771,0.89205 -3.55933,1.98233 -3.76053,2.59232 -7.06544,4.20746 -15.586127,7.6171 l -7.01554,2.80735 -0.001,2.33898 c -7.7e-4,1.28644 0.10309,2.33898 0.23079,2.33898 0.12771,0 1.38631,-0.82356 2.7969,-1.83013 3.04739,-2.17458 9.169644,-5.70361 17.642917,-10.16987 5.16547,-2.72271 6.17399,-3.40372 6.17466,-4.16949 5.1e-4,-0.58642 -0.24483,-0.91525 -0.68286,-0.91525 z m -4.3272,116.493914 c -2.08479,1.36903 -5.95186,3.67819 -8.5935,5.13148 -2.641633,1.45328 -4.877863,2.83747 -4.969397,3.07599 -0.0915,0.23852 0.311764,1.28921 0.896194,2.33488 1.24697,2.23105 0.7544,2.35758 7.238243,-1.8593 3.80291,-2.47329 4.13026,-2.80237 6.60059,-6.63542 1.42957,-2.21818 2.60354,-4.14639 2.60881,-4.28491 0.005,-0.13852 -1.69616,0.86826 -3.78094,2.23728 z m -2.43311,-118.054244 -2.76601,-0.42597 -6.589933,3.76768 c -10.374134,5.93126 -10.047554,5.68489 -10.047554,7.57965 0,0.89211 0.10218,1.62202 0.22707,1.62202 1.07131,0 22.473397,-11.62167 22.079447,-11.98949 -0.0754,-0.0704 -1.38172,-0.31961 -2.90302,-0.55389 z M 101.82757,161.9915 c -1.957623,1.05054 -3.680533,2.02816 -3.828683,2.1725 -0.14815,0.14433 0.44017,1.63531 1.30736,3.31328 1.403513,2.71569 1.607733,2.94327 1.858973,2.07158 0.15523,-0.53859 1.15575,-2.7352 2.22338,-4.88135 1.06762,-2.14616 1.95399,-4.056 1.96971,-4.24409 0.0157,-0.1881 -1.57311,0.51754 -3.53074,1.56808 z M 97.128937,32.868686 c -0.71575,0.28811 -2.742294,1.31325 -4.503414,2.27807 -1.76113,0.96483 -3.45435,1.75424 -3.76271,1.75424 -1.20906,0 -0.44171,-0.92155 2.1304,-2.55852 l 2.69107,-1.71267 -2.75244,-0.12168 c -1.51385,-0.0669 -2.88441,0.0246 -3.04571,0.20339 -0.16129,0.17879 -0.40696,2.0283 -0.54594,4.11002 -0.19739,2.95687 -0.14206,3.72113 0.25294,3.49321 0.27809,-0.16046 1.8785,-1.23795 3.55647,-2.39442 1.67796,-1.15647 4.22947,-2.80842 5.670014,-3.671 2.60659,-1.5608 2.78994,-2.37918 0.30932,-1.38064 z M 70.912313,100.69851 c -4.306781,0.3467 -7.830511,0.78217 -7.830511,0.96772 0,0.18556 0.54401,1.53716 1.2089,3.00356 1.36184,3.00347 1.27298,2.98469 5.096181,1.07718 2.42168,-1.20825 9.62978,-5.46389 9.4687,-5.5903 -0.062,-0.0487 -3.63649,0.19516 -7.94327,0.54184 z" id="path1" sodipodi:nodetypes="sssssssssssssscsssssscssscsssssscssssssssssscccssssssssssssssssssssssssssssssscccssscssssscssssscsssssssssssssssscsssscccsssssssscssssssssssscssssssssssssssscsssssscsssscccscsssccssssccssscsssssssssscccssssssssccsssssssssssscsscssssssssssssssssccsssssssssscs"/>
  </g>
</svg>