<svg xmlns:inkscape="http://www.inkscape.org/namespaces/inkscape" xmlns:sodipodi="http://sodipodi.sourceforge.net/DTD/sodipodi-0.dtd" xmlns="http://www.w3.org/2000/svg" xmlns:svg="http://www.w3.org/2000/svg" xmlns:rdf="http://www.w3.org/1999/02/22-rdf-syntax-ns#" xmlns:cc="http://creativecommons.org/ns#" xmlns:dc="http://purl.org/dc/elements/1.1/" id="svg2842" viewBox="0 0 167.84753 607.29944" version="1.1" inkscape:version="1.3.2 (1:1.3.2+202311252150+091e20ef0f)" sodipodi:docname="clip.svg" width="167.84753" height="607.29944">
  <defs id="defs1"/>
  <sodipodi:namedview id="namedview1" pagecolor="#ffffff" bordercolor="#000000" borderopacity="0.25" inkscape:showpageshadow="2" inkscape:pageopacity="0.0" inkscape:pagecheckerboard="0" inkscape:deskcolor="#d1d1d1" inkscape:zoom="0.37916667" inkscape:cx="15.824176" inkscape:cy="573.62637" inkscape:window-width="1920" inkscape:window-height="1017" inkscape:window-x="0" inkscape:window-y="26" inkscape:window-maximized="1" inkscape:current-layer="svg2842"/>
  <path id="path3239" style="fill:#000000;stroke-width:1.32884" d="m 117.20978,605.1818 c -21.448493,-6.58767 -33.432493,-17.99654 -45.251833,-43.07803 -10.59692,-22.48863 -10.68319,-22.75011 -13.72195,-41.73776 -2.1515,-13.44089 -2.67502,-27.23438 -2.82378,-74.39428 -0.17942,-56.87058 -1.29934,-80.61806 -3.907262,-82.8555 -0.723401,-0.62068 -1.337568,-2.70198 -1.364865,-4.62486 -0.06235,-4.40911 -3.949098,-10.92381 -9.564299,-16.03155 -4.3409,-3.94878 -8.446544,-4.24564 -33.4403852,-2.41843 -3.723205,0.27222 -6.80581904,-0.49945 -7.12115104,-1.78274 -0.60651,-2.4676 18.33125324,-31.85329 20.52820924,-31.85329 1.367116,0 2.981001,-2.11593 11.030668,-14.463 2.457364,-3.76934 3.563394,-6.13188 2.457811,-5.25022 -1.635761,1.30446 -1.68696,0.76446 -0.274911,-2.89848 0.95445,-2.4759 2.696793,-5.01395 3.871965,-5.63993 1.175163,-0.62603 2.136614,-2.27642 2.136614,-3.66758 0,-1.3912 2.655966,-6.64168 5.902225,-11.66784 3.246259,-5.02617 6.763751,-11.46462 7.816661,-14.30768 1.05294,-2.84306 2.31707,-5.63445 2.80913,-6.20297 1.76106,-2.03498 8.89518,-29.0788 9.94967,-37.71539 1.48746,-12.18423 0.95856,-28.84708 -1.2046,-37.94555 -0.99806,-4.19836 -1.7579,-17.24029 -1.68855,-28.98016 0.14209,-24.05594 3.81051,-42.511245 13.31143,-66.974265 8.08091,-20.80547 28.543483,-58.347072 32.485143,-59.596527 1.15916,-0.367681 2.10751,-1.5856187 2.10751,-2.7065267 0,-1.120956 0.66256,-1.469629 1.47235,-0.774851 0.84426,0.724403 1.09394,-0.105702 0.58533,-1.945581 -0.62368,-2.256378 0.0185,-3.208814 2.16312,-3.208814 3.86542,0 5.47242,3.478747 3.29193,7.12628 -0.92383,1.5454107 -1.14911,3.2130417 -0.50056,3.7059347 0.64855,0.492815 0.28177,0.580731 -0.81505,0.195404 -2.16155,-0.759506 -12.56145,14.232363 -17.367,25.034521 -4.193263,9.42618 -11.718973,24.73702 -12.764433,25.96769 -0.48286,0.56861 -1.82558,4.05776 -2.98382,7.75383 -1.15825,3.69591 -2.61255,6.71997 -3.23171,6.71997 -0.61918,0 -1.12577,2.11906 -1.12577,4.7091 0,2.59004 -0.90867,6.54445 -2.01922,8.78752 -2.85592,5.76832 -6.64228,22.927045 -7.74426,35.092795 -0.62038,6.84946 0.18125,19.06125 2.37538,36.18411 2.94716,23.00062 3.10742,27.32518 1.45531,39.28582 -2.53203,18.33161 -9.20894,41.12556 -16.21663,55.36278 -6.483728,13.17236 -18.031266,31.14557 -18.121484,28.20512 -0.03205,-1.04212 -0.949421,0.89657 -2.03861,4.30828 -1.089168,3.41173 -6.089447,12.39356 -11.11176,19.95997 -5.02232,7.56625 -9.131458,14.31206 -9.131458,14.99049 0,0.67854 4.378235,1.23374 9.729415,1.23374 14.26441,0 24.637913,7.6378 29.485197,21.71046 5.55396,16.12393 6.8577,33.14815 6.88769,89.94357 0.042,79.56903 2.78838,97.11934 19.67559,125.74878 14.16065,24.00583 35.335093,34.04844 63.126343,29.93996 15.13169,-2.23712 21.51841,-0.82237 21.51841,4.76641 0,4.09533 -3.1098,5.96732 -10.42538,6.27546 -3.6861,0.15532 -12.06407,0.82445 -18.61658,1.48704 -7.90984,0.79976 -15.1689,0.20533 -21.59511,-1.76866 z M 122.51507,6.3043093 c -3.99366,-5.39630108 -1.13255,-8.871447 3.22867,-3.92138 2.52648,2.867485 2.88287,4.254412 1.48935,5.795407 -1.26301,1.396666 -2.72814,0.814745 -4.71802,-1.874027 z" sodipodi:nodetypes="cccssccscssssssssccccccsscsscccccsssccccsscsscscssssccscss"/>
  <metadata id="metadata1">
    <rdf:RDF>
      <cc:Work>
        <dc:format>image/svg+xml</dc:format>
        <dc:type rdf:resource="http://purl.org/dc/dcmitype/StillImage"/>
        <cc:license rdf:resource="http://creativecommons.org/publicdomain/zero/1.0/"/>
        <dc:publisher>
          <cc:Agent rdf:about="http://openclipart.org/">
            <dc:title>Openclipart</dc:title>
          </cc:Agent>
        </dc:publisher>
        <dc:date>2010-04-22T06:54:35</dc:date>
        <dc:description>These are some quick sketches and doodles I made in my notebook on a flight. These are mostly shit, but hey, lets see if useful!</dc:description>
        <dc:source>https://openclipart.org/detail/50131/curly-braces-by-rejon</dc:source>
        <dc:creator>
          <cc:Agent>
            <dc:title>rejon</dc:title>
          </cc:Agent>
        </dc:creator>
        <dc:subject>
          <rdf:Bag>
            <rdf:li>black</rdf:li>
            <rdf:li>bw</rdf:li>
            <rdf:li>drawings</rdf:li>
            <rdf:li>fast</rdf:li>
            <rdf:li>rapid</rdf:li>
            <rdf:li>rejon</rdf:li>
            <rdf:li>sketch</rdf:li>
            <rdf:li>sketchbook</rdf:li>
            <rdf:li>unchecked</rdf:li>
            <rdf:li>white</rdf:li>
          </rdf:Bag>
        </dc:subject>
      </cc:Work>
      <cc:License rdf:about="http://creativecommons.org/publicdomain/zero/1.0/">
        <cc:permits rdf:resource="http://creativecommons.org/ns#Reproduction"/>
        <cc:permits rdf:resource="http://creativecommons.org/ns#Distribution"/>
        <cc:permits rdf:resource="http://creativecommons.org/ns#DerivativeWorks"/>
      </cc:License>
    </rdf:RDF>
  </metadata>
</svg>