<svg xmlns:inkscape="http://www.inkscape.org/namespaces/inkscape" xmlns:sodipodi="http://sodipodi.sourceforge.net/DTD/sodipodi-0.dtd" xmlns="http://www.w3.org/2000/svg" xmlns:svg="http://www.w3.org/2000/svg" version="1.1" id="svg1" width="212.09605" height="154.3855" viewBox="0 0 212.09606 154.38549" sodipodi:docname="qsdfsdf.svg" inkscape:version="1.3.2 (1:1.3.2+202311252150+091e20ef0f)">
  <defs id="defs1"/>
  <sodipodi:namedview id="namedview1" pagecolor="#ffffff" bordercolor="#000000" borderopacity="0.25" inkscape:showpageshadow="2" inkscape:pageopacity="0.0" inkscape:pagecheckerboard="0" inkscape:deskcolor="#d1d1d1" inkscape:zoom="0.42444444" inkscape:cx="179.05759" inkscape:cy="170.81152" inkscape:window-width="1392" inkscape:window-height="753" inkscape:window-x="659" inkscape:window-y="146" inkscape:window-maximized="0" inkscape:current-layer="g1"/>
  <g inkscape:groupmode="layer" inkscape:label="Image" id="g1" transform="translate(-121.38189,-180.84681)">
    <path style="fill:#000000" d="m -330.72016,472.39219 c -0.10538,-4.11715 0.1071,-4.55036 2.3218,-4.73365 1.67966,-0.13902 2.63834,0.43006 3.08262,1.82988 0.74706,2.35378 -1.24671,5.25467 -3.11798,4.53659 -0.70243,-0.26954 -1.47813,0.27248 -1.72379,1.2045 -0.24566,0.93201 -0.49885,-0.34478 -0.56265,-2.83732 z m 4.54817,-0.53533 c 0.83346,-2.17196 -1.28244,-4.21451 -2.79695,-2.7 -1.28004,1.28004 -0.48705,4.26722 1.13278,4.26722 0.58452,0 1.3334,-0.70525 1.66417,-1.56722 z m 3.58801,-0.93278 c 0.0111,-2.2 0.21589,-2.98225 0.45508,-1.73834 0.23919,1.24391 0.23011,3.04391 -0.0202,4 -0.25029,0.95609 -0.446,-0.0617 -0.4349,-2.26166 z m 3.54062,1.97418 c 0.72527,-1.41601 0.70882,-2.62009 -0.0547,-4 -0.99499,-1.79834 -0.93612,-1.8463 0.66101,-0.53848 1.30144,1.06569 1.93982,1.13388 2.47708,0.26459 0.39808,-0.64411 0.72378,0.37773 0.72378,2.27076 0,2.43396 -0.32909,3.16875 -1.12379,2.5092 -0.71252,-0.59133 -1.59906,-0.4839 -2.42241,0.29354 -1.05554,0.99669 -1.1044,0.84702 -0.261,-0.79961 z m 7.2072,-1.47418 c 0,-1.65 0,-3.225 0,-3.5 0,-0.275 0.29011,-0.6125 0.6447,-0.75 0.35458,-0.1375 0.69208,1.43777 0.75,3.5006 0.0579,2.06283 -0.2322,3.75033 -0.6447,3.75 -0.4125,-3.3e-4 -0.75,-1.3506 -0.75,-3.0006 z m 4,1.46862 c 0,-0.84227 0.675,-1.79041 1.5,-2.10699 2.02081,-0.77546 1.89582,-2.11154 -0.25,-2.6723 -1.38188,-0.36113 -1.29971,-0.48173 0.39059,-0.57333 1.74194,-0.0944 2.21891,0.5548 2.5611,3.4859 0.34316,2.93944 0.20507,3.30728 -0.75084,2 -1.47859,-2.02209 -2.85177,-2.08907 -2.08922,-0.1019 0.31658,0.825 0.13972,1.5 -0.39301,1.5 -0.53274,0 -0.96862,-0.68912 -0.96862,-1.53138 z m 7.99164,0.55771 c 1.18796,-0.75105 1.23886,-1.19583 0.25,-2.18469 -1.79604,-1.79604 -1.52394,-3.84411 0.50836,-3.82633 1.4878,0.013 1.52599,0.15693 0.25487,0.96052 -1.28867,0.81468 -1.23305,1.13683 0.40278,2.33298 2.11175,1.54415 1.39834,3.69956 -1.21667,3.67588 -1.44779,-0.0131 -1.47645,-0.15094 -0.19934,-0.95836 z m 5.66796,0.22367 c -0.85107,-1.39235 -1.16567,-6.15739 -0.4096,-6.20388 2.76406,-0.16997 3.18564,0.0253 1.86309,0.86283 -0.85138,0.53917 -1.19452,1.88472 -0.88867,3.48468 0.49831,2.60673 0.29742,3.26699 -0.56482,1.85637 z m 4.04164,0.1179 c -1.3078,-1.3078 -0.70972,-5.42742 0.8763,-6.03603 2.415,-0.92672 5.15813,2.27759 3.79833,4.43689 -1.1922,1.89315 -3.56792,2.70586 -4.67463,1.59914 z m 3.79876,-2.93754 c 0,-1.04663 -0.7875,-2.05463 -1.75,-2.23999 -1.75992,-0.33893 -2.53354,2.69276 -1.0625,4.1638 1.18142,1.18142 2.8125,0.0657 2.8125,-1.92381 z m 3.43043,1.98582 c -1.61782,-1.94936 -0.1435,-4.79422 2.67675,-5.16509 1.45543,-0.19139 1.3729,-0.0255 -0.35718,0.71778 -3.06803,1.31814 -2.6897,3.99287 0.75,5.30224 1.25793,0.47885 1.23735,0.58374 -0.12756,0.64994 -0.89515,0.0434 -2.21906,-0.63377 -2.94201,-1.50487 z m 6.3354,-3.41618 c 0.0186,-3.025 0.22744,-4.15 0.46408,-2.5 0.23663,1.65 1.40671,4.12178 2.60017,5.49285 l 2.16992,2.49284 -2.16214,-1.81832 c -2.09054,-1.7581 -2.17777,-1.75787 -2.634,0.007 -0.25952,1.00402 -0.45663,-0.64952 -0.43803,-3.67452 z m 10.6646,3.41618 c -1.61782,-1.94936 -0.1435,-4.79422 2.67675,-5.16509 1.45543,-0.19139 1.3729,-0.0255 -0.35718,0.71778 -1.2375,0.53167 -2.25,1.67068 -2.25,2.53113 0,0.86045 1.0125,1.97142 2.25,2.46884 1.52262,0.61201 1.72384,0.92488 0.62244,0.96777 -0.89515,0.0349 -2.21906,-0.64933 -2.94201,-1.52043 z m 6.0356,0.0429 c -1.68876,-2.03483 -0.13027,-4.95907 2.64296,-4.95907 1.43253,0 1.89101,0.72404 1.89101,2.9863 0,3.45117 -2.42965,4.50832 -4.53397,1.97277 z m 4.03397,-1.95908 c 0,-1.4902 -0.57222,-2.5 -1.41667,-2.5 -1.60131,0 -2.51738,1.87819 -1.82903,3.75 0.8363,2.27414 3.2457,1.34622 3.2457,-1.25 z m 3.11831,0.39915 -0.11831,-3.60085 4.25,0.10085 c 4.14506,0.0984 4.25322,0.18727 4.38052,3.60085 l 0.13052,3.5 -0.44841,-3.3107 c -0.54004,-3.98732 -2.54543,-3.75838 -3.44432,0.3932 l -0.63168,2.9175 -0.11832,-3.33333 c -0.14553,-4.10027 -2.33278,-3.82041 -3.25,0.41583 -0.61184,2.82584 -0.6354,2.80438 -0.75,-0.68335 z m 26.95541,2.10085 c -0.006,-0.825 0.65058,-2.37351 1.45808,-3.44113 1.99664,-2.6398 1.85344,-3.34557 -0.7818,-3.85314 -1.92915,-0.37157 -1.85784,-0.45279 0.5,-0.56955 1.62493,-0.0805 2.73285,0.37522 2.70808,1.11382 -0.0627,1.87015 -3.87263,8.49079 -3.88436,6.75 z m 7.12628,-0.2 c -2.67205,-2.67205 -0.21094,-8.76981 3.01638,-7.47349 0.8069,0.32411 0.63369,0.54492 -0.46638,0.59454 -2.09037,0.0943 -2.38537,2.07895 -0.30902,2.07895 1.97724,0 2.81201,1.62755 2.05618,4.00895 -0.71288,2.24608 -2.5111,2.57711 -4.29716,0.79105 z m 3.54827,-1.5448 c 0.20529,-0.61588 -0.4918,-1.58276 -1.5491,-2.14861 -1.64566,-0.88073 -1.88869,-0.71055 -1.68839,1.1823 0.12868,1.21611 0.2914,2.36111 0.3616,2.54444 0.27368,0.71484 2.523,-0.51946 2.87589,-1.57813 z m 5.00173,1.71364 c 2.69816,-1.08453 2.88045,-2.50226 0.5,-3.88874 -0.9625,-0.56061 -1.2426,-1.03297 -0.62244,-1.04969 1.75143,-0.0472 3.66108,2.77501 3.0157,4.45686 -0.31927,0.832 -1.60711,1.48421 -2.86188,1.44934 l -2.28138,-0.0634 z m 7.5,0.34183 c 2.00703,-0.52449 2.36948,-3.89404 0.5,-4.64839 -1,-0.40351 -1,-0.52017 0,-0.58333 1.87161,-0.11821 1.50603,-1.86539 -0.5,-2.38962 -1.28192,-0.335 -1.13137,-0.48835 0.56286,-0.57333 1.67832,-0.0842 2.23387,0.36411 2.02496,1.634 -0.15835,0.9625 0.0771,2.33221 0.52323,3.0438 1.02016,1.62723 -1.04997,4.24583 -3.23349,4.0902 -1.37316,-0.0979 -1.35402,-0.18749 0.12244,-0.57333 z m 6.17876,-1.7385 c -1.35153,-5.38492 2.25471,-8.61648 4.90996,-4.39983 0.74815,1.1881 0.713,2.41872 -0.12138,4.25 -1.48121,3.2509 -3.99056,3.32941 -4.78858,0.14983 z m 3.98693,-0.21305 c 0.84956,-2.21393 -0.30417,-5.56285 -1.75055,-5.0813 -2.21002,0.73579 -2.03504,6.72218 0.19649,6.72218 0.50841,0 1.20774,-0.73839 1.55406,-1.64088 z m 5.33431,1.60972 c 2.78805,-1.12066 2.91455,-2.98229 0.25,-3.67909 -1.10692,-0.28947 -2,-1.36402 -2,-2.40638 0,-1.42093 0.67523,-1.84993 2.75,-1.74719 2.35784,0.11676 2.42915,0.19798 0.5,0.56955 -2.80811,0.54087 -2.81284,1.01792 -0.0324,3.26936 1.8979,1.53683 2.0244,2.02842 0.87755,3.41029 -0.737,0.88804 -2.07241,1.5861 -2.96756,1.55123 -1.1014,-0.0429 -0.90018,-0.35576 0.62244,-0.96777 z m 6.45,-0.16884 c -2.99226,-2.99226 0.13168,-9.42947 3.3,-6.8 2.45796,2.03992 1.34044,8 -1.5,8 -0.33,0 -1.14,-0.54 -1.8,-1.2 z m 3.3,-3.38333 c 0,-1.91398 -0.51096,-2.91667 -1.4863,-2.91667 -1.64445,0 -2.50638,2.77372 -1.59775,5.14157 0.94999,2.47562 3.08405,0.93605 3.08405,-2.2249 z m 3.5,3.89778 c 0,-0.37705 1.0125,-1.76332 2.25,-3.08059 2.21138,-2.35393 2.21668,-2.41941 0.30887,-3.81445 -1.72118,-1.25858 -1.74596,-1.41941 -0.21861,-1.41941 2.76325,0 3.12562,2.87519 0.68922,5.46862 l -2.22354,2.36685 2.34703,0.44608 c 2.13246,0.4053 2.09562,0.45854 -0.40297,0.58227 -1.5125,0.0749 -2.75,-0.17232 -2.75,-0.54937 z m -62.73097,-3.00744 c 0.97297,-0.25354 2.32297,-0.23687 3,0.0371 0.67703,0.27393 -0.11903,0.48137 -1.76903,0.46099 -1.65,-0.0204 -2.20394,-0.2445 -1.23097,-0.49804 z m -38.26903,-1.18898 c 0,-0.55 0.45,-1.27811 1,-1.61803 0.55,-0.33992 1,-0.16803 1,0.38197 0,0.55 -0.45,1.27811 -1,1.61803 -0.55,0.33992 -1,0.16803 -1,-0.38197 z m 64.75,-3.78031 c 0.6875,-0.27741 1.8125,-0.27741 2.5,0 0.6875,0.27741 0.125,0.50439 -1.25,0.50439 -1.375,0 -1.9375,-0.22698 -1.25,-0.50439 z m -83.04981,-13.4457 c -1.55883,-0.90694 -0.4207,-2.06558 8.5,-8.65318 5.66489,-4.18331 15.00109,-10.67341 20.7471,-14.42243 13.40445,-8.74583 15.08954,-8.85028 27.54678,-1.70742 8.38711,4.80908 9.05227,5.02275 11.33127,3.63993 1.33162,-0.80798 10.75784,-7.26953 20.94716,-14.35899 20.64963,-14.36748 20.59575,-14.20545 4.16277,-12.51833 -7.22921,0.7422 -9.73481,0.67947 -10.7164,-0.2683 -3.8732,-3.73975 8.10536,-6.54994 28.06251,-6.58349 9.35877,-0.0157 11.89531,0.27705 12.33538,1.42385 0.63085,1.64399 -10.77833,28.98482 -13.39724,32.10497 -2.26861,2.70281 -5.16509,3.74143 -6.75476,2.42212 -1.01393,-0.84148 -0.25612,-3.23806 3.62675,-11.46975 2.69967,-5.7233 4.90849,-10.86697 4.90849,-11.43038 0,-0.56342 -5.5125,2.86606 -12.25,7.62106 -18.91439,13.34885 -26.81249,18.30832 -29.15652,18.30832 -2.25856,0 -13.95379,-5.43895 -19.12525,-8.89433 l -3.03177,-2.02572 -4.96823,2.83849 c -2.73253,1.56118 -11.94323,7.83577 -20.46823,13.94354 -15.47446,11.08674 -18.29959,12.35743 -22.29981,10.03004 z m -154.56317,-1.22692 c -1.64095,-1.97723 0.85871,-4.84387 8.86489,-10.16637 12.5643,-8.35273 23.18872,-10.52123 31.59953,-6.44962 2.32809,1.12701 4.95554,3.15201 5.83878,4.5 2.16236,3.30017 4.97726,3.09387 11.55978,-0.8472 11.57382,-6.92944 16.738,-7.28666 22.64016,-1.56606 3.64728,3.53508 3.04056,3.61446 12.34437,-1.61513 2.68755,-1.51065 6.06556,-2.52072 8.43012,-2.52072 3.39942,0 4.53644,0.63449 8.21411,4.58369 3.50461,3.76337 4.68039,4.45626 6.56988,3.87169 3.83103,-1.18525 9.1661,-4.15345 11.60308,-6.45544 2.3445,-2.21463 5.6951,-2.04569 4.9701,0.25059 -0.63937,2.02509 -9.60879,7.62826 -13.32806,8.326 -5.22675,0.98054 -8.23257,-0.24213 -11.22185,-4.56468 -3.3991,-4.91518 -5.0971,-4.97948 -13.51588,-0.51185 -8.34446,4.42819 -10.68334,4.41874 -15.64435,-0.0632 -3.66246,-3.30881 -4.19928,-3.49278 -7.51811,-2.5764 -1.96572,0.54276 -5.91482,2.42713 -8.77577,4.1875 -2.86095,1.76036 -6.83086,3.41917 -8.82202,3.68624 -4.07521,0.5466 -9.30513,-1.66851 -10.87792,-4.6073 -1.5513,-2.89864 -6.50438,-4.47588 -11.78351,-3.7523 -6.51079,0.89241 -17.956,6.7974 -24.52785,12.65479 -4.36613,3.89147 -5.76818,4.66156 -6.61948,3.63581 z m -132.13702,-15.51863 c 0,-2.55335 69.93889,-10.33107 106.25,-11.81579 10.28933,-0.42072 15.75,-0.29637 15.75,0.35865 0,0.59152 -5.8432,1.28121 -14.25,1.68198 -25.99079,1.23902 -63.0472,4.85446 -89.25,8.70775 -14.34066,2.10888 -18.5,2.34887 -18.5,1.06741 z m -10.93181,-4.56431 c -0.97778,-1.17814 -0.27999,-1.59992 4.12755,-2.49491 24.80023,-5.03589 104.31567,-13.44413 111.05426,-11.74327 5.6555,1.42749 2.29244,2.26533 -13.87385,3.45637 -26.97079,1.98707 -73.68613,7.65516 -92.50181,11.22348 -6.72261,1.27492 -7.41013,1.24044 -8.80615,-0.44167 z m 163.43181,-30.91642 c -5.418,-1.40661 -12.2189,-4.40189 -13.05076,-5.74786 -0.28516,-0.46141 1.92111,0.27795 4.90284,1.64303 7.3984,3.3871 19.85134,4.875 30.64792,3.66186 l 8.5,-0.95509 -10.5,-0.14139 c -11.72845,-0.15794 -20.79483,-1.39511 -27.80588,-3.7943 -2.58177,-0.88348 -5.45542,-1.6571 -6.38589,-1.71916 -1.72395,-0.11498 -7.5624,-6.34281 -9.65327,-10.29709 -0.63523,-1.20134 -1.15056,-4.80134 -1.14519,-8 0.0276,-16.43522 16.32413,-31.22748 40.99023,-37.20658 11.12951,-2.69782 35.26832,-4.36911 44.34375,-3.07023 20.28077,2.90261 34.11798,10.20139 38.79059,20.46107 5.7623,12.65231 -1.8814,23.60718 -24.52234,35.14519 -17.31053,8.82159 -25.07629,11.42017 -31.31373,10.47819 l -4.79827,-0.72463 5.5,-1.33808 c 16.18132,-3.93671 32.3168,-11.17089 38.83419,-17.41093 8.79269,-8.41851 12.09425,-20.37984 7.8389,-28.39974 -0.94845,-1.7875 -1.46589,-3.25 -1.14988,-3.25 0.31602,0 1.44269,1.9125 2.50372,4.25 2.46441,5.4292 2.45764,12.08555 -0.0178,17.53982 -2.38255,5.24955 -0.75059,4.58394 2.00519,-0.81783 3.03178,-5.94279 2.64999,-12.53297 -1.06549,-18.39167 -1.67816,-2.64619 -3.31247,-4.54999 -3.63179,-4.23067 -0.31932,0.31933 -2.39807,-0.97512 -4.61945,-2.87653 -9.54564,-8.17071 -30.59146,-11.538 -49.58927,-7.93418 -16.68704,3.16548 -31.52788,9.46217 -42.35723,17.97139 -6.23764,4.90125 -12.33873,13.1748 -13.31446,18.05544 -1.59494,7.97793 4.5803,16.80026 14.30664,20.43935 2.99212,1.1195 9.8606,2.48907 15.26328,3.04349 9.27262,0.95155 13.70917,0.75465 35.99348,-1.59741 4.67388,-0.49332 5.19959,-0.3915 3.5,0.67789 -7.03316,4.42528 -38.28424,7.31865 -49,4.53665 z m 0,-51.8392 c 3.3,-1.97795 9.25606,-4.85452 13.23568,-6.39239 8.81708,-3.40723 8.90328,-4.33589 0.13104,-1.41178 -11.20735,3.73582 -22.15991,10.77074 -26.88369,17.26764 -1.94294,2.67224 -1.5088,2.44966 2.59152,-1.32861 2.709,-2.49623 7.62545,-6.15692 10.92545,-8.13486 z m -94.87278,39.46735 c -0.34497,-0.34497 -0.62722,-3.75332 -0.62722,-7.5741 v -6.94688 l -4.25,0.56963 c -2.3375,0.31329 -8.3,0.85308 -13.25,1.19954 -4.95,0.34645 -15.975,1.49116 -24.5,2.54379 -8.525,1.05264 -17.99242,1.91394 -21.0387,1.91401 l -5.53871,1.2e-4 0.72688,-7.25 c 0.39979,-3.9875 0.7547,-10.5125 0.78871,-14.5 0.0342,-4.01434 0.49817,-7.25 1.03953,-7.25 0.53775,0 15.14111,1.575 32.45192,3.5 17.31081,1.925 31.88537,3.5 32.38792,3.5 0.50254,0 1.1414,-3.18222 1.41969,-7.0716 0.27828,-3.88938 0.91808,-7.48372 1.42178,-7.98742 0.55442,-0.55442 2.38086,0.29179 4.6284,2.1444 2.04192,1.68313 3.71258,2.86183 3.71258,2.61935 0,-0.24249 1.48953,0.96225 3.31007,2.67719 1.82053,1.71495 7.00795,5.14308 11.52759,7.61808 4.51964,2.475 8.95576,4.99928 9.85804,5.6095 1.38064,0.93376 -0.24255,2.3373 -10.24722,8.86055 -6.53825,4.26307 -14.43164,9.70855 -17.54088,12.10105 -3.10924,2.3925 -5.93541,4.06776 -6.28038,3.72279 z m 7.83534,-8.08578 c 2.83488,-2.22992 15.53744,-17.10444 15.53744,-18.19413 0,-0.44 -0.7875,-1.10469 -1.75,-1.47708 -1.22103,-0.47241 -2.50568,0.20882 -4.25,2.25371 -1.375,1.61193 -5.0875,5.85587 -8.25,9.43099 -5.40523,6.11045 -7.15238,9.7784 -4.65773,9.7784 0.60075,0 2.11738,-0.80635 3.37029,-1.79189 z m -62.69448,-7.99981 c 1.24744,-1.48957 4.3148,-5.2958 6.81635,-8.4583 l 4.54827,-5.75 h -2.98335 c -2.55464,0 -3.92932,1.21146 -9.56635,8.43049 -3.62065,4.63677 -6.583,8.73555 -6.583,9.10841 0,1.59077 5.68956,-0.84866 7.76808,-3.3306 z m 13.31406,-4.80882 c 4.86168,-5.94971 5.90732,-7.79256 4.81423,-8.48469 -2.00212,-1.26772 -5.89637,-1.11937 -5.89637,0.22462 0,0.62668 -2.475,4.20267 -5.5,7.94665 -3.025,3.74399 -5.5,7.05625 -5.5,7.36059 0,0.30434 1.32109,0.55335 2.93576,0.55335 2.44543,0 3.97308,-1.26945 9.14638,-7.60052 z m 57.17924,-5.92341 2.53595,-3.02392 -2.34744,-1.10782 c -2.16676,-1.02254 -2.80143,-0.56848 -8.24551,5.89909 -5.16685,6.13822 -5.76758,7.28342 -4.84552,9.23725 1.02119,2.16389 1.19132,2.07822 5.70956,-2.87516 2.56135,-2.80803 5.79818,-6.46628 7.19296,-8.12944 z m -48.63492,6.27393 c 6.97446,-8.7437 6.97706,-8.75 3.612,-8.75 -2.33384,0 -3.82439,1.18449 -7.86492,6.25 -6.97446,8.7437 -6.97706,8.75 -3.612,8.75 2.33384,0 3.82439,-1.18449 7.86492,-6.25 z m 8.7833,-0.44995 c 5.34194,-6.43576 5.76568,-8.2334 1.95288,-8.28474 -1.05201,-0.0142 -12.36264,13.18914 -12.36264,14.43134 0,0.30434 1.09092,0.55335 2.42426,0.55335 1.77111,0 3.92261,-1.80514 7.9855,-6.69995 z m 9.36482,-0.88232 5.27457,-6.41773 h -2.93146 c -2.28739,0 -3.78164,1.0436 -6.80113,4.75 -7.1623,8.79168 -6.92231,8.26034 -3.68901,8.16773 2.27174,-0.0651 3.97552,-1.42441 8.14703,-6.5 z m 7.47555,1.30866 c 5.82621,-6.54195 6.32512,-7.72639 3.2545,-7.72639 -2.5023,0 -3.68626,1.05762 -11.10685,9.92167 l -2.86447,3.42167 3.47642,-0.69529 c 2.30101,-0.4602 4.74903,-2.12424 7.2404,-4.92166 z m 32.12951,1.35432 c 5.40837,-3.144 5.73222,-3.52575 4.04044,-4.76281 -2.30365,-1.68447 -2.11321,-1.78884 -7.45823,4.08741 -4.97679,5.47142 -4.86907,5.49271 3.41779,0.6754 z m -82.44166,-3.78729 c 5.09508,-6.59994 5.14072,-6.72023 2.86972,-7.5644 -3.36155,-1.24954 -8.77181,5.22407 -8.79282,10.52098 -0.008,2.0625 0.15625,3.75 0.3654,3.75 0.20916,0 2.71012,-3.01796 5.5577,-6.70658 z m 56.77064,4.48059 c 0.66474,-0.52262 3.78285,-4.09669 6.92913,-7.94239 4.56263,-5.57689 5.43125,-7.17523 4.29138,-7.89658 -2.13805,-1.35305 -2.66997,-1.16912 -4.63245,1.60176 -0.98817,1.39523 -4.38058,5.33273 -7.53867,8.75 -3.15809,3.41726 -5.74559,6.55927 -5.75,6.98225 -0.01,0.94173 5.03203,-0.18321 6.70061,-1.49504 z m -59.70862,-11.929 c 0,-0.46475 -0.675,-0.84501 -1.5,-0.84501 -0.825,0 -1.5,0.4132 -1.5,0.91821 0,0.50502 -0.3013,1.74252 -0.66957,2.75 -0.63253,1.73049 -0.54958,1.72644 1.5,-0.0732 1.19327,-1.04774 2.16957,-2.28524 2.16957,-2.75 z m 1.5,-3.84501 c -0.33992,-0.55 -2.05398,-0.94076 -3.80902,-0.86836 l -3.19098,0.13164 3.5,0.73672 c 1.925,0.40519 3.63906,0.79596 3.80902,0.86836 0.16996,0.0724 0.0309,-0.31836 -0.30902,-0.86836 z m 5.22917,0.39583 c -0.3323,-0.33229 -1.1948,-0.36781 -1.91667,-0.0789 -0.79773,0.31922 -0.56078,0.55618 0.60417,0.60416 1.05416,0.0434 1.64479,-0.19293 1.3125,-0.52522 z m 59.14485,-4.04762 c -1.83029,-2.20537 -2.87402,-1.54922 -2.87402,1.80678 0,3.08978 0.0413,3.11765 1.99647,1.34821 1.52321,-1.37849 1.73123,-2.12637 0.87755,-3.15499 z m 1.6293,-2.34283 c -0.33809,-0.54704 -1.60215,-1.47725 -2.80901,-2.06712 -1.89041,-0.92396 -1.84808,-0.78929 0.30569,0.97239 2.79973,2.29004 3.4059,2.55513 2.50332,1.09473 z m 233.06897,37.16445 c -2.71025,-0.91841 -5.08653,-2.16118 -5.28063,-2.76171 -0.1941,-0.60054 16.31087,-14.51628 36.67771,-30.92387 20.36685,-16.40759 37.03063,-30.11206 37.03063,-30.45437 0,-0.34231 -3.375,-3.2659 -7.5,-6.49686 -4.125,-3.23096 -7.50007,-6.13514 -7.50014,-6.45375 -8e-5,-0.3186 3.80238,-0.42152 8.44992,-0.22871 10.28168,0.42655 22.95412,-1.16425 33.41806,-4.19504 4.29622,-1.24436 8.33349,-2.08841 8.97173,-1.87566 1.3735,0.45783 1.53851,3.41865 0.26584,4.77014 -3.06029,3.24983 -10.10541,30.68816 -10.10541,39.35708 0,6.07756 -1.23288,5.58325 -7.87414,-3.15708 -2.40299,-3.1625 -4.79203,-5.75 -5.30897,-5.75 -0.51694,0 -17.14704,11.25 -36.95579,25 -19.80874,13.75 -36.76857,24.96392 -37.6885,24.91983 -0.91993,-0.0441 -3.89007,-0.8316 -6.60031,-1.75 z m 26.53603,-15.9853 c 11.76542,-8.1485 28.32182,-19.6235 36.792,-25.5 8.47017,-5.87649 15.94609,-10.68453 16.61316,-10.68453 0.66706,0 3.21523,2.14072 5.6626,4.75716 l 4.44976,4.75715 2.15061,-11.18044 c 1.18284,-6.14924 3.0895,-13.96748 4.23703,-17.37387 1.14753,-3.40639 1.90508,-6.37478 1.68344,-6.59641 -0.22164,-0.22164 -3.50661,0.31817 -7.29995,1.19958 -3.79333,0.88141 -12.15408,1.90277 -18.57944,2.2697 l -11.68246,0.66713 6.43246,5.25851 c 3.53786,2.89219 6.40555,5.59219 6.37266,6 -0.0329,0.40782 -10.21994,8.84149 -22.63788,18.74149 -12.41794,9.9 -28.02852,22.43499 -34.69019,27.85554 -6.66167,5.42055 -13.01212,10.49574 -14.11212,11.27819 -1.71809,1.22212 -1.78857,1.55748 -0.5,2.37915 0.825,0.52607 1.99874,0.96339 2.60832,0.97181 0.60957,0.008 10.73457,-6.65165 22.5,-14.80016 z m -57.10832,-52.16732 c -16.06628,-8.14999 -46.73236,-16.32668 -78.5,-20.93095 -16.95786,-2.4578 -47.49507,-5.08626 -59.09166,-5.08626 -6.71261,0 -8.59403,-0.32033 -9.06326,-1.54313 -0.32569,-0.84872 -0.3194,-1.81589 0.014,-2.14926 0.83732,-0.83731 37.30237,1.36619 53.14095,3.21118 27.38721,3.19027 57.97294,9.64291 74.75978,15.772 l 6.75978,2.46808 6.53104,-3.468 c 4.84644,-2.57347 6.86543,-3.19048 7.82743,-2.3921 1.3378,1.11028 4.18417,13.98951 3.50452,15.8572 -0.22628,0.62182 -2.62926,-0.0884 -5.88255,-1.73876 z m 3,-6.53753 v -4.52033 l -4.25,2.14325 c -2.3375,1.17878 -4.40496,2.28039 -4.59436,2.44802 -0.39086,0.34592 6.94324,4.33735 8.09436,4.40518 0.4125,0.0243 0.75,-1.98995 0.75,-4.47612 z m -211.56691,7.41205 c -0.38023,-0.61522 -0.97073,-4.55452 -1.31221,-8.754 l -0.62088,-7.6354 -4,0.33054 c -2.2,0.1818 -17.01888,1.61849 -32.93084,3.19266 -27.0988,2.68087 -29.01575,2.75485 -30.27179,1.16829 -0.81911,-1.03465 -1.14217,-3.05588 -0.83017,-5.19382 0.28093,-1.925 0.51574,-7.50018 0.52179,-12.38929 l 0.011,-8.88929 5.25,0.63817 c 11.21959,1.36383 45.65615,4.52539 53.37956,4.90069 l 8.12956,0.39503 0.647,-6.31509 c 1.01218,-9.87944 1.08159,-9.92887 6.9468,-4.94792 6.30863,5.35752 16.17141,11.76436 23.30629,15.13969 2.93743,1.38963 5.34079,2.87483 5.34079,3.30045 0,0.42561 -2.8125,2.73926 -6.25,5.14144 -3.4375,2.40218 -10.83451,8.11809 -16.43779,12.70202 -6.42089,5.2528 -10.44341,7.92083 -10.87912,7.21583 z m 15.04135,-13.7765 c 5.66023,-4.88662 11.12778,-9.35287 12.15011,-9.925 2.16468,-1.21141 2.32521,-1.05322 -4.12455,-4.06469 -2.75,-1.284 -8.7125,-4.75243 -13.25,-7.70762 l -8.25,-5.37306 v 5.47757 c 0,3.71615 -0.40196,5.47711 -1.25,5.47615 -2.97119,-0.003 -54.78424,-2.98465 -60,-3.45233 l -5.75,-0.51559 v 10.02637 10.02637 l 7.25,-0.57365 c 3.9875,-0.31551 16.025,-1.23196 26.75,-2.03654 10.725,-0.80459 22.50677,-1.74532 26.18171,-2.09053 l 6.68171,-0.62764 0.61519,3.87248 c 0.33835,2.12986 0.83948,5.33498 1.1136,7.12248 0.27413,1.7875 0.74423,3.25 1.04466,3.25 0.30043,0 5.17734,-3.99815 10.83757,-8.88477 z m -81.97444,-22.11523 c 0.33992,-0.55 0.14148,-1 -0.44098,-1 -0.58246,0 -1.05902,0.45 -1.05902,1 0,0.55 0.19844,1 0.44098,1 0.24254,0 0.7191,-0.45 1.05902,-1 z m 317,7.12548 c -7.5704,-1.86804 -20.8084,-7.58723 -22.62312,-9.77383 -1.43033,-1.72344 -0.87889,-1.69881 5.86612,0.26202 7.59184,2.207 27.70835,1.45666 38.45508,-1.43438 17.94387,-4.82719 33.69359,-13.11443 43.43279,-22.85363 2.95302,-2.95303 5.36913,-5.7964 5.36913,-6.31862 0,-0.52221 -3.2625,-1.92082 -7.25,-3.10803 -7.67822,-2.28605 -10.59538,-3.89901 -7.05165,-3.89901 1.15409,0 6.27566,-2.09117 11.38126,-4.64704 7.25359,-3.63116 11.033,-6.37146 17.28857,-12.53526 4.53282,-4.46631 8.58044,-7.66766 9.33063,-7.37978 0.98518,0.37805 1.16365,1.88098 0.69593,5.86054 -0.95796,8.1508 2.41098,29.15237 6.08795,37.95154 1.11836,2.67629 -2.30576,2.23099 -8.56595,-1.11398 l -5.36001,-2.86398 -6.86155,7.34728 c -11.96098,12.8077 -26.97751,21.09883 -44.90302,24.79245 -10.06625,2.07419 -26.2584,1.94284 -35.29216,-0.28629 z m 35.5,-2.24242 c 16.77984,-3.84465 34.73291,-14.99266 44.07829,-27.37053 4.52999,-5.99992 5.7596,-6.45997 9.76734,-3.65431 1.4599,1.02202 3.66044,2.38441 4.89009,3.02754 2.1475,1.12318 2.19337,1.05972 1.1625,-1.60822 -1.69359,-4.38309 -4.89822,-21.89911 -4.89822,-26.77291 v -4.42446 l -6.75,5.11339 c -3.7125,2.81236 -10.1808,6.77401 -14.374,8.80366 l -7.62399,3.69028 6.87399,2.21392 c 3.7807,1.21765 6.874,2.68452 6.874,3.2597 0,2.0213 -13.56624,14.527 -19.5,17.97559 -9.0738,5.27351 -22.02438,10.5392 -32.02937,13.02309 -7.06087,1.75297 -11.98299,2.23914 -23.12049,2.28365 -7.78243,0.0311 -13.63243,0.38715 -13,0.79122 3.06232,1.95658 14.58104,5.05495 20.98465,5.64457 9.49662,0.87442 16.38831,0.35851 26.66521,-1.99618 z m -127.25,-35.94719 c -3.1625,-1.63236 -5.75,-3.17924 -5.75,-3.43751 0,-0.48677 11.53728,-6.49836 12.47148,-6.49836 0.29069,0 0.52852,1.125 0.52852,2.5 v 2.5 h 22 22 v -11.5 c 0,-9.10125 0.28734,-11.5 1.37756,-11.5 3.29393,0 3.88064,2.70545 3.14387,14.49715 l -0.71873,11.50285 h -23.90135 -23.90135 v 2.5 c 0,3.09626 -0.18657,3.08174 -7.25,-0.56413 z m -61.75,0.36544 c -3.575,-0.8372 -6.6545,-1.66447 -6.84333,-1.8384 -0.63243,-0.58252 9.32774,-12.32349 10.51387,-12.39366 0.6438,-0.0381 1.46706,1.28075 1.82946,2.93075 0.3624,1.65 0.99471,3 1.40514,3 1.50873,0 5.05572,-4.65727 7.14617,-9.38308 5.37045,-12.1408 -2.87428,-27.15457 -16.15698,-29.4221 -5.86406,-1.00107 -6.36592,-3.19776 -0.72766,-3.18505 8.69852,0.0196 18.04246,6.50249 21.60577,14.99023 1.88757,4.49615 1.67767,15.2492 -0.38241,19.59049 -0.86913,1.83157 -3.55159,5.14724 -5.96101,7.36817 -3.91586,3.60952 -4.2772,4.31045 -3.40489,6.6048 0.53673,1.4117 0.97587,2.76244 0.97587,3.00164 0,0.73303 -3.20007,0.32861 -10,-1.26379 z m -20.92498,-1.02192 c -5.02677,-1.77524 -11.93514,-8.3575 -14.54589,-13.85925 -4.43019,-9.33593 -2.45032,-21.49895 4.65635,-28.60562 3.38414,-3.38414 3.85191,-4.3678 3.29115,-6.92094 -0.61483,-2.79927 -0.50163,-2.93796 1.90506,-2.33392 1.4073,0.35321 4.93463,1.16981 7.83852,1.81466 2.90388,0.64485 5.27979,1.71684 5.27979,2.3822 0,1.55906 -8.32492,12.24348 -9.53967,12.24348 -0.50723,0 -1.20458,-1.125 -1.54969,-2.5 -0.73484,-2.92786 -1.206,-3.03206 -4.20656,-0.93039 -5.88587,4.12263 -9.155,17.79536 -5.79336,24.23005 2.97782,5.69999 11.002,11.20034 16.33962,11.20034 3.03216,0 5.24966,1.56291 5.24966,3.7 0,1.69161 -3.39737,1.53151 -8.92498,-0.42061 z m -58.07502,-10.31077 c 0,-5.97259 0.35992,-8.1695 1.40405,-8.57017 1.62288,-0.62276 14.38608,4.17215 16.56024,6.22139 1.28571,1.21185 1.28571,1.55791 0,2.83772 -1.40863,1.40215 -15.33119,7.54244 -17.10183,7.54244 -0.47435,0 -0.86246,-3.61412 -0.86246,-8.03138 z m 8.86665,1.89805 c 2.82334,-1.17332 5.13335,-2.42958 5.13335,-2.79168 0,-0.59691 -10.39002,-6.07499 -11.52215,-6.07499 -0.26282,0 -0.47785,2.475 -0.47785,5.5 0,3.025 0.38999,5.5 0.86665,5.5 0.47665,0 3.17665,-0.96 6,-2.13333 z m -98.30189,-2.76189 c -0.3043,-0.49236 0.11914,-1.15324 0.94098,-1.46861 1.77553,-0.68133 4.49426,0.20842 4.49426,1.47082 0,1.16453 -4.71534,1.16262 -5.43524,-0.002 z m 8.43524,0.002 c 0,-1.26417 2.71971,-2.15178 4.5,-1.46862 2.54142,0.97524 1.66085,2.36163 -1.5,2.36163 -1.65,0 -3,-0.40186 -3,-0.89301 z m 9,0 c 0,-1.26417 2.71971,-2.15178 4.5,-1.46862 2.54142,0.97524 1.66085,2.36163 -1.5,2.36163 -1.65,0 -3,-0.40186 -3,-0.89301 z m 9,0 c 0,-1.2624 2.71873,-2.15215 4.49426,-1.47082 0.82184,0.31537 1.24528,0.97625 0.94098,1.46861 -0.7199,1.16483 -5.43524,1.16674 -5.43524,0.002 z m 9,-0.048 c 0,-1.43654 1.63742,-2.13538 3.40976,-1.45528 2.44162,0.93697 1.88757,2.39629 -0.90976,2.39629 -1.375,0 -2.5,-0.42344 -2.5,-0.94098 z m 8,0.048 c 0,-1.26417 2.71971,-2.15178 4.5,-1.46862 2.54142,0.97524 1.66085,2.36163 -1.5,2.36163 -1.65,0 -3,-0.40186 -3,-0.89301 z m 9,0 c 0,-1.26417 2.71971,-2.15178 4.5,-1.46862 2.54142,0.97524 1.66085,2.36163 -1.5,2.36163 -1.65,0 -3,-0.40186 -3,-0.89301 z m 9,0 c 0,-1.26417 2.71971,-2.15178 4.5,-1.46862 2.54142,0.97524 1.66085,2.36163 -1.5,2.36163 -1.65,0 -3,-0.40186 -3,-0.89301 z m 9.25,-0.35699 c 0.22917,-0.6875 1.24167,-1.25 2.25,-1.25 1.00833,0 2.02083,0.5625 2.25,1.25 0.26389,0.79167 -0.56111,1.25 -2.25,1.25 -1.68889,0 -2.51389,-0.45833 -2.25,-1.25 z m 7.75,0.35699 c 0,-1.26417 2.71971,-2.15178 4.5,-1.46862 2.54142,0.97524 1.66085,2.36163 -1.5,2.36163 -1.65,0 -3,-0.40186 -3,-0.89301 z m 135.66667,-8.77366 c -0.36667,-0.36666 -0.66667,-6.21666 -0.66667,-13 v -12.33333 h 24 24 v -2.5 c 0,-3.24421 0.95705,-3.15616 7.97972,0.73413 l 5.83819,3.23413 -6.11253,3.26587 c -3.36189,1.79623 -6.47092,3.26587 -6.90895,3.26587 -0.43804,0 -0.79643,-1.125 -0.79643,-2.5 v -2.5 h -21.5 -21.5 v 5.35331 c 0,13.33453 -1.62222,19.69114 -4.33333,16.98002 z m 89.33333,-15.10232 c 0,-1.32618 16.18602,-16.48594 23.50522,-22.01489 10.42198,-7.87279 23.97539,-14.38022 30.07406,-14.43951 3.70557,-0.036 7.2667,-1.1659 14.42072,-4.57536 5.225,-2.49013 14.59163,-6.41113 20.81473,-8.71333 l 11.31472,-4.18582 -5.73151,-1.15105 c -3.15232,-0.63308 -7.34395,-1.16536 -9.31472,-1.18285 -3.36744,-0.0299 -3.46633,-0.12022 -1.64209,-1.5 1.23438,-0.93364 4.25728,-1.4682 8.30259,-1.4682 7.01194,0 19.87426,2.57287 20.86341,4.17334 0.34605,0.55992 -1.39623,3.11248 -3.87174,5.67235 -5.45203,5.63782 -11.56256,13.67251 -13.02125,17.12152 l -1.07119,2.53279 -0.40435,-2.35171 c -0.61071,-3.55185 0.38715,-6.39117 4.27818,-12.17323 1.94505,-2.89033 3.41198,-5.37494 3.25984,-5.52135 -0.54021,-0.51986 -21.17217,7.60643 -30.34884,11.95346 l -9.32102,4.41541 1.08127,2.86461 c 3.08651,8.1771 -14.02641,22.389 -20.21517,16.78825 -3.35562,-3.03679 -2.51649,-6.97994 2.66398,-12.51828 2.55026,-2.72644 4.33743,-4.95716 3.97149,-4.95716 -3.56269,0 -27.04133,14.83923 -40.27034,25.45209 -8.09371,6.49312 -9.33799,7.26316 -9.33799,5.77892 z m 44.34508,-15.77414 c -0.32569,-0.84872 -0.80663,-1.32866 -1.06875,-1.06653 -0.26213,0.26213 -0.17998,0.95654 0.18255,1.54313 0.98605,1.59546 1.56238,1.28551 0.8862,-0.4766 z m 8.17121,-4.60531 c 3.66756,-3.22016 7.07238,-8.59622 6.07556,-9.59304 -0.82515,-0.82516 -8.25899,4.58452 -10.04441,7.30942 -1.74131,2.65758 -2.0387,5.43206 -0.58224,5.43206 0.53087,0 2.57885,-1.4168 4.55109,-3.14844 z m -273.51629,9.73376 v -3.41468 l -7.75,-0.83532 c -12.5493,-1.3526 -53.55306,-1.00453 -64.53354,0.54781 -8.80227,1.2444 -12.04937,1.11645 -10.51845,-0.41448 0.29224,-0.29224 5.65474,-1.22809 11.91667,-2.07968 12.93948,-1.75969 42.69099,-2.28745 60.13532,-1.06673 9.99529,0.69945 11.75,0.60486 11.75,-0.63342 0,-1.97568 -2.70526,-2.42498 -22.89159,-3.80192 -13.3002,-0.90722 -21.88687,-0.9136 -36.5,-0.0271 -10.50963,0.63751 -20.23341,1.45791 -21.60841,1.82308 -2.17052,0.57645 -2.33255,0.45958 -1.22942,-0.88673 2.21208,-2.69973 24.09039,-4.1438 52.57978,-3.47051 13.8323,0.32689 26.38787,0.88995 27.90126,1.25124 2.48506,0.59326 2.81308,0.34963 3.38597,-2.51481 0.4459,-2.22954 1.06702,-3.00567 2.09092,-2.61276 2.32082,0.89059 15.87752,10.45788 17.74917,12.52603 1.61975,1.7898 1.56487,1.9508 -1.13793,3.33881 -3.25356,1.67085 -17.1317,5.68585 -19.65354,5.68585 -1.25241,0 -1.68621,-0.87848 -1.68621,-3.41468 z m 76.19541,-48.95235 c -7.31752,-4.03818 -13.70307,-7.74508 -14.1901,-8.23756 -0.92802,-0.93838 27.9822,-17.39541 30.55868,-17.39541 1.0465,0 1.43595,1.28842 1.4358,4.75 l -2.2e-4,4.75 h 36.25022 36.25021 l 0.5,-4.49132 c 0.35385,-3.17848 0.99688,-4.58554 2.19987,-4.81367 1.57061,-0.29784 30.72775,14.68239 30.76244,15.80499 0.0259,0.83795 -29.91078,17 -31.48879,17 -1.07855,0 -1.47352,-1.19973 -1.47352,-4.47581 v -4.47581 l -36.45583,-0.27419 -36.45582,-0.27419 -0.29418,4.5 c -0.2378,3.63775 -0.67739,4.54552 -2.29417,4.73756 -1.1,0.13065 -7.98706,-3.06641 -15.30459,-7.10459 z m 54.55459,-3.39406 41.25,-0.2611 v 3.5111 c 0,1.9311 0.2821,3.51109 0.62689,3.51109 0.65774,0 13.51266,-6.87571 19.17574,-10.25653 l 3.30264,-1.97165 -11.30264,-6.2203 -11.30263,-6.22029 -0.5,3.08438 -0.5,3.08439 -41.25,0.26109 -41.25,0.2611 v -3.5111 c 0,-1.9311 -0.2821,-3.51109 -0.62689,-3.51109 -0.65962,0 -13.52456,6.88245 -19.20049,10.27182 l -3.32737,1.98694 11.32737,6.13431 11.32738,6.1343 0.5,-3.01368 0.5,-3.01369 z m -131.75,8.94412 c 0,-1.79045 2.86853,-4.29101 9.74709,-8.49678 l 7.2471,-4.4311 -7.96908,-5.17774 c -4.38299,-2.84775 -8.27665,-5.67539 -8.65257,-6.28364 -1.39464,-2.25658 6.47329,0.0887 17.07619,5.09006 7.97322,3.76096 10.62607,5.47375 10.38077,6.70228 -0.42683,2.1377 -27.8295,14.54142 -27.8295,12.59692 z m -80.33333,-10.8497 c -0.36667,-0.36666 -0.66667,-1.49166 -0.66667,-2.5 0,-1.57126 0.84601,-1.83333 5.91821,-1.83333 3.25502,0 6.63002,0.27314 7.5,0.60699 2.03851,0.78225 2.03851,3.00377 0,3.78602 -2.13584,0.8196 -11.91805,0.77382 -12.75154,-0.0597 z m 22,0 c -0.36667,-0.36666 -0.66667,-1.49166 -0.66667,-2.5 0,-1.57126 0.84601,-1.83333 5.91821,-1.83333 3.25502,0 6.63002,0.27314 7.5,0.60699 2.03851,0.78225 2.03851,3.00377 0,3.78602 -2.13584,0.8196 -11.91805,0.77382 -12.75154,-0.0597 z m 23.43761,-0.24772 c -0.76764,-0.48607 -1.11927,-1.60418 -0.78138,-2.48469 0.48304,-1.25879 2.12368,-1.60092 7.6771,-1.60092 5.55341,0 7.19406,0.34213 7.6771,1.60092 0.33788,0.88051 -0.0137,1.99862 -0.78138,2.48469 -1.80995,1.14605 -11.98149,1.14605 -13.79144,0 z m 24,0 c -0.76764,-0.48607 -1.11927,-1.60418 -0.78138,-2.48469 0.48304,-1.25879 2.12368,-1.60092 7.6771,-1.60092 5.55341,0 7.19406,0.34213 7.6771,1.60092 0.89677,2.33693 -1.4542,3.36845 -7.6771,3.36845 -3.025,0 -6.12807,-0.39769 -6.89572,-0.88376 z m 260.35762,-9.38878 c -6.22325,-2.97503 -12.05339,-9.46033 -16.25931,-18.08643 -3.44506,-7.06562 -3.61792,-7.6104 -2.41468,-7.6104 0.43335,0 2.66835,2.86015 4.96666,6.35588 4.59839,6.99416 8.87448,10.7078 15.91618,13.82267 3.83718,1.69737 6.13115,1.97994 13.29368,1.63749 7.43605,-0.35552 9.76294,-0.93942 16.50716,-4.14223 10.63495,-5.05052 18.48811,-10.86887 28.09934,-20.81862 8.28277,-8.57448 15.86638,-18.612569 13.34436,-17.663333 -4.34209,1.634275 -20.12214,5.934633 -20.47653,5.580238 -1.25928,-1.259274 3.27573,-4.140556 13.0054,-8.262873 11.74872,-4.977765 16.0121,-6.209082 16.8274,-4.859962 0.62338,1.031539 -0.99471,27.83408 -1.89267,31.35074 l -0.63836,2.5 -0.75583,-2.64549 c -0.41571,-1.45502 -1.08614,-6.81877 -1.48984,-11.91943 l -0.734,-9.273943 -3.52192,4.419433 c -6.86668,8.61658 -24.50274,24.96821 -33.21409,30.79514 -11.18548,7.48184 -18.41959,10.2722 -28.02485,10.80981 -6.40041,0.35824 -8.23864,0.0667 -12.5381,-1.98869 z m 7.56431,-0.31245 c -3.56059,-0.77814 -8.28559,-2.58521 -10.5,-4.01571 -3.60285,-2.32742 -3.80052,-2.36592 -1.87985,-0.36621 2.5155,2.61904 11.55171,5.96166 15.85364,5.86448 1.8833,-0.0425 0.59024,-0.5944 -3.47379,-1.48256 z m -263.7163,-30.72203 c 0.11573,-1.42325 2.14592,-4.0152 5.19009,-6.62623 2.75,-2.35871 5.17422,-4.443486 5.38716,-4.632834 0.21294,-0.189347 -18.12456,-0.05974 -40.75,0.288014 -37.93337,0.583039 -41.13716,0.50286 -41.13716,-1.029507 0,-1.36625 1.20045,-1.695417 6.75,-1.850873 l 6.75,-0.189085 -5.97599,-0.367562 c -5.3238,-0.327448 -7.46077,-1.304968 -7.5087,-3.434718 -0.008,-0.374247 0.99719,-0.875465 2.23469,-1.113818 1.92915,-0.37157 1.85784,-0.452789 -0.5,-0.569551 -1.5125,-0.0749 -2.75,-0.649073 -2.75,-1.275939 0,-0.626867 -0.7875,-1.737555 -1.75,-2.468197 -1.46383,-1.111207 5.3503,-1.33364 41.67041,-1.360243 l 43.42042,-0.0318 -6.28339,-5.686137 c -5.9065,-5.345081 -6.14934,-5.735722 -4.04861,-6.512832 1.7314,-0.640486 4.32194,0.272092 11.50097,4.051482 11.46274,6.034543 25.49055,14.338242 25.48917,15.088199 -0.002,1.248639 -34.61525,20.059281 -36.91054,20.059281 -0.53273,0 -0.88307,-1.05195 -0.77852,-2.33765 z m 93.68651,-5.60768 c -3.57303,-1.53221 -9.56079,-4.477384 -13.30612,-6.544836 l -6.8097,-3.759001 3.17983,-1.933776 c 6.72822,-4.091672 23.12233,-11.967627 23.70281,-11.387151 0.33518,0.335189 -1.61192,2.62364 -4.32691,5.085447 l -4.93633,4.476013 47.5,-0.04813 c 44.98592,-0.04559 47.36987,-0.137981 45.04132,-1.745681 -4.32082,-2.983229 -8.04132,-6.347717 -8.04132,-7.27185 0,-1.101008 7.67148,1.865838 16.73154,6.470704 12.00417,6.101246 12.08075,5.450521 -1.38725,11.788708 -6.51436,3.065723 -12.89541,5.895823 -14.18012,6.289093 -2.13104,0.65236 -2.23688,0.53017 -1.20728,-1.39366 0.6207,-1.15979 2.90933,-3.28717 5.08583,-4.727512 2.1765,-1.440342 3.95728,-2.784005 3.95728,-2.985917 0,-0.201913 -21.4875,-0.345983 -47.75,-0.320157 l -47.75,0.04696 3.44896,2.703042 c 10.42168,8.167764 10.66345,9.381284 1.04746,5.257704 z m 144.00358,-30.911699 c 0,-0.503734 2.1375,-1.217233 4.75,-1.585553 15.76299,-2.222328 34.21471,-9.758752 54.62783,-22.312195 15.0326,-9.244589 30.07189,-21.168798 28.54927,-22.635873 -0.23491,-0.226334 -3.5771,0.167757 -7.4271,0.875758 -15.05817,2.769143 -14.519,2.727994 -13.87863,1.059206 0.64399,-1.678208 19.94073,-8.214412 27.28658,-9.242527 l 4.40796,-0.616931 -0.63987,5.407574 c -1.2692,10.726019 -4.91495,27.907574 -5.92172,27.907574 -0.67597,0 -0.85235,-4.030152 -0.51426,-11.75 l 0.5146,-11.75 -8.83921,8.62709 c -15.75121,15.373198 -40.92378,30.446296 -58.00222,34.731174 -7.81597,1.960979 -24.91323,2.842635 -24.91323,1.284703 z m 29.46422,-4.130657 c 6.22958,-2.143289 23.39921,-10.506984 25.03578,-12.195466 0.55,-0.567445 -1.475,0.209912 -4.5,1.727461 -3.025,1.517549 -10.675,4.924925 -17,7.571946 -11.91564,4.986713 -13.58387,6.353107 -3.53578,2.896059 z M -424.83616,56.49474 c 0,-0.511139 2.66601,-3.731042 5.92446,-7.15534 l 5.92445,-6.225997 -18.92445,0.658092 c -16.46242,0.572475 -18.92446,0.462586 -18.92446,-0.84466 0,-0.857371 0.9663,-1.55257 2.25,-1.618752 1.69317,-0.08729 1.81691,-0.22918 0.5,-0.573325 -1.53313,-0.400649 -2.24926,-2.148671 -1.86842,-4.560674 0.0651,-0.4125 -0.33158,-0.75 -0.88158,-0.75 -0.55,0 -1,-0.9 -1,-2 0,-1.111111 -0.66667,-2 -1.5,-2 -0.825,0 -1.5,-0.45 -1.5,-1 0,-0.635153 7.753,-1.00164 21.25,-1.004495 l 21.25,-0.0045 -6.25,-5.575386 c -13.23785,-11.808975 -5.30167,-9.494431 21.98206,6.410953 5.35263,3.120382 9.74013,5.996201 9.75,6.390709 0.0334,1.333179 -34.92124,20.782719 -37.35056,20.782719 -0.34733,0 -0.6315,-0.418205 -0.6315,-0.929344 z m -95,-9.938896 c 0,-1.15812 1.84718,-3.103168 4.75,-5.001657 l 4.75,-3.106576 -33.56967,-0.01176 -33.56966,-0.01176 -2.18034,-2.507606 c -1.19918,-1.379183 -2.18033,-2.723499 -2.18033,-2.987369 0,-0.263869 16.07636,-0.597946 35.72524,-0.742394 l 35.72523,-0.262631 -5.46401,-4 c -5.1644,-3.780654 -5.31916,-4.016838 -2.82234,-4.307052 2.66568,-0.309842 24.83588,10.035933 24.83588,11.589721 0,0.714742 -15.47053,8.785166 -22.75,11.867866 -3.00752,1.273621 -3.25,1.234916 -3.25,-0.518775 z m 202.34675,-2.671465 4.84674,-4.460295 h -17.59674 c -14.37422,0 -17.59675,-0.255105 -17.59675,-1.393011 0,-0.766156 -0.675,-1.652033 -1.5,-1.968615 -0.825,-0.316583 -1.5,-1.030215 -1.5,-1.585849 0,-0.636714 7.24234,-1.110497 19.58752,-1.281385 l 19.58752,-0.27114 -4.58752,-3.435855 c -9.13477,-6.841552 -3.40263,-6.340015 8.66248,0.757927 4.2625,2.507643 7.75,5.142886 7.75,5.856095 0,1.475409 -4.75516,4.655053 -13.75848,9.199912 -8.47329,4.277305 -9.62695,3.857345 -3.89477,-1.417784 z" id="path1"/>
    <path style="fill:#000000" d="m 250.28275,1017.9972 c -0.10538,-4.1172 0.1071,-4.5504 2.3218,-4.7337 1.67966,-0.139 2.63834,0.4301 3.08262,1.8299 0.74706,2.3538 -1.24671,5.2547 -3.11798,4.5366 -0.70243,-0.2695 -1.47813,0.2725 -1.72379,1.2045 -0.24566,0.932 -0.49885,-0.3448 -0.56265,-2.8373 z m 4.54817,-0.5353 c 0.83346,-2.172 -1.28244,-4.2146 -2.79695,-2.7 -1.28004,1.28 -0.48705,4.2672 1.13278,4.2672 0.58452,0 1.3334,-0.7053 1.66417,-1.5672 z m 3.58801,-0.9328 c 0.0111,-2.2 0.21589,-2.9823 0.45508,-1.7384 0.23919,1.2439 0.23011,3.0439 -0.0202,4 -0.25029,0.9561 -0.446,-0.062 -0.4349,-2.2616 z m 3.54062,1.9742 c 0.72527,-1.4161 0.70882,-2.6201 -0.0547,-4 -0.99499,-1.7984 -0.93612,-1.8463 0.66101,-0.5385 1.30144,1.0657 1.93982,1.1339 2.47708,0.2646 0.39808,-0.6441 0.72378,0.3777 0.72378,2.2707 0,2.434 -0.32909,3.1688 -1.12379,2.5092 -0.71252,-0.5913 -1.59906,-0.4839 -2.42241,0.2936 -1.05554,0.9967 -1.1044,0.847 -0.261,-0.7996 z m 7.2072,-1.4742 c 0,-1.65 0,-3.225 0,-3.5 0,-0.275 0.29011,-0.6125 0.6447,-0.75 0.35458,-0.1375 0.69208,1.4377 0.75,3.5006 0.0579,2.0628 -0.2322,3.7503 -0.6447,3.75 -0.4125,-4e-4 -0.75,-1.3506 -0.75,-3.0006 z m 4,1.4686 c 0,-0.8423 0.675,-1.7904 1.5,-2.107 2.02081,-0.7755 1.89582,-2.1115 -0.25,-2.6723 -1.38188,-0.3611 -1.29971,-0.4817 0.39059,-0.5733 1.74194,-0.094 2.21891,0.5548 2.5611,3.4859 0.34316,2.9394 0.20507,3.3073 -0.75084,2 -1.47859,-2.0221 -2.85177,-2.0891 -2.08922,-0.1019 0.31658,0.825 0.13972,1.5 -0.39301,1.5 -0.53274,0 -0.96862,-0.6891 -0.96862,-1.5314 z m 7.99164,0.5577 c 1.18796,-0.751 1.23886,-1.1958 0.25,-2.1847 -1.79604,-1.796 -1.52394,-3.8441 0.50836,-3.8263 1.4878,0.013 1.52599,0.1569 0.25487,0.9605 -1.28867,0.8147 -1.23305,1.1368 0.40278,2.333 2.11175,1.5441 1.39834,3.6995 -1.21667,3.6759 -1.44779,-0.013 -1.47645,-0.151 -0.19934,-0.9584 z m 5.66796,0.2237 c -0.85107,-1.3924 -1.16567,-6.1574 -0.4096,-6.2039 2.76406,-0.17 3.18564,0.025 1.86309,0.8628 -0.85138,0.5392 -1.19452,1.8847 -0.88867,3.4847 0.49831,2.6067 0.29742,3.267 -0.56482,1.8564 z m 4.04164,0.1179 c -1.3078,-1.3078 -0.70972,-5.4274 0.8763,-6.0361 2.415,-0.9267 5.15813,2.2776 3.79833,4.4369 -1.1922,1.8932 -3.56792,2.7059 -4.67463,1.5992 z m 3.79876,-2.9376 c 0,-1.0466 -0.7875,-2.0546 -1.75,-2.24 -1.75992,-0.3389 -2.53354,2.6928 -1.0625,4.1638 1.18142,1.1815 2.8125,0.066 2.8125,-1.9238 z m 3.43043,1.9859 c -1.61782,-1.9494 -0.1435,-4.7943 2.67675,-5.1651 1.45543,-0.1914 1.3729,-0.026 -0.35718,0.7177 -3.06803,1.3182 -2.6897,3.9929 0.75,5.3023 1.25793,0.4788 1.23735,0.5837 -0.12756,0.6499 -0.89515,0.043 -2.21906,-0.6337 -2.94201,-1.5048 z m 6.3354,-3.4162 c 0.0186,-3.025 0.22744,-4.15 0.46408,-2.5 0.23663,1.65 1.40671,4.1218 2.60017,5.4928 l 2.16992,2.4929 -2.16214,-1.8184 c -2.09054,-1.7581 -2.17777,-1.7578 -2.634,0.01 -0.25952,1.0041 -0.45663,-0.6495 -0.43803,-3.6745 z m 10.6646,3.4162 c -1.61782,-1.9494 -0.1435,-4.7943 2.67675,-5.1651 1.45543,-0.1914 1.3729,-0.026 -0.35718,0.7177 -1.2375,0.5317 -2.25,1.6707 -2.25,2.5312 0,0.8604 1.0125,1.9714 2.25,2.4688 1.52262,0.612 1.72384,0.9249 0.62244,0.9678 -0.89515,0.035 -2.21906,-0.6493 -2.94201,-1.5204 z m 6.0356,0.043 c -1.68876,-2.0349 -0.13027,-4.9591 2.64296,-4.9591 1.43253,0 1.89101,0.724 1.89101,2.9863 0,3.4512 -2.42965,4.5083 -4.53397,1.9728 z m 4.03397,-1.9591 c 0,-1.4902 -0.57222,-2.5 -1.41667,-2.5 -1.60131,0 -2.51738,1.8782 -1.82903,3.75 0.8363,2.2741 3.2457,1.3462 3.2457,-1.25 z m 3.11831,0.3991 -0.11831,-3.6008 4.25,0.1008 c 4.14506,0.098 4.25322,0.1873 4.38052,3.6009 l 0.13052,3.5 -0.44841,-3.3107 c -0.54004,-3.9873 -2.54543,-3.7584 -3.44432,0.3932 l -0.63168,2.9175 -0.11832,-3.3334 c -0.14553,-4.1002 -2.33278,-3.8204 -3.25,0.4159 -0.61184,2.8258 -0.6354,2.8044 -0.75,-0.6834 z m 26.95541,2.1009 c -0.006,-0.825 0.65058,-2.3735 1.45808,-3.4412 1.99664,-2.6398 1.85344,-3.3455 -0.7818,-3.8531 -1.92915,-0.3716 -1.85784,-0.4528 0.5,-0.5695 1.62493,-0.081 2.73285,0.3752 2.70808,1.1138 -0.0627,1.8701 -3.87263,8.4908 -3.88436,6.75 z m 7.12628,-0.2 c -2.67205,-2.6721 -0.21094,-8.7698 3.01638,-7.4735 0.8069,0.3241 0.63369,0.5449 -0.46638,0.5945 -2.09037,0.094 -2.38537,2.079 -0.30902,2.079 1.97724,0 2.81201,1.6275 2.05618,4.0089 -0.71288,2.2461 -2.5111,2.5771 -4.29716,0.7911 z m 3.54827,-1.5448 c 0.20529,-0.6159 -0.4918,-1.5828 -1.5491,-2.1486 -1.64566,-0.8808 -1.88869,-0.7106 -1.68839,1.1823 0.12868,1.2161 0.2914,2.3611 0.3616,2.5444 0.27368,0.7148 2.523,-0.5195 2.87589,-1.5781 z m 5.00173,1.7136 c 2.69816,-1.0845 2.88045,-2.5022 0.5,-3.8887 -0.9625,-0.5606 -1.2426,-1.033 -0.62244,-1.0497 1.75143,-0.047 3.66108,2.775 3.0157,4.4568 -0.31927,0.832 -1.60711,1.4843 -2.86188,1.4494 l -2.28138,-0.063 z m 7.5,0.3418 c 2.00703,-0.5244 2.36948,-3.894 0.5,-4.6483 -1,-0.4036 -1,-0.5202 0,-0.5834 1.87161,-0.1182 1.50603,-1.8654 -0.5,-2.3896 -1.28192,-0.335 -1.13137,-0.4883 0.56286,-0.5733 1.67832,-0.084 2.23387,0.3641 2.02496,1.634 -0.15835,0.9625 0.0771,2.3322 0.52323,3.0438 1.02016,1.6272 -1.04997,4.2458 -3.23349,4.0902 -1.37316,-0.098 -1.35402,-0.1875 0.12244,-0.5734 z m 6.17876,-1.7385 c -1.35153,-5.3849 2.25471,-8.6164 4.90996,-4.3998 0.74815,1.1881 0.713,2.4187 -0.12138,4.25 -1.48121,3.2509 -3.99056,3.3294 -4.78858,0.1498 z m 3.98693,-0.213 c 0.84956,-2.2139 -0.30417,-5.5629 -1.75055,-5.0813 -2.21002,0.7358 -2.03504,6.7222 0.19649,6.7222 0.50841,0 1.20774,-0.7384 1.55406,-1.6409 z m 5.33431,1.6097 c 2.78805,-1.1206 2.91455,-2.9823 0.25,-3.6791 -1.10692,-0.2894 -2,-1.364 -2,-2.4064 0,-1.4209 0.67523,-1.8499 2.75,-1.7471 2.35784,0.1167 2.42915,0.1979 0.5,0.5695 -2.80811,0.5409 -2.81284,1.0179 -0.0324,3.2694 1.8979,1.5368 2.0244,2.0284 0.87755,3.4103 -0.737,0.888 -2.07241,1.5861 -2.96756,1.5512 -1.1014,-0.043 -0.90018,-0.3558 0.62244,-0.9678 z m 6.45,-0.1688 c -2.99226,-2.9923 0.13168,-9.4295 3.3,-6.8 2.45796,2.0399 1.34044,8 -1.5,8 -0.33,0 -1.14,-0.54 -1.8,-1.2 z m 3.3,-3.3834 c 0,-1.9139 -0.51096,-2.9166 -1.4863,-2.9166 -1.64445,0 -2.50638,2.7737 -1.59775,5.1415 0.94999,2.4757 3.08405,0.9361 3.08405,-2.2249 z m 3.5,3.8978 c 0,-0.377 1.0125,-1.7633 2.25,-3.0806 2.21138,-2.3539 2.21668,-2.4194 0.30887,-3.8144 -1.72118,-1.2586 -1.74596,-1.4194 -0.21861,-1.4194 2.76325,0 3.12562,2.8752 0.68922,5.4686 l -2.22354,2.3668 2.34703,0.4461 c 2.13246,0.4053 2.09562,0.4586 -0.40297,0.5823 -1.5125,0.075 -2.75,-0.1723 -2.75,-0.5494 z m -62.73097,-3.0074 c 0.97297,-0.2536 2.32297,-0.2369 3,0.037 0.67703,0.2739 -0.11903,0.4814 -1.76903,0.461 -1.65,-0.02 -2.20394,-0.2445 -1.23097,-0.4981 z m -38.26903,-1.189 c 0,-0.55 0.45,-1.2781 1,-1.618 0.55,-0.3399 1,-0.1681 1,0.3819 0,0.55 -0.45,1.2782 -1,1.6181 -0.55,0.3399 -1,0.168 -1,-0.382 z m 64.75,-3.7803 c 0.6875,-0.2774 1.8125,-0.2774 2.5,0 0.6875,0.2774 0.125,0.5044 -1.25,0.5044 -1.375,0 -1.9375,-0.227 -1.25,-0.5044 z m -83.04981,-13.44571 c -1.55883,-0.90694 -0.4207,-2.06558 8.5,-8.65318 5.66489,-4.18331 15.00109,-10.67341 20.7471,-14.42243 13.40445,-8.74583 15.08954,-8.85028 27.54678,-1.70742 8.38711,4.80908 9.05227,5.02275 11.33127,3.63993 1.33162,-0.80798 10.75784,-7.26953 20.94716,-14.35899 20.64963,-14.36748 20.59575,-14.20545 4.16277,-12.51833 -7.22921,0.7422 -9.73481,0.67947 -10.7164,-0.2683 -3.8732,-3.73975 8.10536,-6.54994 28.06251,-6.58349 9.35877,-0.0157 11.89531,0.27705 12.33538,1.42385 0.63085,1.64399 -10.77833,28.98482 -13.39724,32.10497 -2.26861,2.70281 -5.16509,3.74143 -6.75476,2.42212 -1.01393,-0.84148 -0.25612,-3.23806 3.62675,-11.46975 2.69967,-5.7233 4.90849,-10.86697 4.90849,-11.43038 0,-0.56342 -5.5125,2.86606 -12.25,7.62106 -18.91439,13.34885 -26.81249,18.30832 -29.15652,18.30832 -2.25856,0 -13.95379,-5.43895 -19.12525,-8.89433 l -3.03177,-2.02572 -4.96823,2.83849 c -2.73253,1.56118 -11.94323,7.83577 -20.46823,13.94354 -15.47446,11.08674 -18.29959,12.35745 -22.29981,10.03004 z m -154.56317,-1.22692 c -1.64095,-1.97723 0.85871,-4.84387 8.86489,-10.16637 12.5643,-8.35273 23.18872,-10.52123 31.59953,-6.44962 2.32809,1.12701 4.95554,3.15201 5.83878,4.5 2.16236,3.30017 4.97726,3.09387 11.55978,-0.8472 11.57382,-6.92944 16.738,-7.28666 22.64016,-1.56606 3.64728,3.53508 3.04056,3.61446 12.34437,-1.61513 2.68755,-1.51065 6.06556,-2.52072 8.43012,-2.52072 3.39942,0 4.53644,0.63449 8.21411,4.58369 3.50461,3.76337 4.68039,4.45626 6.56988,3.87169 3.83103,-1.18525 9.1661,-4.15345 11.60308,-6.45544 2.3445,-2.21463 5.6951,-2.04569 4.9701,0.25059 -0.63937,2.02509 -9.60879,7.62826 -13.32806,8.326 -5.22675,0.98054 -8.23257,-0.24213 -11.22185,-4.56468 -3.3991,-4.91518 -5.0971,-4.97948 -13.51588,-0.51185 -8.34446,4.42819 -10.68334,4.41874 -15.64435,-0.0632 -3.66246,-3.30881 -4.19928,-3.49278 -7.51811,-2.5764 -1.96572,0.54276 -5.91482,2.42713 -8.77577,4.1875 -2.86095,1.76036 -6.83086,3.41917 -8.82202,3.68624 -4.07521,0.5466 -9.30513,-1.66851 -10.87792,-4.6073 -1.5513,-2.89864 -6.50438,-4.47588 -11.78351,-3.7523 -6.51079,0.89241 -17.956,6.7974 -24.52785,12.65479 -4.36613,3.89147 -5.76818,4.66156 -6.61948,3.63581 z M 1.16675,981.17554 c 0,-2.55335 69.93889,-10.33107 106.25,-11.81579 10.28933,-0.42072 15.75,-0.29637 15.75,0.35865 0,0.59152 -5.8432,1.28121 -14.25,1.68198 -25.99079,1.23902 -63.0472,4.85446 -89.25,8.70775 -14.34066,2.10888 -18.5,2.34887 -18.5,1.06741 z m -10.93181,-4.56431 c -0.97778,-1.17814 -0.27999,-1.59992 4.12755,-2.49491 24.80023,-5.03589 104.31567,-13.44413 111.05426,-11.74327 5.6555,1.42749 2.29244,2.26533 -13.87385,3.45637 -26.97079,1.98707 -73.68613,7.65516 -92.50181,11.22348 -6.72261,1.27492 -7.41013,1.24044 -8.80615,-0.44167 z m 163.43181,-30.91642 c -5.418,-1.40661 -12.2189,-4.40189 -13.05076,-5.74786 -0.28516,-0.46141 1.92111,0.27795 4.90284,1.64303 7.3984,3.3871 19.85134,4.875 30.64792,3.66186 l 8.5,-0.95509 -10.5,-0.14139 c -11.72845,-0.15794 -20.79483,-1.39511 -27.80588,-3.7943 -2.58177,-0.88348 -5.45542,-1.6571 -6.38589,-1.71916 -1.72395,-0.11498 -7.5624,-6.34281 -9.65327,-10.29709 -0.63523,-1.20134 -1.15056,-4.80134 -1.14519,-8 0.0276,-16.43522 16.32413,-31.22748 40.99023,-37.20658 11.12951,-2.69782 35.26832,-4.36911 44.34375,-3.07023 20.28077,2.90261 34.11798,10.20139 38.79059,20.46107 5.7623,12.65231 -1.8814,23.60718 -24.52234,35.14519 -17.31053,8.82159 -25.07629,11.42017 -31.31373,10.47819 l -4.79827,-0.72463 5.5,-1.33808 c 16.18132,-3.93671 32.3168,-11.17089 38.83419,-17.41093 8.79269,-8.41851 12.09425,-20.37984 7.8389,-28.39974 -0.94845,-1.7875 -1.46589,-3.25 -1.14988,-3.25 0.31602,0 1.44269,1.9125 2.50372,4.25 2.46441,5.4292 2.45764,12.08555 -0.0178,17.53982 -2.38255,5.24955 -0.75059,4.58394 2.00519,-0.81783 3.03178,-5.94279 2.64999,-12.53297 -1.06549,-18.39167 -1.67816,-2.64619 -3.31247,-4.54999 -3.63179,-4.23067 -0.31932,0.31933 -2.39807,-0.97512 -4.61945,-2.87653 -9.54564,-8.17071 -30.59146,-11.538 -49.58927,-7.93418 -16.68704,3.16548 -31.52788,9.46217 -42.35723,17.97139 -6.23764,4.90125 -12.33873,13.1748 -13.31446,18.05544 -1.59494,7.97793 4.5803,16.80026 14.30664,20.43935 2.99212,1.1195 9.8606,2.48907 15.26328,3.04349 9.27262,0.95155 13.70917,0.75465 35.99348,-1.59741 4.67388,-0.49332 5.19959,-0.3915 3.5,0.67789 -7.03316,4.42528 -38.28424,7.31865 -49,4.53665 z m 0,-51.8392 c 3.3,-1.97795 9.25606,-4.85452 13.23568,-6.39239 8.81708,-3.40723 8.90328,-4.33589 0.13104,-1.41178 -11.20735,3.73582 -22.15991,10.77074 -26.88369,17.26764 -1.94294,2.67224 -1.5088,2.44966 2.59152,-1.32861 2.709,-2.49623 7.62545,-6.15692 10.92545,-8.13486 z m -94.87278,39.46735 c -0.34497,-0.34497 -0.62722,-3.75332 -0.62722,-7.5741 v -6.94688 l -4.25,0.56963 c -2.3375,0.31329 -8.3,0.85308 -13.25,1.19954 -4.95,0.34645 -15.975,1.49116 -24.5,2.54379 -8.525,1.05264 -17.99242,1.91394 -21.0387,1.91401 l -5.53871,1.2e-4 0.72688,-7.25 c 0.39979,-3.9875 0.7547,-10.5125 0.78871,-14.5 0.0342,-4.01434 0.49817,-7.25 1.03953,-7.25 0.53775,0 15.14111,1.575 32.45192,3.5 17.31081,1.925 31.88537,3.5 32.38792,3.5 0.50254,0 1.1414,-3.18222 1.41969,-7.0716 0.27828,-3.88938 0.91808,-7.48372 1.42178,-7.98742 0.55442,-0.55442 2.38086,0.29179 4.6284,2.1444 2.04192,1.68313 3.71258,2.86183 3.71258,2.61935 0,-0.24249 1.48953,0.96225 3.31007,2.67719 1.82053,1.71495 7.00795,5.14308 11.52759,7.61808 4.51964,2.475 8.95576,4.99928 9.85804,5.6095 1.38064,0.93376 -0.24255,2.3373 -10.24722,8.86055 -6.53825,4.26307 -14.43164,9.70855 -17.54088,12.10105 -3.10924,2.3925 -5.93541,4.06776 -6.28038,3.72279 z m 7.83534,-8.08578 c 2.83488,-2.22992 15.53744,-17.10444 15.53744,-18.19413 0,-0.44 -0.7875,-1.10469 -1.75,-1.47708 -1.22103,-0.47241 -2.50568,0.20882 -4.25,2.25371 -1.375,1.61193 -5.0875,5.85587 -8.25,9.43099 -5.40523,6.11045 -7.15238,9.7784 -4.65773,9.7784 0.60075,0 2.11738,-0.80635 3.37029,-1.79189 z M 3.93483,917.23737 c 1.24744,-1.48957 4.3148,-5.2958 6.81635,-8.4583 l 4.54827,-5.75 H 12.3161 c -2.55464,0 -3.92932,1.21146 -9.56635,8.43049 -3.62065,4.63677 -6.583,8.73555 -6.583,9.10841 0,1.59077 5.68956,-0.84866 7.76808,-3.3306 z m 13.31406,-4.80882 c 4.86168,-5.94971 5.90732,-7.79256 4.81423,-8.48469 -2.00212,-1.26772 -5.89637,-1.11937 -5.89637,0.22462 0,0.62668 -2.475,4.20267 -5.5,7.94665 -3.025,3.74399 -5.5,7.05625 -5.5,7.36059 0,0.30434 1.32109,0.55335 2.93576,0.55335 2.44543,0 3.97308,-1.26945 9.14638,-7.60052 z m 57.17924,-5.92341 2.53595,-3.02392 -2.34744,-1.10782 c -2.16676,-1.02254 -2.80143,-0.56848 -8.24551,5.89909 -5.16685,6.13822 -5.76758,7.28342 -4.84552,9.23725 1.02119,2.16389 1.19132,2.07822 5.70956,-2.87516 2.56135,-2.80803 5.79818,-6.46628 7.19296,-8.12944 z m -48.63492,6.27393 c 6.97446,-8.7437 6.97706,-8.75 3.612,-8.75 -2.33384,0 -3.82439,1.18449 -7.86492,6.25 -6.97446,8.7437 -6.97706,8.75 -3.612,8.75 2.33384,0 3.82439,-1.18449 7.86492,-6.25 z m 8.7833,-0.44995 c 5.34194,-6.43576 5.76568,-8.2334 1.95288,-8.28474 -1.05201,-0.0142 -12.36264,13.18914 -12.36264,14.43134 0,0.30434 1.09092,0.55335 2.42426,0.55335 1.77111,0 3.92261,-1.80514 7.9855,-6.69995 z m 9.36482,-0.88232 5.27457,-6.41773 h -2.93146 c -2.28739,0 -3.78164,1.0436 -6.80113,4.75 -7.1623,8.79168 -6.92231,8.26034 -3.68901,8.16773 2.27174,-0.0651 3.97552,-1.42441 8.14703,-6.5 z m 7.47555,1.30866 c 5.82621,-6.54195 6.32512,-7.72639 3.2545,-7.72639 -2.5023,0 -3.68626,1.05762 -11.10685,9.92167 l -2.86447,3.42167 3.47642,-0.69529 c 2.30101,-0.4602 4.74903,-2.12424 7.2404,-4.92166 z m 32.12951,1.35432 c 5.40837,-3.144 5.73222,-3.52575 4.04044,-4.76281 -2.30365,-1.68447 -2.11321,-1.78884 -7.45823,4.08741 -4.97679,5.47142 -4.86907,5.49271 3.41779,0.6754 z M 1.10473,910.32249 c 5.09508,-6.59994 5.14072,-6.72023 2.86972,-7.5644 -3.36155,-1.24954 -8.77181,5.22407 -8.79282,10.52098 -0.008,2.0625 0.15625,3.75 0.3654,3.75 0.20916,0 2.71012,-3.01796 5.5577,-6.70658 z m 56.77064,4.48059 c 0.66474,-0.52262 3.78285,-4.09669 6.92913,-7.94239 4.56263,-5.57689 5.43125,-7.17523 4.29138,-7.89658 -2.13805,-1.35305 -2.66997,-1.16912 -4.63245,1.60176 -0.98817,1.39523 -4.38058,5.33273 -7.53867,8.75 -3.15809,3.41726 -5.74559,6.55927 -5.75,6.98225 -0.01,0.94173 5.03203,-0.18321 6.70061,-1.49504 z m -59.70862,-11.929 c 0,-0.46475 -0.675,-0.84501 -1.5,-0.84501 -0.825,0 -1.5,0.4132 -1.5,0.91821 0,0.50502 -0.3013,1.74252 -0.66957,2.75 -0.63253,1.73049 -0.54958,1.72644 1.5,-0.0732 1.19327,-1.04774 2.16957,-2.28524 2.16957,-2.75 z m 1.5,-3.84501 c -0.33992,-0.55 -2.05398,-0.94076 -3.80902,-0.86836 l -3.19098,0.13164 3.5,0.73672 c 1.925,0.40519 3.63906,0.79596 3.80902,0.86836 0.16996,0.0724 0.0309,-0.31836 -0.30902,-0.86836 z m 5.22917,0.39583 c -0.3323,-0.33229 -1.1948,-0.36781 -1.91667,-0.0789 -0.79773,0.31922 -0.56078,0.55618 0.60417,0.60416 1.05416,0.0434 1.64479,-0.19293 1.3125,-0.52522 z m 59.14485,-4.04762 c -1.83029,-2.20537 -2.87402,-1.54922 -2.87402,1.80678 0,3.08978 0.0413,3.11765 1.99647,1.34821 1.52321,-1.37849 1.73123,-2.12637 0.87755,-3.15499 z m 1.6293,-2.34283 c -0.33809,-0.54704 -1.60215,-1.47725 -2.80901,-2.06712 -1.89041,-0.92396 -1.84808,-0.78929 0.30569,0.97239 2.79973,2.29004 3.4059,2.55513 2.50332,1.09473 z m 233.06897,37.16445 c -2.71025,-0.91841 -5.08653,-2.16118 -5.28063,-2.76171 -0.1941,-0.60054 16.31087,-14.51628 36.67771,-30.92387 20.36685,-16.40759 37.03063,-30.11206 37.03063,-30.45437 0,-0.34231 -3.375,-3.2659 -7.5,-6.49686 -4.125,-3.23096 -7.50007,-6.13514 -7.50014,-6.45375 -8e-5,-0.3186 3.80238,-0.42152 8.44992,-0.22871 10.28168,0.42655 22.95412,-1.16425 33.41806,-4.19504 4.29622,-1.24436 8.33349,-2.08841 8.97173,-1.87566 1.3735,0.45783 1.53851,3.41865 0.26584,4.77014 -3.06029,3.24983 -10.10541,30.68816 -10.10541,39.35708 0,6.07756 -1.23288,5.58325 -7.87414,-3.15708 -2.40299,-3.1625 -4.79203,-5.75 -5.30897,-5.75 -0.51694,0 -17.14704,11.25 -36.95579,25 -19.80874,13.75 -36.76857,24.96392 -37.6885,24.91983 -0.91993,-0.0441 -3.89007,-0.8316 -6.60031,-1.75 z m 26.53603,-15.9853 c 11.76542,-8.1485 28.32182,-19.6235 36.792,-25.5 8.47017,-5.87649 15.94609,-10.68453 16.61316,-10.68453 0.66706,0 3.21523,2.14072 5.6626,4.75716 l 4.44976,4.75715 2.15061,-11.18044 c 1.18284,-6.14924 3.0895,-13.96748 4.23703,-17.37387 1.14753,-3.40639 1.90508,-6.37478 1.68344,-6.59641 -0.22164,-0.22164 -3.50661,0.31817 -7.29995,1.19958 -3.79333,0.88141 -12.15408,1.90277 -18.57944,2.2697 l -11.68246,0.66713 6.43246,5.25851 c 3.53786,2.89219 6.40555,5.59219 6.37266,6 -0.0329,0.40782 -10.21994,8.84149 -22.63788,18.74149 -12.41794,9.9 -28.02852,22.43499 -34.69019,27.85554 -6.66167,5.42055 -13.01212,10.49574 -14.11212,11.27819 -1.71809,1.22212 -1.78857,1.55748 -0.5,2.37915 0.825,0.52607 1.99874,0.96339 2.60832,0.97181 0.60957,0.008 10.73457,-6.65165 22.5,-14.80016 z m -57.10832,-52.16732 c -16.06628,-8.14999 -46.73236,-16.32668 -78.5,-20.93095 -16.95786,-2.4578 -47.49507,-5.08626 -59.09166,-5.08626 -6.71261,0 -8.59403,-0.32033 -9.06326,-1.54313 -0.32569,-0.84872 -0.3194,-1.81589 0.014,-2.14926 0.83732,-0.83731 37.30237,1.36619 53.14095,3.21118 27.38721,3.19027 57.97294,9.64291 74.75978,15.772 l 6.75978,2.46808 6.53104,-3.468 c 4.84644,-2.57347 6.86543,-3.19048 7.82743,-2.3921 1.3378,1.11028 4.18417,13.98951 3.50452,15.8572 -0.22628,0.62182 -2.62926,-0.0884 -5.88255,-1.73876 z m 3,-6.53753 v -4.52033 l -4.25,2.14325 c -2.3375,1.17878 -4.40496,2.28039 -4.59436,2.44802 -0.39086,0.34592 6.94324,4.33735 8.09436,4.40518 0.4125,0.0243 0.75,-1.98995 0.75,-4.47612 z M 59.59984,862.9208 c -0.38023,-0.61522 -0.97073,-4.55452 -1.31221,-8.754 l -0.62088,-7.6354 -4,0.33054 c -2.2,0.1818 -17.01888,1.61849 -32.93084,3.19266 -27.0988,2.68087 -29.01575,2.75485 -30.27179,1.16829 -0.81911,-1.03465 -1.14217,-3.05588 -0.83017,-5.19382 0.28093,-1.925 0.51574,-7.50018 0.52179,-12.38929 l 0.011,-8.88929 5.25,0.63817 c 11.21959,1.36383 45.65615,4.52539 53.37956,4.90069 l 8.12956,0.39503 0.647,-6.31509 c 1.01218,-9.87944 1.08159,-9.92887 6.9468,-4.94792 6.30863,5.35752 16.17141,11.76436 23.30629,15.13969 2.93743,1.38963 5.34079,2.87483 5.34079,3.30045 0,0.42561 -2.8125,2.73926 -6.25,5.14144 -3.4375,2.40218 -10.83451,8.11809 -16.43779,12.70202 -6.42089,5.2528 -10.44341,7.92083 -10.87912,7.21583 z m 15.04135,-13.7765 c 5.66023,-4.88662 11.12778,-9.35287 12.15011,-9.925 2.16468,-1.21141 2.32521,-1.05322 -4.12455,-4.06469 -2.75,-1.284 -8.7125,-4.75243 -13.25,-7.70762 l -8.25,-5.37306 v 5.47757 c 0,3.71615 -0.40196,5.47711 -1.25,5.47615 -2.97119,-0.003 -54.78424,-2.98465 -60,-3.45233 l -5.75,-0.51559 v 10.02637 10.02637 l 7.25,-0.57365 c 3.9875,-0.31551 16.025,-1.23196 26.75,-2.03654 10.725,-0.80459 22.50677,-1.74532 26.18171,-2.09053 l 6.68171,-0.62764 0.61519,3.87248 c 0.33835,2.12986 0.83948,5.33498 1.1136,7.12248 0.27413,1.7875 0.74423,3.25 1.04466,3.25 0.30043,0 5.17734,-3.99815 10.83757,-8.88477 z M -7.33325,827.02907 c 0.33992,-0.55 0.14148,-1 -0.44098,-1 -0.58246,0 -1.05902,0.45 -1.05902,1 0,0.55 0.19844,1 0.44098,1 0.24254,0 0.7191,-0.45 1.05902,-1 z m 317,7.12548 c -7.5704,-1.86804 -20.8084,-7.58723 -22.62312,-9.77383 -1.43033,-1.72344 -0.87889,-1.69881 5.86612,0.26202 7.59184,2.207 27.70835,1.45666 38.45508,-1.43438 17.94387,-4.82719 33.69359,-13.11443 43.43279,-22.85363 2.95302,-2.95303 5.36913,-5.7964 5.36913,-6.31862 0,-0.52221 -3.2625,-1.92082 -7.25,-3.10803 -7.67822,-2.28605 -10.59538,-3.89901 -7.05165,-3.89901 1.15409,0 6.27566,-2.09117 11.38126,-4.64704 7.25359,-3.63116 11.033,-6.37146 17.28857,-12.53526 4.53282,-4.46631 8.58044,-7.66766 9.33063,-7.37978 0.98518,0.37805 1.16365,1.88098 0.69593,5.86054 -0.95796,8.1508 2.41098,29.15237 6.08795,37.95154 1.11836,2.67629 -2.30576,2.23099 -8.56595,-1.11398 l -5.36001,-2.86398 -6.86155,7.34728 c -11.96098,12.8077 -26.97751,21.09883 -44.90302,24.79245 -10.06625,2.07419 -26.2584,1.94284 -35.29216,-0.28629 z m 35.5,-2.24242 c 16.77984,-3.84465 34.73291,-14.99266 44.07829,-27.37053 4.52999,-5.99992 5.7596,-6.45997 9.76734,-3.65431 1.4599,1.02202 3.66044,2.38441 4.89009,3.02754 2.1475,1.12318 2.19337,1.05972 1.1625,-1.60822 -1.69359,-4.38309 -4.89822,-21.89911 -4.89822,-26.77291 v -4.42446 l -6.75,5.11339 c -3.7125,2.81236 -10.1808,6.77401 -14.374,8.80366 l -7.62399,3.69028 6.87399,2.21392 c 3.7807,1.21765 6.874,2.68452 6.874,3.2597 0,2.0213 -13.56624,14.527 -19.5,17.97559 -9.0738,5.27351 -22.02438,10.5392 -32.02937,13.02309 -7.06087,1.75297 -11.98299,2.23914 -23.12049,2.28365 -7.78243,0.0311 -13.63243,0.38715 -13,0.79122 3.06232,1.95658 14.58104,5.05495 20.98465,5.64457 9.49662,0.87442 16.38831,0.35851 26.66521,-1.99618 z m -127.25,-35.94719 c -3.1625,-1.63236 -5.75,-3.17924 -5.75,-3.43751 0,-0.48677 11.53728,-6.49836 12.47148,-6.49836 0.29069,0 0.52852,1.125 0.52852,2.5 v 2.5 h 22 22 v -11.5 c 0,-9.10125 0.28734,-11.5 1.37756,-11.5 3.29393,0 3.88064,2.70545 3.14387,14.49715 l -0.71873,11.50285 H 249.0681 225.16675 v 2.5 c 0,3.09626 -0.18657,3.08174 -7.25,-0.56413 z m -61.75,0.36544 c -3.575,-0.8372 -6.6545,-1.66447 -6.84333,-1.8384 -0.63243,-0.58252 9.32774,-12.32349 10.51387,-12.39366 0.6438,-0.0381 1.46706,1.28075 1.82946,2.93075 0.3624,1.65 0.99471,3 1.40514,3 1.50873,0 5.05572,-4.65727 7.14617,-9.38308 5.37045,-12.1408 -2.87428,-27.15457 -16.15698,-29.4221 -5.86406,-1.00107 -6.36592,-3.19776 -0.72766,-3.18505 8.69852,0.0196 18.04246,6.50249 21.60577,14.99023 1.88757,4.49615 1.67767,15.2492 -0.38241,19.59049 -0.86913,1.83157 -3.55159,5.14724 -5.96101,7.36817 -3.91586,3.60952 -4.2772,4.31045 -3.40489,6.6048 0.53673,1.4117 0.97587,2.76244 0.97587,3.00164 0,0.73303 -3.20007,0.32861 -10,-1.26379 z m -20.92498,-1.02192 c -5.02677,-1.77524 -11.93514,-8.3575 -14.54589,-13.85925 -4.43019,-9.33593 -2.45032,-21.49895 4.65635,-28.60562 3.38414,-3.38414 3.85191,-4.3678 3.29115,-6.92094 -0.61483,-2.79927 -0.50163,-2.93796 1.90506,-2.33392 1.4073,0.35321 4.93463,1.16981 7.83852,1.81466 2.90388,0.64485 5.27979,1.71684 5.27979,2.3822 0,1.55906 -8.32492,12.24348 -9.53967,12.24348 -0.50723,0 -1.20458,-1.125 -1.54969,-2.5 -0.73484,-2.92786 -1.206,-3.03206 -4.20656,-0.93039 -5.88587,4.12263 -9.155,17.79536 -5.79336,24.23005 2.97782,5.69999 11.002,11.20034 16.33962,11.20034 3.03216,0 5.24966,1.56291 5.24966,3.7 0,1.69161 -3.39737,1.53151 -8.92498,-0.42061 z M 77.16675,784.99769 c 0,-5.97259 0.35992,-8.1695 1.40405,-8.57017 1.62288,-0.62276 14.38608,4.17215 16.56024,6.22139 1.28571,1.21185 1.28571,1.55791 0,2.83772 -1.40863,1.40215 -15.33119,7.54244 -17.10183,7.54244 -0.47435,0 -0.86246,-3.61412 -0.86246,-8.03138 z m 8.86665,1.89805 c 2.82334,-1.17332 5.13335,-2.42958 5.13335,-2.79168 0,-0.59691 -10.39002,-6.07499 -11.52215,-6.07499 -0.26282,0 -0.47785,2.475 -0.47785,5.5 0,3.025 0.38999,5.5 0.86665,5.5 0.47665,0 3.17665,-0.96 6,-2.13333 z m -98.30189,-2.76189 c -0.3043,-0.49236 0.11914,-1.15324 0.94098,-1.46861 1.77553,-0.68133 4.49426,0.20842 4.49426,1.47082 0,1.16453 -4.71534,1.16262 -5.43524,-0.002 z m 8.43524,0.002 c 0,-1.26417 2.71971,-2.15178 4.5,-1.46862 2.54142,0.97524 1.66085,2.36163 -1.5,2.36163 -1.65,0 -3,-0.40186 -3,-0.89301 z m 9,0 c 0,-1.26417 2.71971,-2.15178 4.5,-1.46862 2.54142,0.97524 1.66085,2.36163 -1.5,2.36163 -1.65,0 -3,-0.40186 -3,-0.89301 z m 9,0 c 0,-1.2624 2.71873,-2.15215 4.49426,-1.47082 0.82184,0.31537 1.24528,0.97625 0.94098,1.46861 -0.7199,1.16483 -5.43524,1.16674 -5.43524,0.002 z m 9,-0.048 c 0,-1.43654 1.63742,-2.13538 3.40976,-1.45528 2.44162,0.93697 1.88757,2.39629 -0.90976,2.39629 -1.375,0 -2.5,-0.42344 -2.5,-0.94098 z m 8,0.048 c 0,-1.26417 2.71971,-2.15178 4.5,-1.46862 2.54142,0.97524 1.66085,2.36163 -1.5,2.36163 -1.65,0 -3,-0.40186 -3,-0.89301 z m 9,0 c 0,-1.26417 2.71971,-2.15178 4.5,-1.46862 2.54142,0.97524 1.66085,2.36163 -1.5,2.36163 -1.65,0 -3,-0.40186 -3,-0.89301 z m 9,0 c 0,-1.26417 2.71971,-2.15178 4.5,-1.46862 2.54142,0.97524 1.66085,2.36163 -1.5,2.36163 -1.65,0 -3,-0.40186 -3,-0.89301 z m 9.25,-0.35699 c 0.22917,-0.6875 1.24167,-1.25 2.25,-1.25 1.00833,0 2.02083,0.5625 2.25,1.25 0.26389,0.79167 -0.56111,1.25 -2.25,1.25 -1.68889,0 -2.51389,-0.45833 -2.25,-1.25 z m 7.75,0.35699 c 0,-1.26417 2.71971,-2.15178 4.5,-1.46862 2.54142,0.97524 1.66085,2.36163 -1.5,2.36163 -1.65,0 -3,-0.40186 -3,-0.89301 z m 135.66667,-8.77366 c -0.36667,-0.36666 -0.66667,-6.21666 -0.66667,-13 v -12.33333 h 24 24 v -2.5 c 0,-3.24421 0.95705,-3.15616 7.97972,0.73413 l 5.83819,3.23413 -6.11253,3.26587 c -3.36189,1.79623 -6.47092,3.26587 -6.90895,3.26587 -0.43804,0 -0.79643,-1.125 -0.79643,-2.5 v -2.5 h -21.5 -21.5 v 5.35331 c 0,13.33453 -1.62222,19.69114 -4.33333,16.98002 z m 89.33333,-15.10232 c 0,-1.32618 16.18602,-16.48594 23.50522,-22.01489 10.42198,-7.87279 23.97539,-14.38022 30.07406,-14.43951 3.70557,-0.036 7.2667,-1.1659 14.42072,-4.57536 5.225,-2.49013 14.59163,-6.41113 20.81473,-8.71333 l 11.31472,-4.18582 -5.73151,-1.15105 c -3.15232,-0.63308 -7.34395,-1.16536 -9.31472,-1.18285 -3.36744,-0.0299 -3.46633,-0.12022 -1.64209,-1.5 1.23438,-0.93364 4.25728,-1.4682 8.30259,-1.4682 7.01194,0 19.87426,2.57287 20.86341,4.17334 0.34605,0.55992 -1.39623,3.11248 -3.87174,5.67235 -5.45203,5.63782 -11.56256,13.67251 -13.02125,17.12152 l -1.07119,2.53279 -0.40435,-2.35171 c -0.61071,-3.55185 0.38715,-6.39117 4.27818,-12.17323 1.94505,-2.89033 3.41198,-5.37494 3.25984,-5.52135 -0.54021,-0.51986 -21.17217,7.60643 -30.34884,11.95346 l -9.32102,4.41541 1.08127,2.86461 c 3.08651,8.1771 -14.02641,22.389 -20.21517,16.78825 -3.35562,-3.03679 -2.51649,-6.97994 2.66398,-12.51828 2.55026,-2.72644 4.33743,-4.95716 3.97149,-4.95716 -3.56269,0 -27.04133,14.83923 -40.27034,25.45209 -8.09371,6.49312 -9.33799,7.26316 -9.33799,5.77892 z m 44.34508,-15.77414 c -0.32569,-0.84872 -0.80663,-1.32866 -1.06875,-1.06653 -0.26213,0.26213 -0.17998,0.95654 0.18255,1.54313 0.98605,1.59546 1.56238,1.28551 0.8862,-0.4766 z m 8.17121,-4.60531 c 3.66756,-3.22016 7.07238,-8.59622 6.07556,-9.59304 -0.82515,-0.82516 -8.25899,4.58452 -10.04441,7.30942 -1.74131,2.65758 -2.0387,5.43206 -0.58224,5.43206 0.53087,0 2.57885,-1.4168 4.55109,-3.14844 z m -273.51629,9.73376 v -3.41468 l -7.75,-0.83532 c -12.5493,-1.3526 -53.55306,-1.00453 -64.53354,0.54781 -8.80227,1.2444 -12.04937,1.11645 -10.51845,-0.41448 0.29224,-0.29224 5.65474,-1.22809 11.91667,-2.07968 12.93948,-1.75969 42.69099,-2.28745 60.13532,-1.06673 9.99529,0.69945 11.75,0.60486 11.75,-0.63342 0,-1.97568 -2.70526,-2.42498 -22.89159,-3.80192 -13.3002,-0.90722 -21.88687,-0.9136 -36.5,-0.0271 -10.50963,0.63751 -20.23341,1.45791 -21.60841,1.82308 -2.17052,0.57645 -2.33255,0.45958 -1.22942,-0.88673 2.21208,-2.69973 24.09039,-4.1438 52.57978,-3.47051 13.8323,0.32689 26.38787,0.88995 27.90126,1.25124 2.48506,0.59326 2.81308,0.34963 3.38597,-2.51481 0.4459,-2.22954 1.06702,-3.00567 2.09092,-2.61276 2.32082,0.89059 15.87752,10.45788 17.74917,12.52603 1.61975,1.7898 1.56487,1.9508 -1.13793,3.33881 -3.25356,1.67085 -17.1317,5.68585 -19.65354,5.68585 -1.25241,0 -1.68621,-0.87848 -1.68621,-3.41468 z m 76.19541,-48.95235 c -7.31752,-4.03818 -13.70307,-7.74508 -14.1901,-8.23756 -0.92802,-0.93838 27.9822,-17.39541 30.55868,-17.39541 1.0465,0 1.43595,1.28842 1.4358,4.75 l -2.2e-4,4.75 h 36.25022 36.25021 l 0.5,-4.49132 c 0.35385,-3.17848 0.99688,-4.58554 2.19987,-4.81367 1.57061,-0.29784 30.72775,14.68239 30.76244,15.80499 0.0259,0.83795 -29.91078,17 -31.48879,17 -1.07855,0 -1.47352,-1.19973 -1.47352,-4.47581 v -4.47581 l -36.45583,-0.27419 -36.45582,-0.27419 -0.29418,4.5 c -0.2378,3.63775 -0.67739,4.54552 -2.29417,4.73756 -1.1,0.13065 -7.98706,-3.06641 -15.30459,-7.10459 z m 54.55459,-3.39406 41.25,-0.2611 v 3.5111 c 0,1.9311 0.2821,3.51109 0.62689,3.51109 0.65774,0 13.51266,-6.87571 19.17574,-10.25653 l 3.30264,-1.97165 -11.30264,-6.2203 -11.30263,-6.22029 -0.5,3.08438 -0.5,3.08439 -41.25,0.26109 -41.25,0.2611 v -3.5111 c 0,-1.9311 -0.2821,-3.51109 -0.62689,-3.51109 -0.65962,0 -13.52456,6.88245 -19.20049,10.27182 l -3.32737,1.98694 11.32737,6.13431 11.32738,6.1343 0.5,-3.01368 0.5,-3.01369 z m -131.75,8.94412 c 0,-1.79045 2.86853,-4.29101 9.74709,-8.49678 l 7.2471,-4.4311 -7.96908,-5.17774 c -4.38299,-2.84775 -8.27665,-5.67539 -8.65257,-6.28364 -1.39464,-2.25658 6.47329,0.0887 17.07619,5.09006 7.97322,3.76096 10.62607,5.47375 10.38077,6.70228 -0.42683,2.1377 -27.8295,14.54142 -27.8295,12.59692 z m -80.33333,-10.8497 c -0.36667,-0.36666 -0.66667,-1.49166 -0.66667,-2.5 0,-1.57126 0.84601,-1.83333 5.91821,-1.83333 3.25502,0 6.63002,0.27314 7.5,0.60699 2.03851,0.78225 2.03851,3.00377 0,3.78602 -2.13584,0.8196 -11.91805,0.77382 -12.75154,-0.0597 z m 22,0 c -0.36667,-0.36666 -0.66667,-1.49166 -0.66667,-2.5 0,-1.57126 0.84601,-1.83333 5.91821,-1.83333 3.25502,0 6.63002,0.27314 7.5,0.60699 2.03851,0.78225 2.03851,3.00377 0,3.78602 -2.13584,0.8196 -11.91805,0.77382 -12.75154,-0.0597 z m 23.43761,-0.24772 c -0.76764,-0.48607 -1.11927,-1.60418 -0.78138,-2.48469 0.48304,-1.25879 2.12368,-1.60092 7.6771,-1.60092 5.55341,0 7.19406,0.34213 7.6771,1.60092 0.33788,0.88051 -0.0137,1.99862 -0.78138,2.48469 -1.80995,1.14605 -11.98149,1.14605 -13.79144,0 z m 24,0 c -0.76764,-0.48607 -1.11927,-1.60418 -0.78138,-2.48469 0.48304,-1.25879 2.12368,-1.60092 7.6771,-1.60092 5.55341,0 7.19406,0.34213 7.6771,1.60092 0.89677,2.33693 -1.4542,3.36845 -7.6771,3.36845 -3.025,0 -6.12807,-0.39769 -6.89572,-0.88376 z m 260.35762,-9.38878 c -6.22325,-2.97503 -12.05339,-9.46033 -16.25931,-18.08643 -3.44506,-7.06562 -3.61792,-7.6104 -2.41468,-7.6104 0.43335,0 2.66835,2.86015 4.96666,6.35588 4.59839,6.99416 8.87448,10.7078 15.91618,13.82267 3.83718,1.69737 6.13115,1.97994 13.29368,1.63749 7.43605,-0.35552 9.76294,-0.93942 16.50716,-4.14223 10.63495,-5.05052 18.48811,-10.86887 28.09934,-20.81862 8.28277,-8.57448 15.86638,-18.61257 13.34436,-17.66333 -4.34209,1.63427 -20.12214,5.93463 -20.47653,5.58024 -1.25928,-1.25928 3.27573,-4.14056 13.0054,-8.26288 11.74872,-4.97776 16.0121,-6.20908 16.8274,-4.85996 0.62338,1.03154 -0.99471,27.83408 -1.89267,31.35074 l -0.63836,2.5 -0.75583,-2.64549 c -0.41571,-1.45502 -1.08614,-6.81877 -1.48984,-11.91943 l -0.734,-9.27394 -3.52192,4.41943 c -6.86668,8.61658 -24.50274,24.96821 -33.21409,30.79514 -11.18548,7.48184 -18.41959,10.2722 -28.02485,10.80981 -6.40041,0.35824 -8.23864,0.0667 -12.5381,-1.98869 z m 7.56431,-0.31245 c -3.56059,-0.77814 -8.28559,-2.58521 -10.5,-4.01571 -3.60285,-2.32742 -3.80052,-2.36592 -1.87985,-0.36621 2.5155,2.61904 11.55171,5.96166 15.85364,5.86448 1.8833,-0.0425 0.59024,-0.5944 -3.47379,-1.48256 z M 62.47666,654.69121 c 0.11573,-1.42325 2.14592,-4.0152 5.19009,-6.62623 2.75,-2.35871 5.17422,-4.44349 5.38716,-4.63283 0.21294,-0.18935 -18.12456,-0.0597 -40.75,0.28801 -37.93337,0.58304 -41.13716,0.50286 -41.13716,-1.02951 0,-1.36625 1.20045,-1.69541 6.75,-1.85087 l 6.75,-0.18908 -5.97599,-0.36757 c -5.3238,-0.32744 -7.46077,-1.30496 -7.5087,-3.43471 -0.008,-0.37425 0.99719,-0.87547 2.23469,-1.11382 1.92915,-0.37157 1.85784,-0.45279 -0.5,-0.56955 -1.5125,-0.0749 -2.75,-0.64908 -2.75,-1.27594 0,-0.62687 -0.7875,-1.73756 -1.75,-2.4682 -1.46383,-1.11121 5.3503,-1.33364 41.67041,-1.36024 l 43.42042,-0.0318 -6.28339,-5.68614 c -5.9065,-5.34508 -6.14934,-5.73572 -4.04861,-6.51283 1.7314,-0.64049 4.32194,0.27209 11.50097,4.05148 11.46274,6.03454 25.49055,14.33824 25.48917,15.0882 -0.002,1.24864 -34.61525,20.05928 -36.91054,20.05928 -0.53273,0 -0.88307,-1.05195 -0.77852,-2.33765 z m 93.68651,-5.60768 c -3.57303,-1.53221 -9.56079,-4.47738 -13.30612,-6.54484 l -6.8097,-3.759 3.17983,-1.93377 c 6.72822,-4.09167 23.12233,-11.96763 23.70281,-11.38715 0.33518,0.33519 -1.61192,2.62364 -4.32691,5.08544 l -4.93633,4.47602 47.5,-0.0481 c 44.98592,-0.0456 47.36987,-0.13798 45.04132,-1.74568 -4.32082,-2.98323 -8.04132,-6.34772 -8.04132,-7.27185 0,-1.10101 7.67148,1.86583 16.73154,6.4707 12.00417,6.10125 12.08075,5.45052 -1.38725,11.78871 -6.51436,3.06572 -12.89541,5.89582 -14.18012,6.28909 -2.13104,0.65236 -2.23688,0.53017 -1.20728,-1.39366 0.6207,-1.15979 2.90933,-3.28717 5.08583,-4.72751 2.1765,-1.44034 3.95728,-2.78401 3.95728,-2.98592 0,-0.20191 -21.4875,-0.34598 -47.75,-0.32016 l -47.75,0.047 3.44896,2.70305 c 10.42168,8.16776 10.66345,9.38128 1.04746,5.2577 z m 144.00358,-30.9117 c 0,-0.50373 2.1375,-1.21723 4.75,-1.58555 15.76299,-2.22233 34.21471,-9.75875 54.62783,-22.3122 15.0326,-9.24459 30.07189,-21.16879 28.54927,-22.63587 -0.23491,-0.22633 -3.5771,0.16776 -7.4271,0.87576 -15.05817,2.76914 -14.519,2.72799 -13.87863,1.0592 0.64399,-1.6782 19.94073,-8.21441 27.28658,-9.24252 l 4.40796,-0.61693 -0.63987,5.40757 c -1.2692,10.72602 -4.91495,27.90757 -5.92172,27.90757 -0.67597,0 -0.85235,-4.03015 -0.51426,-11.75 l 0.5146,-11.75 -8.83921,8.62709 c -15.75121,15.3732 -40.92378,30.4463 -58.00222,34.73118 -7.81597,1.96098 -24.91323,2.84263 -24.91323,1.2847 z m 29.46422,-4.13066 c 6.22958,-2.14328 23.39921,-10.50698 25.03578,-12.19546 0.55,-0.56745 -1.475,0.20991 -4.5,1.72746 -3.025,1.51755 -10.675,4.92492 -17,7.57195 -11.91564,4.98671 -13.58387,6.3531 -3.53578,2.89605 z M 156.16675,602.09973 c 0,-0.51114 2.66601,-3.73104 5.92446,-7.15534 l 5.92445,-6.226 -18.92445,0.65809 c -16.46242,0.57248 -18.92446,0.46259 -18.92446,-0.84465 0,-0.85738 0.9663,-1.55257 2.25,-1.61876 1.69317,-0.0873 1.81691,-0.22918 0.5,-0.57332 -1.53313,-0.40065 -2.24926,-2.14867 -1.86842,-4.56068 0.0651,-0.4125 -0.33158,-0.75 -0.88158,-0.75 -0.55,0 -1,-0.9 -1,-2 0,-1.11111 -0.66667,-2 -1.5,-2 -0.825,0 -1.5,-0.45 -1.5,-1 0,-0.63515 7.753,-1.00164 21.25,-1.00449 l 21.25,-0.005 -6.25,-5.57539 c -13.23785,-11.80897 -5.30167,-9.49443 21.98206,6.41096 5.35263,3.12038 9.74013,5.9962 9.75,6.3907 0.0334,1.33318 -34.92124,20.78272 -37.35056,20.78272 -0.34733,0 -0.6315,-0.4182 -0.6315,-0.92934 z m -95,-9.9389 c 0,-1.15812 1.84718,-3.10316 4.75,-5.00165 l 4.75,-3.10658 -33.56967,-0.0118 -33.56966,-0.0118 -2.18034,-2.50761 c -1.19918,-1.37918 -2.18033,-2.72349 -2.18033,-2.98736 0,-0.26387 16.07636,-0.59795 35.72524,-0.7424 l 35.72523,-0.26263 -5.46401,-4 c -5.1644,-3.78065 -5.31916,-4.01684 -2.82234,-4.30705 2.66568,-0.30984 24.83588,10.03593 24.83588,11.58972 0,0.71474 -15.47053,8.78517 -22.75,11.86787 -3.00752,1.27362 -3.25,1.23491 -3.25,-0.51878 z m 202.34675,-2.67146 4.84674,-4.4603 H 250.7635 c -14.37422,0 -17.59675,-0.2551 -17.59675,-1.39301 0,-0.76615 -0.675,-1.65203 -1.5,-1.96861 -0.825,-0.31659 -1.5,-1.03022 -1.5,-1.58585 0,-0.63672 7.24234,-1.1105 19.58752,-1.28139 l 19.58752,-0.27114 -4.58752,-3.43585 c -9.13477,-6.84155 -3.40263,-6.34002 8.66248,0.75793 4.2625,2.50764 7.75,5.14288 7.75,5.85609 0,1.47541 -4.75516,4.65505 -13.75848,9.19991 -8.47329,4.27731 -9.62695,3.85735 -3.89477,-1.41778 z" id="path1-36"/>
    <path id="path1-36-0" style="fill:#88aa00;fill-opacity:1;stroke-width:1.77681" d="m 333.47795,237.22123 -7.84581,1.09462 c -13.07432,1.82365 -47.41656,13.4171 -48.56275,16.39391 -1.13975,2.96013 -2.10229,3.0309 24.69851,-1.88113 6.85232,-1.25586 12.80196,-1.95367 13.22006,-1.55208 2.70999,2.60235 -24.05657,23.75521 -50.81186,40.1532 -36.33166,22.26753 -69.1745,35.63265 -97.22977,39.57459 -4.64979,0.65347 -8.45416,1.91979 -8.45416,2.81326 0,2.76342 30.43159,1.19874 44.34263,-2.2797 30.39652,-7.6006 75.19886,-34.33635 103.23319,-61.60513 l 15.73334,-15.30266 -0.91771,20.84227 c -0.60174,13.69364 -0.28539,20.84227 0.91771,20.84227 1.79188,0 8.28095,-30.47796 10.5399,-49.50385 z m -78.06539,67.31467 c 0.28436,-0.0301 0.32471,0.0709 0.0799,0.32213 -2.9128,2.99507 -33.47061,17.83051 -44.55813,21.63214 -17.88378,6.13224 -14.91575,3.71117 6.29194,-5.13429 11.25738,-4.69545 24.87306,-10.73989 30.25699,-13.43182 4.03797,-2.01878 7.07618,-3.29894 7.92925,-3.38816 z" sodipodi:nodetypes="cssscsssscccsccscsssss"/>
    <path id="path1-36-0-9" style="fill:#88aa00;fill-opacity:1;stroke-width:1.77681" d="m 121.38189,278.8579 7.84581,-1.09462 c 13.07432,-1.82365 47.41656,-13.4171 48.56275,-16.39391 1.13975,-2.96013 2.10229,-3.0309 -24.69851,1.88113 -6.85232,1.25586 -12.80196,1.95367 -13.22006,1.55208 -2.70999,-2.60235 24.05657,-23.75521 50.81186,-40.1532 36.33166,-22.26753 69.1745,-35.63265 97.22977,-39.57459 4.64979,-0.65347 8.45416,-1.91979 8.45416,-2.81326 0,-2.76342 -30.43159,-1.19874 -44.34263,2.2797 -30.39652,7.6006 -75.19886,34.33635 -103.23319,61.60513 l -15.73334,15.30266 0.91771,-20.84227 c 0.60174,-13.69364 0.28539,-20.84227 -0.91771,-20.84227 -1.79188,0 -8.28095,30.47796 -10.5399,49.50385 z m 78.06539,-67.31467 c -0.28436,0.0301 -0.32471,-0.0709 -0.0799,-0.32213 2.9128,-2.99507 33.47061,-17.83051 44.55813,-21.63214 17.88378,-6.13224 14.91575,-3.71117 -6.29194,5.13429 -11.25738,4.69545 -24.87306,10.73989 -30.25699,13.43182 -4.03797,2.01878 -7.07618,3.29894 -7.92925,3.38816 z" sodipodi:nodetypes="cssscsssscccsccscsssss"/>
    <path id="path1-3" style="fill:#000000" d="m -319.90272,567.44985 c -0.75009,-0.28788 -4.79735,2.91455 -9.33007,7.38086 -6.25557,6.1637 -10.03548,8.90409 -17.28907,12.53515 -5.1055,2.55587 -10.22677,4.64649 -11.38086,4.64649 -3.54363,0 -0.62743,1.61248 7.05079,3.89843 3.9874,1.18721 7.25,2.58717 7.25,3.10938 0,0.52222 -2.41622,3.36533 -5.36914,6.31836 -9.7392,9.7391 -25.48788,18.02642 -43.43165,22.85351 -10.74653,2.89104 -30.86333,3.6406 -38.45507,1.4336 -6.74501,-1.96083 -7.29752,-1.98516 -5.86719,-0.26172 1.81472,2.1866 15.05265,7.9054 22.62305,9.77344 9.03366,2.22903 25.22681,2.3612 35.29296,0.28711 17.92541,-3.69362 32.94147,-11.98547 44.90235,-24.79297 l 6.86133,-7.34766 5.36132,2.86524 c 6.26019,3.34487 9.68477,3.78947 8.56641,1.11328 -3.67697,-8.79907 -7.0478,-29.80038 -6.08984,-37.95118 0.46772,-3.97946 0.28986,-5.48327 -0.69532,-5.86132 z m -3.69921,8.64258 v 4.42382 c 0,4.8738 3.20484,22.39045 4.89843,26.77344 1.03087,2.66794 0.98539,2.7306 -1.16211,1.60742 -1.22965,-0.64313 -3.43072,-2.00532 -4.89062,-3.02734 -4.00774,-2.80566 -5.23759,-2.34562 -9.76758,3.6543 -9.34528,12.37767 -27.29848,23.52644 -44.07812,27.37109 -10.2768,2.35469 -17.16755,2.87051 -26.66407,1.99609 -6.40351,-0.58962 -17.92205,-3.68795 -20.98437,-5.64453 -0.63243,-0.40407 5.21767,-0.75991 13,-0.79101 11.1374,-0.0445 16.05837,-0.53024 23.11914,-2.28321 10.00489,-2.48379 22.9555,-7.75002 32.0293,-13.02343 5.93366,-3.44859 19.5,-15.95527 19.5,-17.97657 0,-0.57518 -3.09245,-2.04211 -6.87305,-3.25976 l -6.875,-2.21289 7.625,-3.68946 c 4.1931,-2.02955 10.66055,-5.99242 14.37305,-8.80468 z m 2.83984,75.69921 c -0.63824,-0.21275 -4.67458,0.6326 -8.9707,1.87696 -10.46384,3.03069 -23.13639,4.61991 -33.41797,4.19336 -4.64754,-0.19281 -8.45125,-0.0881 -8.45117,0.23047 7e-5,0.31851 3.375,3.22216 7.5,6.45312 4.1249,3.23096 7.5,6.15378 7.5,6.49609 0,0.34231 -16.66265,14.04751 -37.0293,30.45511 -20.36664,16.4076 -36.87184,30.3233 -36.67774,30.9238 0.1941,0.6005 2.56905,1.8433 5.2793,2.7617 2.71024,0.9184 5.68163,1.706 6.60156,1.75 0.91993,0.044 17.87896,-11.1699 37.6875,-24.9199 19.80855,-13.75 36.4401,-25 36.95704,-25 0.51684,0 2.9056,2.5875 5.30859,5.75 6.64116,8.7403 7.87305,9.2337 7.87305,3.1562 0,-8.668 7.04527,-36.10569 10.10546,-39.35542 1.27267,-1.35149 1.10788,-4.31366 -0.26562,-4.77149 z m -6.84375,5.55469 c 0.3983,-0.0332 0.64576,-0.0261 0.70117,0.0293 0.22164,0.22163 -0.53606,3.18931 -1.68359,6.5957 -1.14753,3.40639 -3.05349,11.22586 -4.23633,17.375 l -2.15039,11.17972 -4.44922,-4.7559 c -2.44737,-2.6164 -4.997,-4.7578 -5.66406,-4.7578 -0.66707,0 -8.14321,4.8071 -16.61328,10.6836 -8.47018,5.8765 -25.0257,17.3515 -36.79102,25.5 -11.76533,8.1485 -21.89043,14.8108 -22.5,14.8008 -0.60958,-0.01 -1.78447,-0.4447 -2.60937,-0.9707 -1.28857,-0.8217 -1.21809,-1.1588 0.5,-2.3809 1.0999,-0.7824 7.45161,-5.8567 14.11328,-11.2773 6.66157,-5.4205 22.27161,-17.9555 34.68945,-27.8555 12.41784,-9.89993 22.60577,-18.33437 22.63867,-18.74219 0.0329,-0.40781 -2.83528,-3.10781 -6.37304,-6 l -6.43165,-5.25781 11.68165,-0.66797 c 6.42526,-0.36693 14.78684,-1.38812 18.58007,-2.26953 2.84501,-0.66106 5.40276,-1.12899 6.59766,-1.22852 z m 2.28516,90.68552 c -19.95695,0.034 -31.9357,2.8442 -28.0625,6.584 0.98149,0.9477 3.48768,1.0098 10.71679,0.2676 16.43288,-1.6871 16.48732,-1.848 -4.16211,12.5195 -10.18922,7.0895 -19.61564,13.5494 -20.94726,14.3574 -2.279,1.3828 -2.94502,1.1704 -11.33203,-3.6386 -12.45714,-7.1429 -14.14253,-7.0388 -27.54688,1.707 -5.74591,3.749 -15.0813,10.2386 -20.74609,14.4219 -8.9206,6.5876 -10.05883,7.7474 -8.5,8.6543 4.00012,2.3274 6.82447,1.0554 22.29883,-10.0313 8.5249,-6.1078 17.73622,-12.3821 20.46875,-13.9433 l 4.96875,-2.8379 3.03125,2.0254 c 5.17136,3.4554 16.86644,8.8945 19.125,8.8945 2.34393,0 10.24196,-4.9598 29.15625,-18.3086 6.7374,-4.755 12.25,-8.1845 12.25,-7.6211 0,0.5634 -2.20854,5.7064 -4.90821,11.4297 -3.88277,8.2317 -4.64088,10.6292 -3.62695,11.4707 1.58967,1.3193 4.48725,0.2809 6.75586,-2.4219 2.61891,-3.1201 14.02733,-30.4614 13.39648,-32.1054 -0.44007,-1.1468 -2.97726,-1.4399 -12.33593,-1.4239 z m 11.06054,67.9805 c -1.32474,0 -1.40355,0.1681 -0.29883,1.0215 0.80937,0.077 1.61967,0.1432 2.42969,0.2129 -0.30106,-0.7421 -1.00414,-1.2344 -2.13086,-1.2344 z"/>
    <path id="path1-3-1" style="fill:#88aa00;stroke-width:2.54254" d="m 259.32782,-147.73503 c -1.62275,-0.54092 -11.88534,1.60842 -22.80837,4.77226 -26.60464,7.70556 -58.82526,11.74631 -84.96651,10.66178 -11.8165,-0.49022 -21.48765,-0.224 -21.48744,0.58597 1.8e-4,0.80976 8.5811,8.19249 19.06906,16.40732 10.48768,8.21484 19.06904,15.646242 19.06904,16.516572 0,0.87034 -42.36561,35.71642 -94.148473,77.43325 -51.78284,41.7169 -93.74809,77.09827 -93.25458,78.62507 0.4935,1.52679 6.53191,4.68671 13.4228298,7.02178 6.89087,2.33506 14.44576,4.33757 16.7847302,4.44944 2.33893,0.11189 45.45811,-28.40011 95.821963,-63.3598795 50.36388,-34.9598505 92.65038,-63.5635005 93.96472,-63.5635005 1.31409,0 7.38763,6.57883 13.4973,14.61961 16.88536,22.22248 20.01754,23.4771 20.01754,8.02489 0,-22.03866 17.91294,-91.800352 25.69355,-100.062842 3.2358,-3.43623 2.81681,-10.96765 -0.67536,-12.13172 z m -17.40051,14.12304 c 1.01269,-0.0844 1.64189,-0.0663 1.78278,0.0745 0.5635,0.56351 -1.36299,8.10896 -4.28063,16.76984 -2.91764,8.66087 -7.76362,28.542272 -10.77103,44.176622 l -5.46746,28.42481 -11.31231,-12.09197 c -6.22251,-6.65229 -12.70507,-12.09691 -14.4011,-12.09691 -1.69605,0 -20.70451,12.22229 -42.23992,27.16345 -21.53573,14.94116 -63.628923,44.1169605 -93.542643,64.83477 -29.91372,20.7178 -55.6572802,37.65699 -57.2071302,37.63156 -1.54986,-0.0254 -4.53709004,-1.13066 -6.63443,-2.46804 -3.27625,-2.08921 -3.09702,-2.94619 1.27126996,-6.05344 2.79653004,-1.98927 18.94606024,-14.89107 35.88357024,-28.67308 16.93725,-13.78183 56.62655,-45.65258 88.199303,-70.82363 31.57278,-25.1709 57.47609,-46.61587 57.55975,-47.65277 0.0837,-1.03688 -7.20887,-7.901732 -16.20373,-15.255232 l -16.35271,-13.36819 29.70105,-1.69835 c 16.33641,-0.93293 37.59617,-3.52935 47.24059,-5.77037 7.23351,-1.68078 13.73673,-2.87051 16.77478,-3.12355 z"/>
    <path id="path1-3-1-1" style="fill:#88aa00;stroke-width:2.54254" d="m -88.617547,0.13573249 c 1.62275,0.54092 11.88533,-1.60841999 22.80837,-4.77224999 26.604642,-7.7055705 58.8252538,-11.7463205 84.966494,-10.6617905 11.81651,0.49022 21.48765,0.224 21.48745,-0.58597 -1.8e-4,-0.80976 -8.58111,-8.19248 -19.06906,-16.40732 -10.48768,-8.21484 -19.0690402,-15.64624 -19.0690402,-16.51657 0,-0.87034 42.3656002,-35.71642 94.1484702,-77.433252 51.782843,-41.7169 93.748083,-77.09827 93.254583,-78.62506 -0.4935,-1.5268 -6.53191,-4.68672 -13.42283,-7.02179 -6.89087,-2.33506 -14.44576,-4.33756 -16.78473,-4.44944 -2.33893,-0.11189 -45.45811,28.40011 -95.821963,63.35988 -50.36388,34.95985 -92.65037,63.563502 -93.96471,63.563502 -1.31409,0 -7.387642,-6.57883 -13.497302,-14.619612 -16.885362,-22.22248 -20.017542,-23.4771 -20.017542,-8.02488 0,22.038652 -17.91294,91.800342 -25.69356,100.062832 -3.23579,3.4362305 -2.8168,10.9676605 0.67537,12.13172049 z m 17.40051,-14.12303049 c -1.01269,0.0844 -1.6419,0.0663 -1.78278,-0.0745 -0.5635,-0.56351 1.36298,-8.10896 4.28063,-16.76983 2.91764,-8.66088 7.76362,-28.54228 10.77103,-44.17663 l 5.46746,-28.424812 11.312302,12.091972 c 6.222522,6.65229 12.705072,12.09691 14.401102,12.09691 1.69605,0 20.7045098,-12.22229 42.23992,-27.163452 21.53573,-14.94116 63.62892,-44.11696 93.542643,-64.83477 29.91371,-20.7178 55.65727,-37.65699 57.20713,-37.63156 1.54986,0.0254 4.53709,1.13066 6.63442,2.46804 3.27625,2.08921 3.09703,2.9462 -1.27126,6.05344 -2.79653,1.98927 -18.94606,14.89107 -35.88357,28.67308 -16.93726,13.78183 -56.626553,45.65258 -88.199303,70.82364 -31.57278,25.170892 -57.4760902,46.615862 -57.55975,47.652762 -0.0837,1.03688 7.2088598,7.90173 16.2037298,15.25524 l 16.3527102,13.36818 -29.7010502,1.69835 c -16.3364098,0.93293 -37.5961618,3.52935 -47.2405838,5.77037 -7.23352,1.68078 -13.73673,2.87051 -16.77478,3.12356 z"/>
  </g>
</svg>