<svg xmlns:inkscape="http://www.inkscape.org/namespaces/inkscape" xmlns:sodipodi="http://sodipodi.sourceforge.net/DTD/sodipodi-0.dtd" xmlns="http://www.w3.org/2000/svg" xmlns:svg="http://www.w3.org/2000/svg" version="1.1" id="svg1" width="728" height="724" viewBox="0 0 728 724" sodipodi:docname="sdfsdf.svg" inkscape:version="1.3.2 (1:1.3.2+202311252150+091e20ef0f)">
  <defs id="defs1"/>
  <sodipodi:namedview id="namedview1" pagecolor="#ffffff" bordercolor="#000000" borderopacity="0.25" inkscape:showpageshadow="2" inkscape:pageopacity="0.0" inkscape:pagecheckerboard="0" inkscape:deskcolor="#d1d1d1" inkscape:zoom="0.7420736" inkscape:cx="246.60627" inkscape:cy="400.90363" inkscape:window-width="1920" inkscape:window-height="1017" inkscape:window-x="0" inkscape:window-y="26" inkscape:window-maximized="1" inkscape:current-layer="g1"/>
  <g inkscape:groupmode="layer" inkscape:label="Image" id="g1">
    <path style="fill:#89a02c;stroke:none;stroke-width:18.9;stroke-dasharray:none" d="m 349.25809,688.54361 c -1.90379,-0.99699 -7.73644,-4.21955 -12.96144,-7.16126 -5.225,-2.9417 -12.425,-6.90758 -16,-8.81307 -3.575,-1.90549 -7.625,-4.18763 -9,-5.07143 -1.375,-0.88381 -3.4,-2.09905 -4.5,-2.70054 -1.1,-0.60149 -4.925,-2.687 -8.5,-4.63447 -13.51895,-7.36439 -27.03719,-14.85178 -43,-23.81654 -15.49739,-8.70338 -37.22555,-20.73129 -52,-28.7853 -3.575,-1.94884 -8.17856,-4.59215 -10.23013,-5.87402 -5.68535,-3.55234 -3.83572,-4.15227 -26.26987,8.52065 -6.59994,3.72827 -8.90268,4.52153 -13.15794,4.53277 -2.83686,0.007 -5.76186,-0.4743 -6.5,-1.07064 -0.73813,-0.59634 -5.39206,-3.33102 -10.34206,-6.07707 -4.95,-2.74604 -18.9,-10.49229 -31,-17.21387 -12.100002,-6.72159 -26.950002,-14.94713 -33.000002,-18.27898 -6.05,-3.33185 -13.475,-7.49918 -16.5,-9.26074 -3.025,-1.76155 -9.55,-5.35779 -14.5,-7.99163 -10.39307,-5.53003 -13.27402,-7.60341 -15.72156,-11.31454 -1.64283,-2.49098 -1.76572,-7.34298 -1.77185,-69.95874 -0.007,-72.27204 -0.0764,-71.24444 5.11453,-75.8103 2.21643,-1.94953 4.12181,-3.0868 17.37888,-10.37299 4.9134,-2.70044 26.11465,-14.61831 32,-17.98817 l 3,-1.71776 0.5,-64.91433 c 0.35825,-46.51168 0.8281,-65.48448 1.65737,-66.92552 1.62234,-2.81915 4.1288,-4.89919 9.34263,-7.75315 18.938252,-10.3665 45.049692,-24.80835 56.500002,-31.24931 2.75,-1.54692 13.1,-7.28792 23,-12.75779 30.19355,-16.6823 37.68657,-20.86354 45.75,-25.52933 l 7.75,-4.48442 0.006,-24.6074 c 0.003,-13.53407 0.45888,-26.23935 1.01292,-28.23396 1.08817,-3.917573 4.66972,-8.045108 8.85746,-10.207741 1.44322,-0.74531 6.89904,-3.738298 12.12404,-6.651085 5.225,-2.912787 14.9,-8.219997 21.5,-11.793799 6.6,-3.573803 13.125,-7.266994 14.5,-8.207091 1.375,-0.940098 6.55,-3.875014 11.5,-6.522037 4.95,-2.647023 11.925,-6.474677 15.5,-8.505898 3.575,-2.031221 8.975,-5.054493 12,-6.718382 3.025,-1.66389 9.325,-5.182263 14,-7.818608 16.12911,-9.095589 19.51656,-10.054953 25,-7.080269 1.375,0.745917 5.65,3.05334 9.5,5.127608 3.85,2.074268 9.14426,5.0612 11.76502,6.637627 2.62035,1.576427 4.93962,2.866231 5.15352,2.866231 0.2139,0 3.24464,1.628713 6.73497,3.619362 6.85696,3.910737 38.96355,21.691126 50.34607,27.881276 3.85,2.093742 11.16729,6.241699 16.26064,9.217681 5.09335,2.975982 10.94335,5.665232 13,5.976111 11.20483,1.693702 17.3919,11.737224 12.7332,20.669884 -1.18515,2.27241 -1.49384,7.15363 -1.49384,23.62133 v 20.75703 l 10.75,6.03832 c 5.9125,3.32109 12.55,7.05489 14.75,8.29734 10.03219,5.66567 17.80642,9.92166 18.12347,9.92166 0.19056,0 2.49074,1.30595 5.11151,2.90211 2.62076,1.59615 13.31502,7.61038 23.76502,13.36493 18.51729,10.19702 46.81596,25.91253 61.08345,33.92237 3.94763,2.21622 7.82122,5.22564 8.75,6.79793 1.50944,2.55528 1.66655,8.95801 1.66655,67.91695 0,36.34898 0.38499,65.09571 0.8718,65.09571 0.47949,0 5.09199,2.38705 10.25,5.30455 5.15801,2.91751 12.7532,7.13547 16.8782,9.37326 4.125,2.23778 9.6116,5.25073 12.19244,6.69544 2.58085,1.44471 5.8657,2.62675 7.29966,2.62675 3.57331,0 7.76033,2.32285 10.88878,6.04081 2.10112,2.49703 2.61283,4.1358 2.58732,8.28592 -0.0182,2.95408 -0.66162,6.00596 -1.5,7.1144 -1.25461,1.65874 -1.4682,11.04463 -1.4682,64.51787 v 62.57673 l -2.37774,3.49916 c -1.47346,2.16839 -5.18151,5.04018 -9.75,7.55113 -7.44068,4.08958 -31.29108,17.31478 -64.37226,35.69484 -41.05305,22.80927 -48.78587,26.89127 -51.89897,27.39646 -2.11633,0.34343 -4.64806,-0.14391 -7.18447,-1.38295 -5.78435,-2.82568 -21.61394,-11.40999 -23.88907,-12.95493 -1.08487,-0.73669 -2.66475,-1.33944 -3.51082,-1.33944 -0.84607,0 -7.08983,3.15 -13.87501,7 -6.78518,3.85 -12.52675,7 -12.75905,7 -0.23229,0 -2.10091,1.04933 -4.15248,2.33185 -2.05157,1.28251 -6.20513,3.69123 -9.23013,5.3527 -3.025,1.66147 -7.075,3.91334 -9,5.00415 -1.925,1.09082 -13.175,7.29206 -25,13.78054 -11.825,6.48848 -21.95,12.13932 -22.5,12.55742 -0.55,0.41811 -3.475,2.11338 -6.5,3.76727 -3.025,1.6539 -11.35,6.26318 -18.5,10.24285 -13.39097,7.45338 -29.77759,16.39619 -38.83995,21.19647 -6.02395,3.19084 -10.86549,3.48508 -15.69861,0.95405 z m 10.56605,-30.5378 c 1.08488,-0.74277 5.34751,-3.17342 9.47251,-5.40143 4.125,-2.22802 11.325,-6.17659 16,-8.77461 4.675,-2.59802 10.96678,-6.07756 13.98174,-7.73231 3.01496,-1.65476 7.16852,-4.07346 9.23013,-5.3749 2.06161,-1.30144 3.9556,-2.36625 4.20885,-2.36625 0.25326,0 8.2497,-4.34233 17.76988,-9.64962 9.52017,-5.30729 21.3594,-11.8777 26.3094,-14.60092 12.03506,-6.62103 17.48079,-9.67997 26.99271,-15.16216 4.39599,-2.53362 8.78349,-4.85758 9.75,-5.16433 0.96651,-0.30676 1.75729,-0.88217 1.75729,-1.27869 0,-0.39652 -5.9625,-3.96445 -13.25,-7.92874 -7.2875,-3.96429 -15.95,-8.69681 -19.25,-10.51671 -3.3,-1.81991 -8.475,-4.66742 -11.5,-6.32781 -17.42271,-9.56311 -18.31844,-10.20327 -20.80488,-14.86866 -1.42047,-2.66526 -1.60508,-10.64651 -1.64423,-71.08465 l -0.0441,-68.0823 2.70151,-3.54185 c 1.83841,-2.41028 6.94911,-5.87073 15.9966,-10.83128 17.08039,-9.36482 35.21144,-19.42027 60.55655,-33.58457 11.1438,-6.22779 24.1938,-13.43801 29,-16.0227 4.8062,-2.58469 10.50083,-5.79979 12.65472,-7.14467 6.9033,-4.31037 9.8125,-4.05233 21.08383,1.8701 5.5,2.88994 11.35,6.06909 13,7.0648 2.74154,1.6544 15.97846,8.87308 17.75,9.67987 0.4125,0.18785 0.75,-22.42094 0.75,-50.24178 0,-28.28243 -0.38621,-50.58333 -0.87601,-50.58333 -0.4818,0 -6.17971,-2.925 -12.66201,-6.5 -6.4823,-3.575 -11.90091,-6.5 -12.04136,-6.5 -0.14045,0 -3.55505,-1.94381 -7.58799,-4.31958 -4.03295,-2.37577 -10.25763,-5.90435 -13.83263,-7.8413 -8.6335,-4.67766 -24.43911,-13.41597 -41,-22.66732 -21.73989,-12.14448 -27.25476,-15.1718 -27.63849,-15.1718 -0.19883,0 -0.36151,11.04735 -0.36151,24.54966 0,26.18961 -0.23353,27.64159 -5.15499,32.0517 -1.28975,1.15575 -7.52001,4.94353 -13.84501,8.4173 -6.325,3.47376 -14.65,8.08142 -18.5,10.23924 -3.85,2.15783 -9.925,5.53062 -13.5,7.49511 -8.17094,4.48997 -52.45772,28.98581 -56.53059,31.26811 -14.59498,8.17854 -18.64743,9.97888 -22.46183,9.97888 -3.95655,0 -10.26142,-2.62153 -17.99358,-7.48162 -1.9327,-1.21481 -11.164,-6.38981 -20.514,-11.50001 -25.88806,-14.149 -27.25111,-14.90201 -38.32491,-21.17221 -5.67871,-3.21539 -10.52515,-5.84616 -10.76988,-5.84616 -0.24472,0 -2.12351,-1.04791 -4.17508,-2.3287 -2.05157,-1.28078 -6.65513,-3.9125 -10.23013,-5.84826 -17.91416,-9.70001 -20.67439,-11.29913 -22.84182,-13.23328 -4.44807,-3.96931 -4.63919,-5.13067 -5.15818,-31.34455 l -0.5,-25.25479 -11,6.132 c -6.05,3.3726 -14.825,8.26508 -19.5,10.87218 -4.675,2.60711 -10.975,6.08528 -14,7.72929 -3.025,1.644 -8.27572,4.62867 -11.66826,6.6326 -3.39255,2.00393 -6.36548,3.64351 -6.60651,3.64351 -0.24103,0 -4.34838,2.25 -9.12745,5 -4.77907,2.75 -8.92747,5 -9.21867,5 -0.2912,0 -3.53312,1.73606 -7.20428,3.85791 -3.67116,2.12185 -11.28733,6.4223 -16.92483,9.55655 l -10.25,5.69864 v 49.94345 c 0,27.4689 0.34987,49.94345 0.77749,49.94345 0.42763,0 1.66513,-0.60317 2.75,-1.34038 1.08488,-0.7372 4.89751,-2.9329 8.47251,-4.87933 3.575,-1.94642 11,-6.03326 16.5,-9.08186 5.5,-3.04859 11.2136,-5.84568 12.69689,-6.21574 3.61265,-0.90132 8.64597,0.88489 18.28114,6.48753 4.41208,2.56553 13.64697,7.73672 20.52197,11.49153 6.875,3.75482 16.325,8.95142 21,11.548 4.675,2.59659 13.225,7.34006 19,10.54105 5.775,3.201 17.09539,9.56156 25.15643,14.1346 8.08581,4.58708 15.83355,8.3146 17.28212,8.3146 8.0605,0 14.09317,6.35327 14.0085,14.75295 -0.0291,2.88913 -0.59163,5.79163 -1.25,6.45 -0.90331,0.90331 -1.19705,16.2087 -1.19705,62.37205 0,33.64625 -0.28493,62.59967 -0.63319,64.34094 -0.34825,1.74127 -1.922,4.38238 -3.49721,5.86913 -2.49283,2.35282 -16.85081,10.77627 -34.8696,20.45707 -3.025,1.62522 -8.875,4.88907 -13,7.25301 -4.125,2.36394 -9.22296,5.16006 -11.32881,6.21361 -3.01565,1.50872 -3.5466,2.1476 -2.5,3.00823 0.73085,0.60099 11.90381,6.9198 24.82881,14.0418 12.925,7.12201 25.525,14.08949 28,15.48329 6.16131,3.46975 28.40448,15.8346 40.25,22.37475 5.3625,2.96074 14.3625,7.94252 20,11.07061 18.0006,9.98804 24.22425,13.25928 25.27749,13.28625 0.56513,0.0145 1.91513,-0.58141 3,-1.32419 z M 544.29665,527.45414 v -48.90218 l -3.18507,-1.11032 c -1.75178,-0.61068 -3.88928,-1.73441 -4.75,-2.4972 -0.86071,-0.76278 -6.51493,-3.90319 -12.56493,-6.97868 -6.05,-3.07549 -13.32679,-6.91365 -16.17065,-8.52924 -2.84386,-1.6156 -10.04386,-5.50848 -16,-8.65085 -5.95614,-3.14237 -11.27935,-6.05002 -11.82935,-6.46143 -0.55,-0.41142 -5.05,-2.87441 -10,-5.47331 -4.95,-2.59891 -9.4275,-5.12339 -9.95,-5.60996 -0.5225,-0.48656 -1.31,-0.88466 -1.75,-0.88466 -0.44,0 -0.8,21.5633 -0.8,47.91844 v 47.91844 l 3.25,1.98586 c 1.7875,1.09222 7.975,4.5548 13.75,7.69463 16.49774,8.96969 21.27879,11.59869 24.5,13.47203 1.65,0.95959 5.7,3.23169 9,5.04912 3.3,1.81743 12.75,7.04645 21,11.62004 8.25,4.57359 15.1125,8.32143 15.25,8.32853 0.1375,0.007 0.25,-21.99307 0.25,-48.88926 z m 49.5,37.34209 c 14.22293,-7.89663 16.57788,-9.18887 29,-15.91322 6.34684,-3.43568 9.56206,-5.20429 20.5,-11.27652 12.889,-7.15536 15.58078,-8.76351 16.23469,-9.69905 0.86599,-1.23899 1.03958,-93.94353 0.17752,-94.80559 -0.5809,-0.58089 -14.41816,6.40151 -21.64234,10.92091 -2.05157,1.28345 -4.07657,2.33471 -4.5,2.33612 -0.42343,10e-4 -3.24487,1.49096 -6.26987,3.31009 -3.025,1.81914 -10.45,5.94829 -16.5,9.17589 -6.05,3.2276 -15.5,8.28048 -21,11.22863 -5.5,2.94814 -11.4625,6.10119 -13.25,7.00676 l -3.25,1.64648 -0.0371,14.06479 c -0.0614,23.26131 -0.0726,82.00463 -0.0158,82.89635 0.0291,0.45736 1.51545,-0.0573 3.30295,-1.1436 1.7875,-1.08634 9.55,-5.47296 17.25,-9.74804 z m -453.5,-37.34221 v -47.90229 l -16.25,-8.75636 c -8.9375,-4.816 -18.725,-10.20642 -21.75,-11.97872 -3.025002,-1.7723 -9.325002,-5.23649 -14.000002,-7.69818 -4.675,-2.4617 -13.45,-7.0822 -19.5,-10.26777 -6.05,-3.18558 -11.79813,-6.47937 -12.77363,-7.31954 -1.03268,-0.88943 -2.07708,-1.14059 -2.5,-0.60122 -0.3995,0.5095 -0.60533,22.36362 -0.45739,48.5647 0.24929,44.15288 0.39562,47.67877 2,48.19098 0.95206,0.30395 4.43102,2.08439 7.73102,3.95652 23.54352,13.35656 34.44709,19.44706 50.257142,28.07259 6.19143,3.37787 14.29143,7.81485 18,9.85997 3.70857,2.04511 7.30536,3.73261 7.99286,3.75 0.98304,0.0249 1.25,-10.19865 1.25,-47.87068 z m 40.08644,42.40229 c 5.34259,-3.025 9.94052,-5.5 10.21761,-5.5 0.2771,0 3.35955,-1.62871 6.84988,-3.61936 11.89293,-6.78291 44.32669,-24.76798 51.08846,-28.32942 l 6.74238,-3.55122 0.008,-48.25 c 0.004,-26.5375 -0.19968,-48.25 -0.45303,-48.25 -0.25335,0 -5.76585,2.99091 -12.25,6.64648 -6.48415,3.65556 -16.96436,9.33685 -23.28936,12.62509 -6.325,3.28823 -12.61826,6.67699 -13.98502,7.53056 -1.36676,0.85358 -4.74176,2.74578 -7.5,4.20489 -6.94257,3.67262 -17.99975,9.68659 -24.26498,13.19765 l -5.25,2.94211 v 47.92661 c -3.8e-4,36.30259 0.28735,47.92661 1.18594,47.92661 0.65248,0 5.55753,-2.475 10.90012,-5.5 z m -13.32328,-121.8696 c 42.50431,-23.06716 59.53204,-32.28627 65.23684,-35.32038 3.575,-1.90137 6.84817,-3.79462 7.27371,-4.20724 0.42554,-0.41261 -3.62446,-3.09346 -9,-5.95745 -5.37554,-2.86398 -12.24871,-6.60525 -15.27371,-8.31392 -6.46976,-3.65445 -19.95121,-11.08142 -36,-19.8325 -6.325,-3.44889 -14.54114,-8.06339 -18.2581,-10.25443 l -6.75809,-3.98373 -8.74191,4.9831 c -8.18578,4.66609 -14.98796,8.43723 -39.7419,22.03298 -11.999492,6.59054 -26.412082,14.58941 -32.250002,17.89848 -2.3375,1.32495 -4.25,2.76029 -4.25,3.18964 0,0.42936 3.9375,2.89025 8.75,5.46864 4.8125,2.57839 11.9,6.38928 15.75,8.46864 3.85,2.07935 12.175002,6.5577 18.500002,9.95188 6.325,3.39418 13.075,7.08473 15,8.20122 1.925,1.11648 6.425,3.58062 10,5.47585 3.575,1.89523 8.525,4.57859 11,5.96301 2.475,1.38442 5.06842,2.53709 5.76316,2.56147 0.69474,0.0244 6.54474,-2.82198 13,-6.32526 z m 403.13171,0.72165 c 5.83282,-3.10638 16.90513,-9.11491 24.60513,-13.35229 7.7,-4.23739 17.15,-9.4045 21,-11.48247 3.85,-2.07797 10.8784,-5.96944 15.61867,-8.64771 4.74027,-2.67827 9.07267,-4.86958 9.62756,-4.86958 0.55488,0 1.50415,-0.59676 2.10948,-1.32614 0.85593,-1.03133 0.27181,-1.7749 -2.62756,-3.34481 -2.05048,-1.11028 -12.27815,-6.74622 -22.72815,-12.52433 -10.45,-5.7781 -27.67355,-15.29794 -38.27455,-21.15518 -10.601,-5.85725 -19.92721,-10.64954 -20.72491,-10.64954 -0.7977,0 -4.49916,1.63537 -8.22546,3.63415 -11.02304,5.91276 -36.84347,20.09568 -50.27508,27.61564 -6.875,3.84911 -15.7625,8.8228 -19.75,11.05264 -3.9875,2.22983 -7.24807,4.3115 -7.24571,4.62591 0.002,0.31441 3.48986,2.35709 7.75,4.53929 4.26014,2.1822 13.14571,6.97176 19.74571,10.64347 21.89001,12.17784 56.94875,30.8889 57.87625,30.8889 0.50242,0 5.6858,-2.54158 11.51862,-5.64795 z m -227.90267,-224.60205 -0.008,-48.25 -2.2422,-1.0812 c -1.23301,-0.59466 -4.717,-2.44796 -7.742,-4.11844 -18.49683,-10.21444 -37.20878,-20.30035 -37.66232,-20.30035 -0.29092,0 -1.72341,-0.83526 -3.18331,-1.85614 -1.4599,-1.02087 -7.37937,-4.26165 -13.15437,-7.20172 -5.775,-2.94007 -12.975,-6.82865 -16,-8.64129 -3.025,-1.81264 -5.8375,-3.29687 -6.25,-3.29828 -0.4125,-0.001 -0.75,21.56246 -0.75,47.91971 v 47.9223 l 10.61967,5.8277 c 5.84082,3.20524 13.85249,7.62771 17.80372,9.82771 3.95123,2.2 13.23488,7.3377 20.63033,11.41712 7.39545,4.07942 18.39628,10.21915 24.44628,13.64385 6.05,3.42471 11.5625,6.2745 12.25,6.33288 0.98429,0.0836 1.24834,-10.15011 1.2422,-48.14385 z m 51.4842,36.21736 c 11.93826,-6.61795 24.70239,-13.66764 28.36476,-15.66599 13.54898,-7.39292 23.81828,-13.13419 29.61976,-16.55955 l 5.96093,-3.51951 0.0391,-47.6108 c 0.0223,-27.15591 -0.34303,-47.61095 -0.85032,-47.61115 -0.48917,-1.9e-4 -3.08343,1.34965 -5.76502,2.99965 -2.6816,1.65 -5.05778,3 -5.28041,3 -0.22263,0 -12.25337,6.45579 -26.73497,14.34619 -14.48161,7.89039 -31.3927,16.98232 -37.5802,20.20427 l -11.25003,5.85809 v 48.29572 c 0,27.35681 0.3838,48.29572 0.88525,48.29572 0.48688,0 10.6529,-5.41469 22.59115,-12.03264 z m -34.9264,-109.84003 c 0.5225,-0.47997 5,-3.01302 9.95,-5.629 9.96232,-5.2649 14.58963,-7.76754 31.5,-17.03649 6.325,-3.46687 17.8,-9.69691 25.5,-13.84453 7.7,-4.14762 14.63903,-7.92212 15.42006,-8.38778 1.48893,-0.8877 -2.08077,-3.18433 -17.92006,-11.529217 -4.125,-2.173242 -10.875,-5.863682 -15,-8.200976 -4.125,-2.337295 -12.225,-6.843512 -18,-10.013816 -5.775,-3.170305 -15.59357,-8.66271 -21.81905,-12.205345 -6.22548,-3.542635 -11.93755,-6.203811 -12.69351,-5.913725 -0.75595,0.290087 -8.03738,4.204334 -16.18095,8.698328 -8.14357,4.493993 -17.73149,9.74734 -21.30649,11.674105 -3.575,1.926764 -11.45,6.301547 -17.5,9.72174 -6.05,3.420193 -14.6,8.146801 -19,10.503573 -12.02726,6.442163 -11.95271,5.957573 -1.80706,11.746583 12.45214,7.10508 20.93878,11.68758 47.30706,25.54422 5.225,2.74576 10.625,5.71233 12,6.59237 4.45361,2.85045 16.47015,9.09927 17.55,9.12633 0.5775,0.0145 1.4775,-0.36639 2,-0.84637 z" id="path1"/>
  </g>
</svg>