<svg xmlns:inkscape="http://www.inkscape.org/namespaces/inkscape" xmlns:sodipodi="http://sodipodi.sourceforge.net/DTD/sodipodi-0.dtd" xmlns="http://www.w3.org/2000/svg" xmlns:svg="http://www.w3.org/2000/svg" version="1.1" id="svg1" width="218.27823" height="139.46025" viewBox="0 0 218.27823 139.46025" sodipodi:docname="sdqsd.svg" inkscape:version="1.3.2 (1:1.3.2+202311252150+091e20ef0f)">
  <defs id="defs1"/>
  <sodipodi:namedview id="namedview1" pagecolor="#ffffff" bordercolor="#000000" borderopacity="0.25" inkscape:showpageshadow="2" inkscape:pageopacity="0.0" inkscape:pagecheckerboard="0" inkscape:deskcolor="#d1d1d1" inkscape:zoom="2.4869791" inkscape:cx="66.345552" inkscape:cy="18.697383" inkscape:window-width="1920" inkscape:window-height="1017" inkscape:window-x="0" inkscape:window-y="26" inkscape:window-maximized="1" inkscape:current-layer="g1"/>
  <g inkscape:groupmode="layer" inkscape:label="Image" id="g1" transform="translate(-87.06327,-14.949318)">
    <path style="fill:#000000" d="m -112.98709,-15.312874 c -0.34401,-0.12604 -0.86121,-0.40897 -1.14932,-0.62872 -0.28811,-0.21976 -0.56619,-0.39956 -0.61795,-0.39956 -0.0518,0 -0.37418,0.18535 -0.71649,0.41188 -1.31482,0.8701 -3.65105,0.78707 -5.43931,-0.19332 -0.84999,-0.466 -1.09193,-0.53502 -1.39356,-0.39759 -1.32655,0.60441 -3.23835,0.25909 -4.44478,-0.80286 -0.69583,-0.6125 -0.70263,-0.61451 -1.2712,-0.37695 -1.11065,0.46407 -2.85351,0.21388 -3.67307,-0.52726 -0.79387,-0.7179 -1.28653,-2.6992 -0.92737,-3.72949 0.16285,-0.46717 0.14151,-0.56678 -0.20003,-0.93368 -0.58902,-0.63276 -0.74156,-1.03686 -0.73993,-1.96021 0.001,-0.64375 0.11415,-1.04691 0.46488,-1.65838 0.25486,-0.44432 0.56957,-0.89599 0.69936,-1.0037 0.20633,-0.17125 0.1966,-0.27076 -0.0774,-0.79214 -0.2552,-0.48554 -0.29873,-0.80892 -0.23435,-1.741077 0.0727,-1.05256 0.0483,-1.173682 -0.3028,-1.503528 -1.06044,-0.996229 -0.80899,-2.996706 0.561,-4.463287 l 0.49586,-0.530821 -0.32401,-0.669306 c -0.38457,-0.794422 -0.41104,-1.490234 -0.0863,-2.267526 0.68122,-1.630397 2.3812,-2.759005 4.37014,-2.901312 l 1.09073,-0.07804 0.27288,-0.768309 c 0.40219,-1.13239 1.02957,-1.593087 2.16947,-1.593087 0.73602,0 1.0602,0.09119 1.64696,0.463308 0.40181,0.254819 0.83631,0.614282 0.96555,0.798806 0.22855,0.326303 0.25185,0.311026 0.85,-0.557462 0.33825,-0.491129 0.85115,-1.073081 1.13978,-1.293228 1.09645,-0.836302 2.58872,-0.637078 3.87229,0.516965 l 0.80536,0.724084 0.73332,-0.559755 c 0.71348,-0.544616 1.59586,-0.893636 2.24579,-0.888312 0.44618,0.0037 1.68448,0.585732 2.13914,1.005525 0.20853,0.192538 0.5527,0.622077 0.76483,0.954532 l 0.38568,0.604463 0.51517,-0.389715 c 1.1133,-0.842178 2.61262,-0.907433 4.05632,-0.176543 0.41974,0.212499 0.76669,0.370831 0.77101,0.351848 0.0945,-0.415384 0.91268,-1.678333 1.41966,-2.191283 0.87023,-0.880482 1.71538,-1.300036 2.816606,-1.39824 1.545068,-0.137785 3.250992,0.864127 4.012345,2.356503 l 0.308404,0.60452 0.605417,-0.215985 c 0.968026,-0.345348 1.95868,-0.28181 2.897074,0.185812 l 0.834487,0.415842 0.657343,-0.59387 c 1.892253,-1.709536 4.297271,-1.714255 5.866807,-0.01151 l 0.640154,0.694485 0.849644,-0.220395 c 1.800867,-0.467139 3.638274,-0.119676 4.634323,0.876373 0.582109,0.582109 0.58597,0.583244 2.004409,0.589431 1.681048,0.0073 2.479191,0.21495 3.521285,0.915976 1.6107,1.083532 2.123056,2.50616 1.409265,3.913021 -0.213419,0.420642 -0.388336,0.810069 -0.388704,0.865392 -3.68e-4,0.05532 0.208699,0.187313 0.464595,0.293308 0.751335,0.311213 1.864478,1.491439 2.175992,2.307127 0.244731,0.640817 0.257943,0.843956 0.09111,1.400801 l -0.195132,0.651292 0.882549,0.823442 c 1.084929,1.012267 1.531968,1.940666 1.536705,3.191386 0.0038,1.01315 -0.254608,1.672 -0.954004,2.43206 -0.301352,0.32748 -0.473193,0.72566 -0.540833,1.25317 -0.163163,1.27249 -1.06669,2.12253 -2.469342,2.32317 l -0.748849,0.10711 -0.111391,0.77873 c -0.206531,1.44383 -1.254668,2.10587 -3.143589,1.98559 -0.994285,-0.0633 -1.082373,-0.0407 -1.423577,0.36476 -0.561398,0.66718 -1.53495,0.98688 -3.004902,0.98676 -0.898372,-8e-5 -1.528056,-0.0959 -2.111993,-0.32129 l -0.831994,-0.32118 -0.356791,0.52071 c -0.512052,0.74729 -1.28003,1.11151 -2.293644,1.08777 -0.976065,-0.0229 -2.287735,-0.53409 -2.817726,-1.09824 -0.442109,-0.4706 -0.575763,-0.48324 -0.707886,-0.067 -0.155013,0.4884 -1.069136,1.10512 -1.85593,1.25211 -0.938287,0.17529 -2.210209,-0.12165 -2.955258,-0.68993 l -0.585809,-0.44681 -0.408715,0.52224 c -0.833281,1.06473 -2.677877,1.54606 -4.251006,1.10925 -0.679438,-0.18866 -1.918749,-1.24078 -2.276539,-1.93267 l -0.22873,-0.44231 -0.56495,0.33333 c -0.44405,0.26199 -0.74342,0.31654 -1.39899,0.25489 -0.45872,-0.0431 -0.94204,-0.12156 -1.07404,-0.17427 -0.1683,-0.0672 -0.33561,0.10399 -0.56,0.57302 -0.46706,0.97627 -1.36313,1.40179 -2.94516,1.39859 -0.66816,-0.001 -1.32099,-0.0696 -1.45072,-0.15162 -0.16709,-0.10566 -0.38876,-0.0326 -0.76007,0.25064 -1.13697,0.86721 -2.36658,1.07445 -3.62953,0.61171 z m 2.60888,-1.14961 c 0.22913,-0.14193 0.53432,-0.40115 0.67819,-0.57605 0.25686,-0.31227 0.27808,-0.31282 1.17708,-0.0301 2.15513,0.67787 3.92134,-0.23339 3.92134,-2.02319 v -0.46286 l 0.71096,0.41664 c 0.45159,0.26466 0.96042,0.4201 1.39478,0.42609 0.57852,0.008 0.74924,-0.0689 1.10862,-0.4994 0.23364,-0.27985 0.49124,-0.73856 0.57245,-1.01934 l 0.14765,-0.51051 0.28141,0.8565 c 0.661728,2.01398 1.841665,2.98477 3.624128,2.98174 0.749595,-10e-4 1.189455,-0.0906 1.575228,-0.32 0.52359,-0.31132 1.144772,-1.26192 1.144772,-1.75186 0,-0.35923 0.09182,-0.31455 0.791492,0.38512 0.858611,0.85861 1.489667,1.15371 2.486268,1.16267 1.313338,0.0118 2.322241,-0.78976 2.322241,-1.84499 0,-0.37464 0.05701,-0.34579 0.853491,0.43182 1.254074,1.22437 2.68616,1.6425 3.89525,1.13731 0.638412,-0.26675 0.906016,-0.54788 1.238635,-1.30127 l 0.222058,-0.50296 0.935283,0.47651 c 0.871773,0.44415 1.033066,0.47244 2.375283,0.4166 1.603549,-0.0667 2.422466,-0.40224 2.587605,-1.06021 0.07775,-0.30977 0.168455,-0.3597 0.513413,-0.2826 1.73637,0.38811 2.707614,0.25026 3.395454,-0.48191 0.297405,-0.31657 0.383528,-0.58499 0.383528,-1.19536 0,-0.7677 0.01184,-0.78713 0.48,-0.788 0.801727,-10e-4 1.669429,-0.31417 2.208529,-0.79586 0.453716,-0.40539 0.511471,-0.55294 0.511471,-1.30667 0,-0.77844 0.05018,-0.89502 0.598476,-1.39037 0.768958,-0.69471 1.036302,-1.58026 0.775667,-2.56933 -0.32399,-1.229493 -1.22135,-2.279 -2.404978,-2.812742 l -0.656276,-0.295939 0.35992,-0.383116 c 0.485078,-0.516342 0.478149,-1.407504 -0.01634,-2.101954 -0.322685,-0.45317 -1.576506,-1.46848 -2.508059,-2.030959 -0.252918,-0.152714 -0.223879,-0.246419 0.322298,-1.04 0.499147,-0.72525 0.587024,-0.971127 0.52168,-1.459659 -0.151323,-1.131349 -1.221321,-2.011341 -2.999547,-2.466902 -0.984781,-0.252289 -2.413706,-0.247219 -3.057646,0.01085 -0.202298,0.08107 -0.290652,-0.01154 -0.374291,-0.39235 -0.154133,-0.701764 -1.106877,-1.298304 -2.280671,-1.427993 -1.100671,-0.12161 -2.413832,0.02747 -3.053694,0.346672 -0.460078,0.229517 -0.467703,0.225654 -0.730552,-0.370106 -0.416824,-0.944753 -1.707882,-1.752879 -2.79986,-1.752548 -0.719831,2.19e-4 -2.295193,0.867063 -3.030051,1.667289 -0.648831,0.706545 -0.708289,0.736707 -0.914912,0.464119 -0.121541,-0.160344 -0.223274,-0.33001 -0.226073,-0.377037 -0.0028,-0.04703 -0.225835,-0.215901 -0.495637,-0.375276 -0.747425,-0.441516 -1.936816,-0.371161 -3.049606,0.180389 l -0.923018,0.45749 -0.188534,-0.785898 c -0.345067,-1.4384 -1.753019,-2.563438 -3.215771,-2.569594 -1.526744,-0.0064 -3.153464,1.52871 -3.821524,3.606383 l -0.351,1.091617 -0.61579,-0.699577 c -0.76634,-0.870607 -1.48361,-1.220031 -2.50438,-1.220031 -0.94419,0 -1.94188,0.624121 -2.2721,1.421344 -0.1136,0.274261 -0.25901,0.498656 -0.32314,0.498656 -0.0641,0 -0.31329,-0.462838 -0.55371,-1.028529 -0.24043,-0.565691 -0.66724,-1.294724 -0.94848,-1.620073 -0.43421,-0.502298 -0.63315,-0.603248 -1.31866,-0.669117 -1.17373,-0.11278 -2.1553,0.425866 -3.05912,1.678711 l -0.49128,0.680991 -0.351,-0.680991 c -0.66587,-1.291856 -1.61481,-2.040992 -2.58534,-2.040992 -0.41658,0 -0.68078,0.167148 -1.34002,0.84777 -0.45162,0.466274 -0.99569,1.219323 -1.20905,1.673442 -0.21336,0.454119 -0.42393,0.826604 -0.46793,0.827744 -0.044,0.0011 -0.368,-0.445909 -0.72,-0.993442 -0.82878,-1.289165 -1.78425,-1.829027 -2.76817,-1.564083 -0.79876,0.215083 -1.19771,0.793854 -1.21718,1.765819 l -0.0147,0.731121 -1.44,5.54e-4 c -1.24513,4.79e-4 -1.54827,0.05752 -2.24,0.421527 -1.44997,0.762998 -2.29491,2.000284 -2.09472,3.067396 0.10159,0.541491 0.6312,1.252033 1.06578,1.429887 0.18588,0.07607 0.17447,0.128034 -0.0607,0.276311 -1.76889,1.115376 -2.57858,3.197711 -1.63802,4.21259 0.2158,0.23285 0.5475,0.423363 0.73712,0.423363 0.2674,0 0.31782,0.06282 0.22471,0.28 -0.71602,1.670066 -0.67558,2.536835 0.1549,3.320075 l 0.52185,0.49217 -0.51951,0.39388 c -0.81542,0.61821 -1.23865,1.35601 -1.31652,2.29504 -0.0592,0.71336 -0.0121,0.90752 0.31102,1.28316 l 0.38073,0.44263 0.63266,-0.59668 c 0.93083,-0.87789 2.00068,-1.25265 2.00068,-0.70083 0,0.0828 -0.10961,0.15056 -0.24358,0.15056 -0.38557,0 -1.6284,1.23975 -1.98846,1.98355 -0.64711,1.33674 -0.25139,3.08213 0.8536,3.76505 0.73738,0.45572 1.7479,0.46604 2.73827,0.028 l 0.74626,-0.3301 0.37338,0.44374 c 0.20537,0.24406 0.75853,0.63861 1.22926,0.87678 1.061,0.53682 2.11234,0.57162 3.03582,0.1005 l 0.65179,-0.33252 0.42183,0.39818 c 1.29816,1.22541 3.88864,1.70442 5.30183,0.98037 0.22,-0.11271 0.6102,-0.42604 0.86711,-0.69628 l 0.46712,-0.49134 0.65288,0.53218 c 1.49141,1.21568 2.79455,1.47543 3.91628,0.7806 z m 98.333464,-0.17457 c -1.0873,-0.51438 -2.3311,-1.67115 -2.81339,-2.61652 -0.24263,-0.47558 -0.39101,-0.60782 -0.59349,-0.52891 -0.68485,0.26688 -1.99402,0.43106 -2.65128,0.3325 -0.77581,-0.11634 -2.04261,-0.71861 -2.60156,-1.23686 l -0.34287,-0.3179 -0.40146,0.8518 c -0.70733,1.50079 -1.83849,2.36902 -3.41482,2.62108 -1.44734,0.23144 -3.90793,-0.67393 -5.34632,-1.96716 l -0.77683,-0.69845 -0.31276,0.60816 c -0.58966,1.14657 -1.86417,1.96816 -3.05315,1.96816 -0.81104,0 -2.02278,-0.47268 -2.70187,-1.05396 l -0.67898,-0.58118 -0.85281,0.80656 c -1.116868,1.05629 -1.818097,1.35322 -3.215263,1.36148 -0.955584,0.006 -1.268732,-0.0695 -2.133154,-0.51208 -1.221436,-0.62534 -2.232436,-1.60119 -2.918748,-2.81726 -0.389201,-0.68963 -0.570202,-0.87529 -0.768594,-0.78838 -2.337636,1.02405 -4.284378,0.91294 -5.98507,-0.34162 -0.822158,-0.60649 -1.700166,-1.84346 -2.033962,-2.86553 -0.238482,-0.73022 -0.251487,-2.96757 -0.02165,-3.72452 0.156806,-0.51642 0.156708,-0.51654 -0.77521,-0.93476 -1.119523,-0.50241 -1.628372,-1.00317 -2.102171,-2.068745 -0.763504,-1.717121 -0.540798,-4.12767 0.588765,-6.372741 0.302386,-0.601008 0.549792,-1.110803 0.549792,-1.132877 0,-0.02207 -0.309212,-0.262194 -0.687138,-0.5336 -0.395973,-0.284366 -0.887506,-0.855189 -1.16,-1.347123 -0.439593,-0.793597 -0.472862,-0.971859 -0.472862,-2.533658 0,-1.510368 0.04426,-1.768854 0.438334,-2.56 0.518576,-1.041093 1.097341,-1.723123 1.957661,-2.306952 l 0.628241,-0.426336 0.01041,-1.553356 c 0.0094,-1.399369 0.06074,-1.66049 0.51818,-2.634088 0.916811,-1.951325 2.900469,-3.495091 5.182067,-4.032902 1.313144,-0.30953 2.132027,-0.307756 3.518647,0.0076 l 1.116708,0.253989 0.655676,-0.592363 c 2.224785,-2.009959 6.199117,-2.069463 8.740752,-0.130867 l 0.54017,0.412009 0.50658,-0.481138 c 1.70637,-1.620675 4.4637,-2.300501 6.95161,-1.713937 1.22997,0.289984 1.96256,0.654089 3.05757,1.519647 l 0.84045,0.66433 0.74847,-0.739288 c 2.71006,-2.676789 6.84366,-2.287527 9.12011,0.858841 0.29239,0.404133 0.58046,0.819793 0.64015,0.923691 0.0806,0.140263 0.33507,0.11071 0.98837,-0.114777 1.53308,-0.529145 2.88599,-0.387113 4.2117501,0.442163 l 0.6119,0.382751 0.6681,-0.535669 c 1.02824,-0.824427 1.9437,-1.163372 3.14216,-1.163372 0.57527,0 1.18994,0.05117 1.36594,0.11371 0.2772,0.0985 0.40011,-0.05531 0.91906,-1.150169 1.43165,-3.020476 4.59275,-4.963541 8.07499,-4.963541 2.10141,0 3.53416,0.577624 4.7380299,1.910171 0.93423,1.034081 1.26941,1.940416 1.2902,3.488788 l 0.0177,1.31896 0.8,0.0034 c 0.93861,0.004 2.61219,0.373337 3.29749,0.727721 0.78668,0.406805 1.77206,1.386021 2.084,2.070955 0.318,0.698231 0.39505,2.205235 0.14622,2.85972 -0.13841,0.364033 -0.10352,0.416648 0.38266,0.577103 0.93643,0.30905 2.00026,1.130211 2.44305,1.885767 0.5636,0.96172 0.58938,2.350542 0.0626,3.372914 -0.19709,0.382528 -0.33533,0.713497 -0.30719,0.735488 0.0281,0.02199 0.42211,0.238619 0.87549,0.481395 2.52361,1.351343 4.07806,4.417934 3.60391,7.109735 -0.21136,1.199909 -0.82517,2.467338 -1.56427,3.229981 l -0.55444,0.572105 0.24524,0.941511 c 0.13487,0.517831 0.24437,1.196384 0.24333,1.507895 -0.003,0.839359 -0.39183,2.151059 -0.8901,3.001289 -0.83347,1.42221 -1.90014,2.14543 -3.65536,2.47839 -0.89812,0.17037 -1.05264,0.24886 -1.05264,0.53469 0,0.65009 -0.51178,1.82524 -1.01285,2.32573 -1.29039,1.28887 -3.25154,1.52109 -5.46715,0.64735 -1.1729599,-0.46256 -1.2933799,-0.48208 -1.4399999,-0.23342 -0.43518,0.73804 -1.45192,1.65328 -2.20367,1.98368 -1.62886,0.71588 -3.93385,0.41368 -5.63143,-0.73833 -0.74286,-0.50412 -0.82444,-0.4953 -0.94390003,0.102 -0.25576,1.27878 -2.22685997,2.26064 -3.87412997,1.92981 -0.86395,-0.1735 -2.36191,-0.84554 -2.54499,-1.14176 -0.19262,-0.31167 -0.49091,-0.15971 -0.79504,0.40503 -0.39359,0.73085 -1.38269,1.62188 -2.22492,2.00433 -1.02206,0.4641 -2.3697401,0.40772 -3.5450701,-0.14831 z m 3.3623101,-0.82369 c 0.83067,-0.40212 1.3812,-0.97393 1.96433,-2.04027 l 0.45797,-0.83746 0.54927,0.4113 c 1.49514,1.11958 3.294,1.6003 4.49955,1.20243 0.84188997,-0.27785 1.47291997,-1.01873 1.48102997,-1.73886 0.004,-0.32865 -0.0501,-0.75471 -0.11966,-0.94681 -0.10689,-0.29535 0.0406,-0.23955 0.95582003,0.36154 2.19673,1.44282 4.34757,1.87151 5.94406,1.18472 0.99325,-0.42729 1.86927,-1.34868 2.10121,-2.21005 l 0.16996,-0.63118 1.2386499,0.63019 c 3.24785,1.65242 6.27865,0.5017 6.27865,-2.38385 0,-0.46927 0.0231,-0.48339 0.96716,-0.59019 1.78155,-0.20156 3.11179,-1.0328 3.95895,-2.47386 0.39372,-0.66973 0.43389,-0.88618 0.43389,-2.338055 0,-1.221153 -0.0676,-1.731521 -0.28543,-2.155463 l -0.28543,-0.555463 0.5559,-0.484537 c 0.78322,-0.682678 1.48924,-1.893576 1.70222,-2.919503 0.52545,-2.531104 -1.16982,-5.545409 -3.88244,-6.903215 l -1.07517,-0.538182 0.4601,-0.668735 c 0.70502,-1.024709 0.89328,-1.911331 0.58001,-2.731598 -0.41429,-1.084824 -1.70184,-2.054551 -3.00976,-2.266823 -0.33,-0.05356 -0.6,-0.115024 -0.6,-0.13659 0,-0.02157 0.15191,-0.382632 0.33758,-0.802368 0.48943,-1.106446 0.37574,-2.416396 -0.28077,-3.235065 -0.89862,-1.120572 -3.14111,-1.958795 -4.62391,-1.728375 -0.30409,0.04725 -0.79861,0.124001 -1.09892,0.170546 l -0.54602,0.08463 0.24308,-0.924627 c 0.67036,-2.54991 -0.6308799,-5.008911 -3.0271399,-5.720525 -3.92747,-1.166331 -9.01502,1.542365 -10.11996,5.388032 l -0.26208,0.912135 -0.51093,-0.311537 c -0.70355,-0.428982 -2.12624,-0.419989 -3.06089,0.01935 -0.38856,0.182644 -1.06388,0.70998 -1.5007,1.171857 l -0.79423,0.839775 -0.4142,-0.519107 c -0.9545501,-1.196302 -3.1921001,-1.490526 -4.8698401,-0.640354 -0.45589,0.23102 -0.88056,0.424322 -0.94369,0.429561 -0.0631,0.0052 -0.20355,-0.246819 -0.31202,-0.560128 -0.73737,-2.129841 -3.11108,-3.662176 -5.23723,-3.380861 -1.50378,0.198967 -3.03924,1.111674 -3.9233,2.332093 l -0.42418,0.585566 -0.95533,-0.861433 c -0.52543,-0.473788 -1.46085,-1.113455 -2.07872,-1.421482 -2.55979,-1.276143 -5.52187,-0.765474 -7.74299,1.334909 -0.81897,0.774451 -0.90974,0.820896 -1.09629,0.560942 -0.50785,-0.707714 -1.07484,-1.177932 -1.92189,-1.593885 -0.818053,-0.401715 -1.085635,-0.449535 -2.515433,-0.449535 -1.390073,0 -1.715461,0.05452 -2.480001,0.415545 -0.484,0.228549 -1.247375,0.747669 -1.696389,1.153599 l -0.81639,0.738055 -0.86361,-0.33131 c -2.578551,-0.989217 -6.258432,0.191317 -7.78624,2.497885 -0.923272,1.393886 -1.319435,3.371217 -0.951944,4.75134 0.10319,0.387529 0.03848,0.467285 -0.731934,0.902078 -1.450225,0.818456 -2.250373,2.306709 -2.254231,4.192807 -0.0019,0.918451 0.07783,1.353714 0.339715,1.855149 0.405511,0.776426 1.204525,1.514744 1.96971,1.820084 0.303222,0.120997 0.577993,0.240249 0.610601,0.265003 0.03261,0.02475 -0.152431,0.318328 -0.4112,0.652386 -1.25404,1.618905 -1.808088,3.142965 -1.808088,4.97364 0,1.053602 0.07101,1.396355 0.44,2.123852 0.508499,1.002546 1.331628,1.636925 2.490068,1.91907 0.616016,0.15004 0.748202,0.2399 0.660767,0.44919 -0.680493,1.62886 -0.749957,3.66727 -0.167591,4.91797 1.2738,2.73564 4.75965,3.66659 7.085769,1.89237 0.292043,-0.22275 0.530987,-0.32017 0.530987,-0.21649 0,0.53114 1.08199,2.29673 1.856202,3.02895 1.587247,1.50115 3.43752,1.98749 4.943799,1.29946 0.598851,-0.27354 1.691503,-1.33006 2.100593,-2.03114 0.17049,-0.29217 0.2136,-0.27577 0.77002,0.29288 1.32206,1.35115 3.2745,1.80707 4.42329,1.03289 0.68809,-0.4637 1.23126,-1.41993 1.36495,-2.40294 l 0.10441,-0.76767 0.81226,0.91134 c 2.40423,2.69749 6.18087,3.47684 7.90297,1.63087 0.43083,-0.46183 1.16151,-2.20039 1.16151,-2.76369 0,-0.22174 0.0362,-0.40318 0.0804,-0.40318 0.0442,0 0.34421,0.29199 0.66662,0.64886 0.32241,0.35687 0.91622,0.84287 1.31958,1.08 0.64104,0.37686 0.90463,0.43114 2.09339,0.43114 1.10568,0 1.46915,-0.0645 1.94368,-0.34497 l 0.58369,-0.34498 0.52817,1.04057 c 0.6107,1.20318 1.92869,2.4766 2.93158,2.83246 0.95286,0.33811 2.1162201,0.3129 2.8920401,-0.0627 z m 145.1878559,1.1e-4 c -1.52656,-0.24319 -3.59973,-1.04028 -4.67335,-1.79682 l -0.44634,-0.31451 -1.51695,0.76816 c -1.42922,0.72373 -1.60333,0.77193 -3.01055,0.83348 -3.30607,0.14459 -5.98202,-1.46916 -7.51308,-4.53083 -0.46161,-0.92308 -0.90675,-2.91163 -0.90675,-4.0507 v -0.78419 l -1.37951,-0.0861 c -1.1979,-0.0747 -1.55346,-0.17226 -2.70089,-0.74084 -2.92229,-1.44805 -4.5596,-4.097494 -4.5596,-7.378204 0,-1.536839 0.26562,-2.637236 0.97816,-4.052264 l 0.46944,-0.932265 -0.70392,-0.782929 c -1.04773,-1.165327 -1.42148,-2.068965 -1.51052,-3.652075 -0.11999,-2.133504 0.49733,-4.15065 1.7817,-5.821851 0.32183,-0.418761 0.58514,-0.805256 0.58514,-0.858878 0,-0.05362 -0.21129,-0.338137 -0.46953,-0.632257 -1.09669,-1.249059 -1.93351,-3.494242 -1.9281,-5.173074 0.017,-5.296156 5.71408,-10.23141 12.49912,-10.827819 l 1.22149,-0.10737 0.0774,-0.686735 c 0.0426,-0.377705 0.29305,-1.142529 0.55661,-1.699609 1.56188,-3.301265 5.81375,-4.769706 9.84278,-3.399342 1.93481,0.65807 3.41168,1.704122 4.64087,3.287078 l 0.6922,0.89141 0.71358,-0.638092 c 0.96482,-0.862758 2.64692,-1.646784 4.0357,-1.881031 2.06118,-0.347664 4.63052,0.07323 6.25362,1.024434 0.8921,0.522804 2.10664,1.862689 2.34608,2.588206 0.18236,0.552566 0.18637,0.554473 1.17058,0.556829 3.02809,0.0073 5.36028,1.415685 6.5484,3.95464 0.63761,1.362539 0.78152,3.173936 0.36577,4.604042 l -0.27088,0.931811 0.53215,0.413487 c 1.62053,1.25916 2.90335,2.905301 3.51164,4.5062 0.36334,0.956236 0.39681,2.647265 0.068,3.434287 -0.1279,0.306105 -0.59995,0.945037 -1.04901,1.419849 -0.49319,0.521472 -0.74814,0.905522 -0.64391,0.969942 0.35897,0.221857 1.48337,1.896393 2.00692,2.988851 1.44455,3.014289 1.11771,5.931475 -0.899,8.023774 -0.56956,0.590904 -0.73399,0.863985 -0.63473,1.054128 0.27684,0.530338 0.65227,2.597434 0.65227,3.591354 0,3.596433 -2.74792,6.881343 -6.30873,7.541563 l -0.94873,0.1759 -0.21177,0.93245 c -0.43253,1.90446 -1.84996,3.85851 -3.31244,4.56648 -1.86664,0.90363 -3.96964,0.77223 -6.24813,-0.3904 l -1.30632,-0.66656 -0.39194,0.51833 c -1.35314,1.78953 -4.8787,2.80603 -8.00492,2.30802 z m 4.38012,-1.122 c 1.68501,-0.52045 2.83841,-1.40495 3.82007,-2.92951 0.0669,-0.10389 0.30756,-0.014 0.64,0.23916 1.94057,1.47753 4.81012,1.94104 6.63975,1.07252 1.38164,-0.65586 2.60907,-2.48873 2.98248,-4.45363 l 0.17764,-0.93473 1.04646,-0.0606 c 1.35,-0.0782 2.8172,-0.75623 4.0209,-1.85824 2.18405,-1.99955 2.81025,-5.505885 1.4916,-8.352061 l -0.39428,-0.851014 0.84826,-0.756048 c 1.25766,-1.120929 1.76509,-2.160721 1.85073,-3.792388 0.0563,-1.072443 1.8e-4,-1.537191 -0.29721,-2.462095 -0.41055,-1.276798 -1.53517,-3.085532 -2.53449,-4.076233 l -0.66206,-0.656346 0.87203,-0.578999 c 1.20455,-0.799772 1.77098,-1.783806 1.77098,-3.076607 0,-0.799915 -0.10649,-1.183773 -0.61239,-2.207398 -0.82008,-1.659326 -2.02301,-2.949236 -3.92928,-4.213414 -0.0339,-0.02249 0.10148,-0.548286 0.30088,-1.168427 0.92985,-2.891825 -0.36685,-5.979815 -3.00118,-7.147093 -1.03619,-0.459136 -2.8822,-0.76107 -3.80609,-0.622523 l -0.68976,0.103435 -0.33589,-0.759332 c -0.69128,-1.562764 -1.74263,-2.496079 -3.46556,-3.076491 -2.99676,-1.009538 -6.32734,-0.334716 -8.35487,1.692819 -0.47463,0.474625 -0.87261,0.841302 -0.88441,0.814838 -1.31699,-2.954333 -4.22754,-5.004673 -7.57219,-5.334247 -3.02714,-0.298287 -5.93647,1.389388 -6.91814,4.013159 -0.18212,0.486737 -0.33112,1.206276 -0.33112,1.598975 v 0.713997 h -1.05486 c -1.32923,0 -3.83925,0.505523 -5.1453,1.036272 -1.76039,0.715382 -3.2719,1.715799 -4.59982,3.044457 -2.85308,2.854666 -3.61721,6.13958 -2.13582,9.181616 0.27382,0.56229 0.8488,1.386444 1.27773,1.831452 l 0.77988,0.809107 -0.46057,0.488548 c -1.98688,2.107571 -2.85984,5.047262 -2.17273,7.316629 0.3087,1.019599 1.51592,2.570195 2.16023,2.77469 0.42337,0.134374 0.39636,0.275152 -0.222,1.156858 -1.05598,1.505711 -1.29816,2.316357 -1.30267,4.36037 -0.004,1.633227 0.0433,1.952403 0.41743,2.840242 0.7633,1.811355 2.03636,3.098146 3.9785,4.021412 0.7809,0.37123 1.07522,0.41835 2.61344,0.41835 h 1.73344 l -0.1047,0.83796 c -0.15473,1.23845 0.18652,3.14342 0.8029,4.48208 0.96618,2.09834 2.89366,3.58918 5.25299,4.063 1.55077,0.31144 3.16821,-0.12459 5.22193,-1.40772 0.382,-0.23867 0.4396,-0.22305 1.28,0.34719 0.484,0.32841 1.204,0.73772 1.6,0.90958 2.15357,0.93465 5.46636,1.20587 7.40714,0.60642 z m -70.607136,-10.29622 c -1.80309,-0.41682 -3.83539,-1.402845 -5.11153,-2.479989 l -0.55153,-0.465526 -0.43164,0.680633 c -1.08704,1.714092 -3.00098,2.367372 -5.21148,1.778822 -1.27228,-0.338756 -2.26702,-0.894624 -3.29017,-1.838578 l -0.93469,-0.862343 -0.6361,0.511184 c -1.34598,1.081664 -2.70105,1.267005 -4.11432,0.562743 -1.48302,-0.739024 -2.47794,-2.295571 -2.80089,-4.381983 l -0.16884,-1.090778 -0.69492,-0.09525 c -0.96048,-0.131649 -1.8068,-0.597499 -2.52035,-1.387313 -0.78999,-0.874421 -1.06399,-1.565038 -1.16792,-2.943699 -0.12516,-1.660302 0.28679,-3.094482 1.38499,-4.821724 0.18778,-0.295341 0.14813,-0.413573 -0.36344,-1.083765 -0.61877,-0.810636 -0.90486,-1.606413 -0.90628,-2.520853 -10e-4,-0.811407 0.2684,-1.521513 0.97909,-2.578366 l 0.61497,-0.91449 -0.62345,-0.501015 c -0.62169,-0.499606 -1.47543,-1.905309 -1.67696,-2.761179 -0.19579,-0.831454 0.22615,-2.324806 0.97049,-3.434809 l 0.69307,-1.03356 -0.65201,-0.652018 c -0.96018,-0.960177 -1.30729,-1.746753 -1.38939,-3.148438 -0.084,-1.43359 0.3061,-2.778021 1.19416,-4.115936 l 0.56632,-0.853206 -0.42956,-0.619866 c -0.58956,-0.850731 -0.88762,-1.937515 -0.88762,-3.23642 v -1.094571 h -0.49582 c -1.18023,0 -2.78559,-1.308047 -3.23919,-2.639302 -0.71391,-2.095201 0.0329,-4.552855 1.96989,-6.482442 0.48682,-0.484959 1.08844,-1.024959 1.33693,-1.2 l 0.45182,-0.318256 -0.7324,-0.782841 c -1.20718,-1.290328 -1.50564,-2.91332 -0.87822,-4.775776 0.36814,-1.092796 0.71793,-1.666006 1.56058,-2.557304 0.51642,-0.546236 0.54289,-0.619606 0.31756,-0.88 -0.74145,-0.856801 -0.83597,-2.968961 -0.19017,-4.249397 0.23154,-0.459074 0.50154,-0.894162 0.6,-0.966862 0.12852,-0.09489 0.12007,-0.155915 -0.0299,-0.216319 -0.55551,-0.223681 -1.55793,-1.158884 -1.85595,-1.731504 -0.62214,-1.19538 -0.31681,-3.15905 0.6649,-4.27618 0.21816,-0.24826 0.20819,-0.35641 -0.0987,-1.06966 -0.72235,-1.67915 -0.28714,-4.02628 1.07959,-5.82238 1.34112,-1.76244 3.53294,-2.87703 6.07444,-3.08898 l 1.24407,-0.10375 0.26454,-0.73952 c 0.48003,-1.34192 1.6599,-2.44497 3.2143,-3.00505 0.87597,-0.31562 4.17007,-0.3001 5.38172,0.0254 1.15643,0.31063 1.44,0.30222 1.44,-0.0427 0,-0.15557 0.1776,-0.54421 0.39466,-0.86364 1.11978,-1.64791 3.6625,-1.95021 5.53977,-0.65861 0.77194,0.53111 2.06557,1.85824 2.06557,2.11906 0,0.0886 0.486,-0.19203 1.08,-0.62363 1.75465,-1.27492 3.63253,-1.72906 5.20348,-1.25839 0.75346,0.22575 2.15998,1.45669 2.60173,2.27696 0.17071,0.31699 0.38337,0.54324 0.47258,0.50277 1.7786,-0.80672 2.25322,-0.92787 3.35358,-0.85598 1.10337,0.0721 2.19373,0.47218 2.84402,1.04359 0.24975,0.21945 0.33092,0.19323 0.87187,-0.28174 0.99964,-0.8777 1.87994,-1.19274 3.33274,-1.19274 1.56326,0 2.41935,0.34633 3.61073,1.46073 0.96913,0.9065 1.58927,2.04 1.58927,2.90486 0,0.57032 0.0525,0.64471 0.64346,0.91118 0.77025,0.34734 1.84525,1.47066 2.18968,2.2881 0.23122,0.54878 0.33915,1.90786 0.19121,2.40782 -0.0438,0.14807 0.242,0.30371 0.89565,0.48774 1.41202,0.39752 2.7828,1.19069 3.837546,2.22051 1.67357,1.63401 2.09902,3.2955 1.26991,4.95931 -0.38385,0.77029 -1.82463,2.274962 -2.17836,2.274962 -0.086,0 0.13104,0.326423 0.48221,0.725384 1.45628,1.654421 1.77263,3.418907 0.90031,5.021652 -0.25762,0.473319 -0.70312,1.047867 -0.99,1.276772 -0.28688,0.228906 -0.521606,0.468343 -0.521606,0.532083 -1e-5,0.06374 0.206436,0.222648 0.458756,0.353128 0.8121,0.419955 2.19003,1.909602 2.6335,2.847011 0.92506,1.955408 0.38665,3.717148 -1.68297,5.506917 l -0.58159,0.502947 0.82615,0.571003 c 1.19206,0.823911 2.71271,2.388135 3.21019,3.302175 0.87171,1.601604 0.67597,3.020892 -0.61344,4.448118 l -0.58545,0.648021 0.71415,1.043129 c 1.91493,2.797031 1.17871,6.204174 -1.90627,8.822024 l -0.96696,0.820545 0.28276,0.629545 c 0.31526,0.701872 0.37828,2.05957 0.12637,2.722159 -0.0906,0.238396 -0.37702,0.701394 -0.6364,1.028884 l -0.47159,0.595437 0.33962,0.301532 c 0.56,0.497201 0.97857,1.609315 0.85454,2.270471 -0.17838,0.950851 -0.68088,1.751608 -1.5109,2.407702 l -0.784986,0.620495 0.764836,0.753341 c 1.49827,1.475741 1.96188,3.24968 1.13986,4.361523 l -0.37429,0.506261 0.48114,0.610869 c 0.26464,0.335978 0.68626,1.006869 0.93693,1.490869 0.41043,0.792435 0.4563,1.03921 0.46091,2.48 0.005,1.508153 -0.0249,1.655264 -0.5173,2.562721 -0.28733,0.529497 -0.79133,1.256905 -1.12,1.616462 l -0.59758,0.65374 v 1.826903 c 0,1.751494 -0.0223,1.872157 -0.53975,2.923286 -1.031246,2.094768 -2.215916,2.899232 -4.260246,2.892962 -1.49466,-0.005 -2.37781,-0.335487 -3.42823,-1.284478 l -0.66906,-0.604459 -0.58,0.597135 c -0.87641,0.902311 -1.39973,1.118552 -2.69317,1.112842 -1.28834,-0.006 -2.35078,-0.469193 -3.28512,-1.433188 l -0.52411,-0.540746 -0.25015,0.37889 c -0.46991,0.711733 -1.63167,1.535244 -2.53721,1.798494 -1.64292,0.47761 -4.29609,0.029 -5.82931,-0.985639 -0.32823,-0.217209 -0.65699,-0.394926 -0.73057,-0.394926 -0.0736,0 -0.25056,0.244845 -0.39326,0.5441 -0.14271,0.299255 -0.52081,0.743435 -0.84024,0.987075 -0.49942,0.38093 -0.75296,0.44938 -1.81017,0.48876 -0.67617,0.0252 -1.6254,-0.0457 -2.1094,-0.15764 z m 2.62592,-0.73511 c 0.34426,-0.07985 0.84192,-0.361179 1.10592,-0.625182 0.38862,-0.38862 0.49406,-0.64949 0.55383,-1.370238 l 0.0738,-0.890234 0.53021,0.465534 c 0.29162,0.256044 1.05673,0.724864 1.70025,1.041822 2.97345,1.464528 5.74436,0.997513 7.17016,-1.208484 0.50352,-0.779042 0.63249,-0.895735 0.71225,-0.644444 0.19869,0.626004 1.76407,1.90683 2.65316,2.17086 1.00223,0.29763 1.1625,0.304712 1.9495,0.08614 0.7671,-0.213045 1.49731,-0.833084 1.89183,-1.6064 l 0.31282,-0.613189 0.71527,0.764676 c 1.29747,1.387096 3.18581,2.035944 4.72505,1.623563 1.99958,-0.535708 3.595826,-3.989642 2.84761,-6.161608 l -0.22047,-0.64 0.865346,-0.862003 c 1.2428,-1.237979 1.70953,-2.32 1.69865,-3.937997 -0.0108,-1.606899 -0.3697,-2.454283 -1.55996,-3.683157 l -0.863986,-0.892026 0.526966,-0.526977 c 0.28984,-0.289838 0.57525,-0.719291 0.63424,-0.954341 0.17325,-0.690278 -0.5859,-2.024578 -1.768336,-3.108064 l -1.02242,-0.936862 0.43394,-0.256331 c 0.72185,-0.426407 1.944326,-1.570223 2.193786,-2.052616 0.12905,-0.249554 0.23463,-0.742278 0.23463,-1.094943 0,-0.526421 -0.10741,-0.749825 -0.6,-1.247945 -0.33,-0.333705 -0.743996,-0.688267 -0.919996,-0.787915 -0.3098,-0.175406 -0.30543,-0.192774 0.13722,-0.54516 0.25148,-0.200189 0.665476,-0.651462 0.919996,-1.002828 0.72468,-1.00039 0.59679,-2.486626 -0.3022,-3.511815 -0.13551,-0.154539 -0.21683,-0.306003 -0.1807,-0.336585 0.0361,-0.03058 0.39763,-0.247091 0.80334,-0.481129 1.03888,-0.599289 2.41344,-2.098223 3.03621,-3.310945 0.46393,-0.903416 0.52874,-1.180691 0.52609,-2.250552 -0.004,-1.451109 -0.45441,-2.534127 -1.57248,-3.77769 l -0.69803,-0.776381 0.88482,-0.780111 c 1.03682,-0.914119 1.39909,-1.642617 1.25742,-2.528568 -0.11173,-0.698754 -0.35937,-1.133549 -1.28701,-2.259679 -0.58291,-0.707631 -3.143686,-2.835696 -3.641966,-3.026548 -0.13438,-0.05147 -0.0679,-0.175726 0.19729,-0.36863 0.846336,-0.615687 1.989346,-1.772088 2.425116,-2.453524 0.62907,-0.983708 0.62488,-2.027066 -0.0126,-3.138462 -0.51463,-0.897228 -2.090426,-2.436841 -3.061746,-2.991459 -0.73063,-0.417184 -0.75767,-0.48957 -0.26643,-0.713392 1.02838,-0.468563 2.086386,-1.780189 2.283496,-2.830886 0.22931,-1.222296 -0.69926,-2.977453 -2.121706,-4.010415 -0.36661,-0.266233 -0.67071,-0.520061 -0.67576,-0.564061 -0.005,-0.044 0.46055,-0.322895 1.03468,-0.619768 1.822396,-0.942337 2.680486,-2.333887 2.306406,-3.740237 -0.53796,-2.0224 -3.923356,-4.43999 -6.217406,-4.43999 h -0.63605 l 0.32906,-0.74391 c 0.72169,-1.6315 0.0319,-3.26726 -1.74397,-4.13577 l -0.98214,-0.48032 -0.012,-0.8 c -0.0304,-2.02782 -2.11383,-3.93922 -4.32897,-3.97143 -1.15436,-0.0168 -2.15542,0.442 -3.27513,1.50097 l -0.87488,0.82743 -0.18804,-0.4127 c -0.26678,-0.58552 -1.201,-1.1811 -2.18195,-1.39103 -1.33718,-0.28616 -2.94945,0.17904 -4.16482,1.20171 l -0.48755,0.41024 -0.17202,-0.8021 c -0.3082,-1.43709 -1.30036,-2.49662 -2.68768,-2.87019 -0.74224,-0.19986 -1.73102,-0.0435 -2.84754,0.45044 -0.60417,0.26725 -2.42535,1.63085 -2.67169,2.00041 -0.12828,0.19245 -0.10955,0.21454 -0.5287,-0.62375 -0.41613,-0.83226 -1.74766,-2.16675 -2.56,-2.5657 -0.43919,-0.21569 -0.97022,-0.3143 -1.69245,-0.3143 -0.90633,0 -1.13406,0.0622 -1.64017,0.44827 -0.69092,0.52698 -1.06738,1.18433 -1.06738,1.86378 0,0.57568 0.0373,0.57075 -1.25519,0.16559 -1.58669,-0.49737 -3.84669,-0.71395 -5.03452,-0.48247 -2.28019,0.44436 -3.95029,2.06081 -3.95029,3.82339 0,0.32106 -0.079,0.34144 -1.32346,0.34144 -1.51914,0 -3.08333,0.37915 -4.1549,1.00713 -1.9563,1.14647 -3.56182,3.9752 -3.23826,5.70542 0.13549,0.72453 0.66921,1.75929 0.96619,1.87326 0.18066,0.0693 0.10127,0.23837 -0.34278,0.72987 -0.72969,0.80768 -1.02679,1.51576 -1.02679,2.44712 0,1.3888 0.77844,2.23045 2.53839,2.74454 l 1.0184,0.297469 -0.80787,0.551285 c -0.91928,0.627312 -1.42722,1.414981 -1.56616,2.428669 -0.17278,1.260579 0.32286,2.393484 1.28612,2.939722 0.25673,0.145587 0.20535,0.218035 -0.44709,0.630444 -0.87751,0.554663 -1.59932,1.413421 -2.05856,2.449099 -0.41809,0.942868 -0.461,2.756415 -0.0823,3.475967 0.27983,0.531624 1.18656,1.429212 2.02398,2.00356 l 0.54494,0.373756 -0.86316,0.407856 c -1.22881,0.580627 -2.89662,2.271054 -3.50088,3.548361 -0.86026,1.81843 -0.59848,3.964726 0.60732,4.979335 0.64329,0.541297 1.48501,0.814267 2.27772,0.73867 l 0.63021,-0.0601 -0.12055,0.56428 c -0.39241,1.836853 0.20189,3.898557 1.37187,4.759138 0.32317,0.237709 0.60515,0.44068 0.62662,0.451046 0.0215,0.01037 -0.29326,0.365661 -0.69941,0.789543 -0.83901,0.875637 -1.41769,2.023181 -1.68073,3.33293 -0.32816,1.63405 0.36518,3.257178 1.734,4.059364 l 0.69536,0.407509 -0.65461,0.71017 c -0.86148,0.934601 -1.59336,2.491749 -1.59352,3.390399 -7e-5,0.382701 0.12437,0.958701 0.27654,1.28 0.37777,0.797632 1.4739,1.862201 2.18051,2.117715 0.32055,0.115913 0.58282,0.253674 0.58282,0.306136 0,0.05246 -0.29391,0.379999 -0.65314,0.727858 -1.86295,1.804008 -2.05968,3.80176 -0.52545,5.335987 l 0.70902,0.709016 -0.54576,0.821965 c -0.87309,1.314967 -1.19483,2.047938 -1.3894,3.165218 -0.22609,1.298336 0.0946,2.779935 0.78789,3.640285 0.6067,0.752878 1.94848,1.44 2.81197,1.44 h 0.6786 l 0.0944,1.01056 c 0.19106,2.045957 1.17694,3.744462 2.56285,4.415374 1.28093,0.620084 2.35232,0.356879 3.54575,-0.871071 0.39782,-0.409328 0.72331,-0.678584 0.72331,-0.598347 0,0.304752 1.15246,1.473911 2.02137,2.050659 1.61167,1.069772 3.55688,1.451168 5.08007,0.99605 0.84946,-0.253813 1.93801,-1.337256 2.1906,-2.180321 l 0.19399,-0.647459 0.81698,0.715017 c 1.33209,1.165824 3.93722,2.365277 6.02798,2.775402 0.95843,0.188 1.24307,0.19107 1.97493,0.0213 z M -107.581,-59.207616 c -0.36267,-0.164693 -1.00251,-0.628195 -1.42186,-1.030005 l -0.76246,-0.730564 -0.42933,0.459593 c -0.58627,0.627609 -1.59856,0.887834 -2.53574,0.651851 -0.9262,-0.233219 -1.59907,-0.575978 -2.15836,-1.099457 l -0.44715,-0.41852 -0.40452,0.51688 c -0.90444,1.155649 -2.63574,1.707677 -4.17229,1.330335 -1.02326,-0.25129 -2.33324,-1.16456 -2.90192,-2.023117 l -0.46101,-0.696006 -0.46298,0.492915 c -1.86559,1.986223 -4.84568,1.09827 -5.27252,-1.571009 -0.0884,-0.55297 -0.18182,-0.67241 -0.66143,-0.845838 -1.11244,-0.402263 -1.27831,-1.929974 -0.34886,-3.213042 l 0.47407,-0.654431 -0.40076,-0.476268 c -0.54269,-0.644957 -0.67515,-1.451595 -0.36713,-2.235738 l 0.24614,-0.626617 -0.54625,-0.546246 c -0.46502,-0.465021 -0.54624,-0.65687 -0.54624,-1.290192 0,-0.40917 0.10785,-0.952507 0.23967,-1.207415 0.22082,-0.427018 0.21316,-0.50839 -0.0973,-1.034629 -0.62657,-1.061966 0.0326,-2.397432 1.54469,-3.129414 0.66584,-0.32233 0.71297,-0.387024 0.71297,-0.978814 0,-1.605597 1.50017,-2.569632 3.2478,-2.087088 0.56622,0.156338 0.60881,0.141292 0.83427,-0.294701 0.27516,-0.532094 1.10242,-1.189209 1.6716,-1.327793 0.58563,-0.142591 1.66371,0.182824 2.2629,0.683055 l 0.52866,0.441346 0.72739,-0.521738 c 0.95516,-0.685121 2.54057,-1.218037 3.23676,-1.087998 0.77316,0.144416 1.49995,0.630932 1.86382,1.247648 l 0.31872,0.540182 0.77404,-0.396016 c 0.59283,-0.303304 0.91844,-0.373718 1.39083,-0.300771 0.72156,0.111422 1.47351,0.466557 1.99164,0.940615 0.31222,0.285667 0.38949,0.301118 0.50655,0.101284 0.49205,-0.840057 0.99017,-1.328672 1.73051,-1.697511 1.59389,-0.794074 3.56338,-0.286773 4.63618,1.194187 0.41713,0.575834 0.46909,0.599798 0.99917,0.460826 0.74014,-0.194044 2.163635,-0.0396 2.665435,0.289194 0.220819,0.144686 0.418428,0.239313 0.439132,0.210282 0.0207,-0.02903 0.24,-0.412785 0.487325,-0.852785 0.793238,-1.411201 1.661736,-2.119991 2.93433,-2.394738 0.767274,-0.16565 2.003636,0.186417 2.805938,0.79902 0.651507,0.497463 0.742656,0.522795 1.337658,0.371768 0.830326,-0.21076 1.798739,0.04394 2.496514,0.65659 0.401562,0.352576 0.58728,0.423185 0.799985,0.30415 0.464317,-0.259845 1.81754,-0.210328 2.485668,0.09096 0.584465,0.263557 0.658853,0.264775 1.13492,0.01859 1.299416,-0.671954 3.260273,-0.383749 4.477426,0.658088 0.349429,0.299098 0.832169,0.946149 1.072756,1.43789 0.369325,0.754873 0.435318,1.08955 0.423868,2.149578 -0.01247,1.154445 0.01428,1.263738 0.332322,1.357811 0.646269,0.191159 1.521448,0.895638 1.774105,1.428074 0.364397,0.767909 0.314113,1.939085 -0.123748,2.882221 -0.370039,0.79705 -0.37026,0.801561 -0.06016,1.223346 0.526488,0.716116 0.544429,1.751154 0.04794,2.765933 -0.235732,0.481817 -0.622924,1.041336 -0.860428,1.243376 -0.386642,0.328907 -0.433032,0.479429 -0.443357,1.438543 -0.01503,1.395655 -0.590583,2.405634 -1.694704,2.973834 -0.864118,0.444691 -2.35191,0.624437 -3.209172,0.387713 l -0.595408,-0.164415 -0.105279,0.561188 c -0.139076,0.741339 -1.011038,1.603551 -1.764665,1.744932 -0.764071,0.14334 -2.002894,-0.150264 -2.73604,-0.64845 l -0.583647,-0.3966 -0.362362,0.607655 c -0.873693,1.465121 -3.21126,1.650202 -5.031136,0.398348 l -0.797832,-0.548812 -0.514113,0.366703 c -0.426778,0.30441 -0.719097,0.366703 -1.720798,0.366703 -1.0074,0 -1.348333,-0.07349 -2.064379,-0.444987 -0.854469,-0.443315 -0.858956,-0.443806 -1.193314,-0.130658 -0.74845,0.700971 -1.7651,0.830443 -2.71563,0.345838 l -0.60767,-0.309807 -0.48991,0.55798 c -0.26945,0.306889 -0.69165,0.662303 -0.93822,0.789807 -0.61761,0.319381 -1.85271,0.284508 -2.64359,-0.07464 z m 2.51506,-0.722869 c 0.37724,-0.156732 0.93762,-0.977092 1.04948,-1.536361 l 0.0977,-0.48863 0.30467,0.327027 c 0.51904,0.55712 1.5464,0.998452 2.0611,0.885405 0.49545,-0.108819 1.27136,-0.905388 1.27136,-1.305206 0,-0.152659 0.301272,0.02832 0.812904,0.488318 0.867243,0.779725 1.567678,1.056458 2.677617,1.057893 0.810742,0.001 1.259706,-0.195462 1.735927,-0.759809 l 0.346446,-0.410555 0.533554,0.450367 c 1.105748,0.93335 2.762537,1.310901 3.883065,0.884877 0.577505,-0.219567 1.049175,-1.068462 1.049892,-1.889555 l 5.98e-4,-0.685568 0.518835,0.590921 c 0.939873,1.070456 2.892717,1.6664 3.825229,1.167335 0.375158,-0.200778 0.775936,-1.068845 0.775936,-1.680643 0,-0.367362 0.04794,-0.408279 0.36,-0.307253 0.835305,0.270424 2.693307,0.279168 3.382614,0.01592 1.45301,-0.55491 2.255556,-2.246198 1.672787,-3.525238 -0.164532,-0.361109 -0.136081,-0.443316 0.261727,-0.756232 0.712567,-0.560505 1.362872,-1.711539 1.362872,-2.412271 0,-0.611135 -0.430705,-1.251637 -0.960391,-1.428199 -0.165474,-0.05516 -0.09671,-0.234812 0.269315,-0.703637 0.955079,-1.223311 1.11687,-2.478371 0.411076,-3.188851 -0.471914,-0.475048 -1.631424,-1.040715 -2.133265,-1.040715 -0.368195,0 -0.366152,0.02129 -0.06674,-0.695321 0.723086,-1.730588 -0.418143,-4.143412 -2.24493,-4.746306 -0.850984,-0.28085 -2.030722,-0.123186 -2.777851,0.37124 l -0.630647,0.417343 -0.415802,-0.32707 c -0.790171,-0.621548 -1.439011,-0.685353 -2.416883,-0.237668 l -0.874645,0.400426 -0.238707,-0.461609 c -0.131289,-0.253885 -0.399139,-0.57398 -0.595223,-0.711322 -0.449836,-0.315078 -1.861617,-0.328506 -2.2994,-0.02187 -0.297964,0.208702 -0.360391,0.183848 -0.743168,-0.29587 -0.771321,-0.966666 -2.293869,-1.348454 -3.29069,-0.825159 -1.043601,0.547852 -2.164543,2.146287 -2.462912,3.512053 -0.170059,0.778433 -0.185921,0.797359 -0.305026,0.363942 -0.381205,-1.387192 -2.162514,-1.988867 -3.646634,-1.231726 l -0.66204,0.337749 -0.16103,-0.444415 c -0.50442,-1.392206 -1.31834,-2.005023 -2.77135,-2.086598 -1.55015,-0.08703 -2.32457,0.567376 -2.93292,2.478417 l -0.26621,0.836234 -0.30828,-0.516234 c -1.36063,-2.278465 -3.32119,-2.500085 -4.57848,-0.517549 l -0.45621,0.719365 -0.10835,-0.759025 c -0.1427,-0.999625 -0.55766,-1.820056 -1.05261,-2.08116 -0.87302,-0.460547 -2.63102,0.110425 -3.81874,1.240268 l -0.66368,0.63135 -0.41618,-0.628885 c -0.39231,-0.592828 -1.46382,-1.281377 -1.99192,-1.280001 -0.57325,0.0015 -1.25561,0.637391 -1.53843,1.433681 -0.21568,0.607273 -0.34843,0.784426 -0.52945,0.706552 -1.54483,-0.664572 -2.49233,-0.641903 -3.05647,0.07313 -0.28614,0.362668 -0.32112,0.559723 -0.23511,1.324709 l 0.10104,0.898666 -0.60553,0.09937 c -1.30956,0.21489 -2.34765,1.328543 -1.98347,2.127837 0.0953,0.209099 0.35547,0.463216 0.57821,0.564705 l 0.405,0.184527 -0.33628,0.357947 c -0.43303,0.460946 -0.76148,1.420091 -0.66289,1.935821 0.0804,0.420591 0.86733,1.010821 1.34907,1.011868 0.23889,5.19e-4 0.22361,0.07659 -0.11576,0.57669 -0.78416,1.155521 -0.62834,2.281559 0.39977,2.888875 0.5854,0.345805 0.59295,0.424758 0.0732,0.765324 -0.61459,0.402696 -1.03109,1.199412 -1.03177,1.973668 -5.1e-4,0.587229 0.0575,0.706029 0.40982,0.84 0.22573,0.08582 0.57888,0.15604 0.78478,0.15604 0.33964,0 0.3672,0.05564 0.2972,0.6 -0.15425,1.199506 0.84187,2.509305 2.05273,2.699152 0.72091,0.11303 1.8233,-0.485251 2.48216,-1.347101 l 0.50728,-0.663574 0.42146,0.719171 c 0.92866,1.584637 2.27427,2.461592 3.81986,2.48946 1.39993,0.02524 2.54723,-0.630867 3.04902,-1.743634 l 0.28779,-0.638205 0.554,0.61321 c 1.23575,1.367826 3.35133,1.866909 4.35035,1.026285 0.26488,-0.22288 0.5661,-0.661276 0.66938,-0.974213 l 0.18777,-0.568978 0.31884,0.534214 c 0.68997,1.156063 1.92086,2.159786 2.90428,2.368289 0.47538,0.10079 1.14873,0.01324 1.71835,-0.223414 z m 74.453764,-6.222704 c -0.44581,-0.212283 -1.08909,-0.706142 -1.4295,-1.097464 l -0.61892,-0.711495 -0.60011,0.600112 c -1.33175,1.331747 -3.48675,1.255879 -5.39644,-0.189985 -0.940005,-0.711691 -0.852944,-0.728286 -1.574335,0.300091 -0.742157,1.057982 -2.90178,1.399762 -4.437373,0.702256 -0.43299,-0.196675 -1.103385,-0.616636 -1.489767,-0.933247 l -0.702512,-0.575655 -0.352417,0.331078 c -1.277031,1.199709 -3.794546,1.127687 -5.389669,-0.154188 l -0.639657,-0.514042 -0.361355,0.339475 c -0.987308,0.927528 -3.069389,1.314685 -4.289005,0.797529 -0.805784,-0.341678 -1.688426,-1.160198 -2.182954,-2.024367 -0.232298,-0.40593 -0.436788,-0.759297 -0.454422,-0.78526 -0.01764,-0.02596 -0.353744,0.0338 -0.746909,0.132796 -1.902147,0.478966 -3.63161,-1.024859 -3.640565,-3.165591 l -0.0035,-0.84 h -0.56796 c -0.826937,0 -1.462422,-0.39546 -1.847064,-1.149421 -0.463791,-0.909105 -0.381664,-2.454715 0.192029,-3.613937 l 0.410268,-0.829002 -0.626239,-0.414425 c -1.117912,-0.739799 -1.387602,-2.134737 -0.681718,-3.526098 0.219632,-0.432914 0.39914,-0.823117 0.398907,-0.867117 -2.33e-4,-0.044 -0.246302,-0.247423 -0.546819,-0.45205 -1.4363,-0.978006 -1.407445,-3.513061 0.05895,-5.179074 0.520628,-0.5915 0.584922,-0.745417 0.454849,-1.088875 -0.403123,-1.064445 0.395147,-2.969211 1.475311,-3.52027 0.683692,-0.348793 1.801651,-0.417437 2.49643,-0.153283 0.395773,0.150473 0.500427,0.105139 1.090416,-0.472345 1.727064,-1.690456 4.610709,-1.803793 6.233618,-0.245001 0.377671,0.36275 0.507806,0.408554 0.72,0.25342 1.430265,-1.045661 3.577715,-1.081077 4.686879,-0.0773 0.258322,0.233779 0.336788,0.202663 1.031908,-0.409206 1.409162,-1.240393 3.0002,-1.40725 4.793474,-0.502704 0.901245,0.454597 0.902592,0.454747 1.40772,0.156714 1.395289,-0.82324 3.395982,-1.049257 4.891361,-0.552574 0.9097,0.302155 2.04746,1.24436 2.48603,2.05874 0.29061,0.539623 0.33986,0.564223 0.95955,0.479285 0.58898,-0.08073 1.29075,0.03643 2.02657,0.338333 0.20654,0.08474 0.3737,-0.113351 0.76309,-0.904326 0.818,-1.661577 2.64147,-3.334425 4.21802,-3.869598 2.11619,-0.718357 5.16115,0.228273 6.21401,1.931836 0.28114,0.454888 0.38531,0.511782 0.75333,0.411436 0.23489,-0.06405 0.94082,-0.106978 1.56873,-0.0954 2.50786,0.04624 4.3022,1.506969 4.41941,3.597731 0.0342,0.610156 0.0875,0.699829 0.43893,0.73828 3.33389,0.364785 5.3636001,2.63469 4.40576,4.92713 -0.23368,0.559273 -0.23268,0.56218 0.41613,1.210994 1.2858701,1.285874 1.6629001,3.043014 0.9628901,4.487633 l -0.36319,0.749525 0.40302,0.610475 c 0.62547,0.947426 0.81385,2.098677 0.51284,3.134112 -0.13609,0.468148 -0.42969,1.022395 -0.65245,1.231661 -0.32885,0.308939 -0.40566,0.533187 -0.40852,1.192592 -0.006,1.464429 -0.8439101,2.716459 -2.2364801,3.343134 -0.76788,0.345557 -2.67548,0.463417 -3.60933,0.223 -0.44639,-0.114924 -0.5236,-0.07326 -0.88,0.47486 -0.84528,1.299997 -2.30013,1.692071 -3.78211,1.019257 l -0.67144,-0.30483 -0.18231,0.552409 c -0.63995,1.939073 -2.60424,2.53018 -4.72851,1.422935 -0.59232,-0.308739 -1.08355,-0.542739 -1.09163,-0.519999 -0.008,0.02274 -0.19467,0.396242 -0.41467,0.830007 -0.73783,1.454736 -1.84842,1.846006 -3.29058,1.159294 z m 1.65614,-0.759929 c 0.64416,-0.224553 0.92547,-0.679303 1.16109,-1.876957 l 0.19283,-0.980142 0.66945,0.548566 c 1.32955,1.089464 3.06525,1.512452 4.08626,0.995815 0.53809,-0.272276 1.07551,-1.110007 1.20544,-1.879037 0.0591,-0.34995 0.14003,-0.636273 0.17981,-0.636273 0.0398,0 0.36662,0.15015 0.72635,0.333667 0.35972,0.183517 1.0322,0.372698 1.4944,0.420401 1.1051,0.114055 1.72697,-0.243086 2.20552,-1.266627 0.24613,-0.526453 0.42608,-0.729633 0.59329,-0.669898 0.65971,0.235685 2.02723,0.393474 2.61683,0.301938 1.97581,-0.30675 3.19235,-1.530604 3.17738,-3.196494 -0.006,-0.663391 0.0654,-0.923542 0.31542,-1.149805 1.0998001,-0.995307 0.9972901,-2.844982 -0.23882,-4.309064 l -0.41867,-0.495882 0.47648,-0.456497 c 0.6568101,-0.629259 0.8622801,-1.461374 0.5702001,-2.309148 -0.3362401,-0.975937 -1.0105901,-1.86269 -1.7928801,-2.357609 l -0.69283,-0.438314 0.32708,-0.348164 c 0.1799,-0.19149 0.42232,-0.62499 0.53872,-0.963334 0.17784,-0.516926 0.17566,-0.701335 -0.0136,-1.154709 -0.1239,-0.296747 -0.22527,-0.554542 -0.22527,-0.572877 0,-0.01834 -0.306,-0.251178 -0.68,-0.517428 -0.81907,-0.583093 -1.93535,-0.959714 -3.26867,-1.102815 -0.96778,-0.103867 -0.98553,-0.114373 -0.84,-0.497141 0.30858,-0.811637 0.17806,-1.881605 -0.31206,-2.558197 -0.76719,-1.059081 -2.75822,-1.688943 -4.19526,-1.327171 -0.38721,0.09748 -0.86601,0.216664 -1.06401,0.264855 -0.24952,0.06073 -0.36,0.0156 -0.36,-0.147028 0,-0.428509 -0.93634,-1.535299 -1.6553,-1.956642 -1.16543,-0.682985 -2.26605,-0.838111 -3.52621,-0.497 -1.17402,0.31779 -1.90731,0.78719 -2.96502,1.897978 -0.87785,0.921896 -1.54343,2.04248 -1.796,3.023769 l -0.19323,0.750763 -0.44806,-0.377013 c -0.82184,-0.691534 -2.34925,-0.915396 -3.36099,-0.492598 -0.20215,0.08448 -0.28944,-0.0015 -0.36892,-0.363372 -0.20446,-0.930891 -0.96162,-1.877736 -1.85927,-2.325051 -1.581049,-0.787872 -4.043657,-0.450858 -5.238,0.716833 l -0.511349,0.499899 -0.315281,-0.400816 c -0.733887,-0.932985 -2.575397,-1.345686 -3.772577,-0.845473 -0.591887,0.247306 -1.515465,1.135361 -1.955507,1.880292 -0.144828,0.245175 -0.3018,0.445041 -0.348827,0.444146 -0.04703,-8.95e-4 -0.206904,-0.290648 -0.355284,-0.643895 -0.638994,-1.521251 -3.323235,-1.468741 -4.566449,0.08933 l -0.421346,0.528054 -0.427001,-0.665931 c -0.528549,-0.824301 -0.881406,-1.128892 -1.579299,-1.363274 -1.326373,-0.445453 -2.877517,-0.02603 -3.979628,1.076084 l -0.767544,0.767545 -0.422558,-0.315485 c -0.232406,-0.173516 -0.776613,-0.349505 -1.209348,-0.391085 -0.637992,-0.0613 -0.89712,-0.0041 -1.370161,0.302342 -1.019346,0.660394 -1.363892,1.966086 -0.774793,2.936158 l 0.290408,0.478216 -0.590017,0.427406 c -0.703199,0.509395 -1.29988,1.662146 -1.387159,2.679908 -0.08701,1.014593 0.354858,1.688527 1.413376,2.15568 0.745168,0.328863 0.787503,0.376061 0.528361,0.589041 -0.154943,0.127343 -0.485418,0.551629 -0.734388,0.942857 -0.642969,1.010353 -0.637059,2.088905 0.01502,2.740983 0.257231,0.257231 0.635231,0.468795 0.84,0.470142 0.204769,0.0013 0.477445,0.06895 0.605945,0.150232 0.201993,0.127766 0.197403,0.187822 -0.03389,0.443396 -0.367931,0.406558 -0.86604,1.570308 -1.079153,2.521262 -0.146906,0.655523 -0.132267,0.910675 0.08487,1.479237 0.144317,0.377891 0.395394,0.758253 0.557947,0.845249 0.377129,0.201834 1.138712,0.202674 1.666948,0.0018 l 0.411193,-0.156335 -0.101063,1.087399 c -0.184843,1.988834 0.792399,3.327095 2.316163,3.171817 0.38316,-0.03905 0.902244,-0.222992 1.153522,-0.408769 0.570945,-0.422118 0.629825,-0.421024 0.629825,0.01171 0,1.014286 1.321869,2.656725 2.500435,3.106824 1.170665,0.447081 2.681906,0.02432 3.827696,-1.070771 l 0.488131,-0.466533 0.551869,0.574518 c 1.479349,1.540063 3.606263,1.718101 5.113422,0.428029 l 0.66028,-0.565175 0.589084,0.57345 c 1.19197,1.160336 3.265868,1.733259 4.531838,1.251938 0.479013,-0.18212 1.344781,-1.138948 1.694911,-1.873178 l 0.254712,-0.534136 0.602462,0.684434 c 0.331354,0.376439 1.039274,0.917252 1.573154,1.201808 2.13333,1.137052 4.08655,0.4828 4.64386,-1.555514 0.11333,-0.41447 0.12673,-0.405029 0.53223,0.374822 0.64665,1.243656 1.31646,1.895206 2.3144,2.251309 0.74555,0.266041 0.69323,0.263736 1.28708,0.05672 z m 43.79085,-0.148574 c -2.47406,-0.356008 -4.80727,-2.58541 -5.3725699,-5.133546 l -0.20801,-0.937636 -0.92205,0.01298 c -1.15759,0.01629 -2.16153,-0.442417 -2.92797,-1.337831 -0.7917,-0.924925 -1.0912,-1.949984 -1.02106,-3.49463 l 0.0577,-1.269582 -0.48552,-0.160233 c -0.26703,-0.08813 -0.75566,-0.382915 -1.08584,-0.655081 -1.37837,-1.136166 -1.70128,-2.937663 -0.84316,-4.703895 0.54611,-1.124034 2.13187,-2.748954 3.11562,-3.192565 0.56894,-0.256555 0.67449,-0.383668 0.75937,-0.914477 0.0542,-0.339078 0.32371,-0.993248 0.59887,-1.453712 0.94803,-1.586482 2.74386,-2.262498 5.1342899,-1.932723 l 1.11603,0.153965 0.80564,-0.825188 c 1.2604,-1.290981 2.5213,-1.509689 4.15214,-0.720211 l 0.73883,0.357662 0.70123,-0.646365 c 1.42302,-1.311698 3.49134,-2.032804 5.48853,-1.91354 2.04429,0.122077 3.26747,1.006086 3.82076,2.761313 0.15437,0.489698 0.37428,0.885842 0.49176,0.885842 0.46645,0 1.72198,0.730235 2.53833,1.476329 1.27462,1.164935 1.87467,2.477993 1.9614,4.292037 0.0966,2.020069 -0.42249,3.569381 -1.79404,5.354825 -0.0913,0.118833 -0.022,0.355523 0.19075,0.651707 0.94061,1.309433 1.07791,4.07589 0.2804,5.649706 -0.42796,0.844544 -1.36936,1.863544 -1.86777,2.021732 -0.22313,0.07082 -0.30003,0.249062 -0.30003,0.695405 0,3.013079 -3.02889,5.310996 -6.72282,5.100377 -1.11197,-0.0634 -1.58415,-0.175915 -2.42762,-0.578466 -0.57593,-0.274866 -1.13384,-0.604222 -1.23981,-0.731903 -0.16437,-0.198061 -0.29567,-0.153525 -0.89416,0.303317 -1.06781,0.815079 -2.31856,1.103199 -3.83918,0.884387 z m 10.3395,-1.026283 c 2.52862,-0.767492 3.82409,-2.171249 3.82409,-4.143732 0,-0.850797 0.008,-0.864236 0.64563,-1.151977 1.74791,-0.788199 2.60029,-3.002914 2.06192,-5.357462 -0.20303,-0.887938 -0.70046,-1.639559 -1.33196,-2.012595 -0.4461,-0.26352 -0.4583,-0.294812 -0.17746,-0.455189 0.62439,-0.356559 1.41089,-1.327283 1.88962,-2.332216 0.43681,-0.91694 0.49643,-1.21039 0.50384,-2.48 0.007,-1.232233 -0.0524,-1.569739 -0.41322,-2.339201 -0.7724,-1.647306 -2.09751,-2.789994 -3.69837,-3.189245 -0.72477,-0.180756 -0.76,-0.215354 -0.76,-0.746367 0,-1.559596 -1.46068,-2.765186 -3.35026,-2.765186 -1.71475,0 -3.6133,0.798426 -5.07924,2.136055 -0.46778,0.42683 -0.8505,0.708845 -0.8505,0.626701 0,-0.241598 -1.9232,-1.162756 -2.42761,-1.162756 -0.77072,0 -1.46259,0.39086 -2.25812,1.275683 l -0.75675,0.841682 -0.70961,-0.178683 c -1.00597,-0.253307 -2.6467999,-0.221332 -3.4655299,0.06753 -1.29283,0.456139 -2.22238,1.71331 -2.22238,3.005673 0,0.691056 -0.0143,0.710111 -0.74376,0.988679 -0.88996,0.339882 -2.738,2.103759 -3.16201,3.018017 -0.34841,0.751254 -0.36144,2.149993 -0.0261,2.798541 0.34962,0.676084 1.13368,1.275603 1.81654,1.388974 0.99239,0.164761 0.9927,0.165039 0.82652,0.744459 -0.19655,0.685354 -0.19381,2.303078 0.005,2.996571 0.51182,1.784638 2.29087,2.821677 3.76357,2.193862 l 0.47988,-0.204574 0.19806,0.971791 c 0.6259999,3.071636 2.9033299,5.358897 5.4805999,5.504527 1.48297,0.08379 2.29508,-0.177817 3.12344,-1.006176 l 0.69346,-0.693457 0.37234,0.39865 c 1.11978,1.198903 3.92562,1.814627 5.74825,1.261418 z M 135.88824,-90.105616 c -1.00619,-0.361845 -1.78365,-0.848243 -2.62668,-1.643322 l -0.59707,-0.563117 -1.23304,0.219873 c -1.59113,0.283725 -2.43948,0.281374 -3.67611,-0.01019 -1.34525,-0.317169 -2.44056,-0.894322 -3.34883,-1.764605 -0.6712,-0.643121 -0.76871,-0.690047 -0.90865,-0.4373 -0.26258,0.474245 -0.96537,1.060634 -1.87478,1.564266 -0.80626,0.446511 -0.97817,0.478862 -2.54468,0.478862 -1.55651,0 -1.75907,-0.03746 -2.75573,-0.509597 -1.91048,-0.905033 -3.25898,-2.504166 -3.65027,-4.328718 l -0.17342,-0.808629 -0.61311,0.08224 c -0.39487,0.05296 -0.97856,-0.03938 -1.63983,-0.259437 -2.16686,-0.721086 -3.352,-2.8538 -2.86018,-5.14706 0.19219,-0.89616 1.01391,-2.76479 1.42139,-3.23231 0.22635,-0.2597 0.20594,-0.3269 -0.24296,-0.8 -0.7579,-0.79876 -1.0059,-1.42717 -1.00576,-2.54854 1.4e-4,-1.13705 0.60082,-2.63615 1.32246,-3.30045 l 0.40466,-0.3725 -0.3817,-0.6675 c -1.15258,-2.01559 0.23186,-4.48899 2.91738,-5.21213 0.6304,-0.16974 0.66641,-0.21319 0.77459,-0.93458 0.48991,-3.26696 3.96358,-4.38119 6.55774,-2.10348 l 0.56416,0.49534 0.88041,-0.80465 c 1.59473,-1.45749 3.77162,-2.15248 5.72716,-1.82844 1.34085,0.22219 2.72646,0.88795 3.65429,1.75584 l 0.74328,0.69524 1.01772,-0.63368 c 3.62489,-2.25703 8.18291,-1.78098 9.82819,1.02647 l 0.40419,0.6897 0.66807,-0.37947 c 0.94263,-0.53543 2.10639,-0.6493 3.24702,-0.3177 0.8831,0.25672 0.93069,0.25568 1.07987,-0.0237 0.35182,-0.65888 1.80701,-1.87443 2.8063,-2.34416 0.90694,-0.42633 1.2413,-0.49873 2.26408,-0.49028 3.01678,0.0249 5.43104,2.17356 5.49346,4.88904 0.0118,0.51323 0.0946,0.9332 0.184,0.93327 0.0894,7e-5 0.61034,0.21196 1.15764,0.47088 1.7128,0.81029 2.7649,2.17315 2.7649,3.58155 0,0.70498 -0.61058,2.0779 -1.19934,2.69676 -0.30836,0.32412 -0.56066,0.63601 -0.56066,0.69307 0,0.0571 0.24928,0.40796 0.55394,0.77976 0.7695,0.93908 1.49643,2.56865 1.62004,3.6317 0.21091,1.81384 -0.71849,3.56099 -2.42686,4.56216 -0.65506,0.38389 -0.66795,0.4078 -0.53302,0.9887 0.33366,1.436496 0.0813,3.529035 -0.58515,4.852505 -0.49992,0.992725 -1.7976,2.12742 -2.91668,2.550349 -1.29489,0.489371 -3.65711,0.386248 -5.13985,-0.22438 -0.56517,-0.232752 -1.07797,-0.423185 -1.13955,-0.423185 -0.0616,0 -0.15541,0.27 -0.20851,0.6 -0.20404,1.268075 -1.93782,2.594937 -3.39532,2.598437 -0.86857,0.0021 -2.12668,-0.384989 -2.85268,-0.877669 -0.32481,-0.220422 -0.61293,-0.400768 -0.64026,-0.400768 -0.0273,0 -0.25813,0.330678 -0.51289,0.734841 -0.50558,0.802059 -1.59124,1.672253 -2.44708,1.961406 -0.82199,0.277714 -2.38435,0.212404 -3.36629,-0.140718 z m 3.3018,-0.970782 c 0.66091,-0.245216 1.69792,-1.34386 2.1306,-2.257244 l 0.43227,-0.912497 0.42805,0.446782 c 0.93396,0.974846 3.01943,1.640096 4.11371,1.312242 0.72856,-0.218283 1.50714,-0.84181 1.82948,-1.465143 0.12884,-0.249148 0.23425,-0.846014 0.23425,-1.32637 v -0.873373 l 1.17133,0.606136 c 3.69771,1.913481 7.57125,0.773012 8.52571,-2.510185 0.25858,-0.889493 0.24874,-3.15137 -0.0174,-3.99099 -0.0934,-0.29481 -0.006,-0.39181 0.59348,-0.6569 1.64366,-0.72707 2.58861,-2.04992 2.59816,-3.6372 0.007,-1.18161 -0.74024,-2.87376 -1.89579,-4.29245 l -0.75648,-0.92876 0.72029,-0.63403 c 1.01193,-0.89074 1.38066,-1.549 1.38066,-2.46476 0,-0.862 -0.36771,-1.57851 -1.08054,-2.10553 -0.74279,-0.54917 -1.99209,-1.14596 -2.6443,-1.26319 -0.52806,-0.0949 -0.59066,-0.15204 -0.49313,-0.45 0.18702,-0.57133 0.10132,-1.74651 -0.17444,-2.39208 -0.38996,-0.91294 -1.42884,-1.94732 -2.35666,-2.34646 -0.67918,-0.29217 -1.04631,-0.34305 -2.11633,-0.29326 -0.8193,0.0381 -1.51343,0.16726 -1.89066,0.35174 -0.86164,0.42138 -1.98456,1.46047 -2.4659,2.28181 -0.379,0.64672 -0.44112,0.68947 -0.68332,0.47028 -1.14614,-1.03724 -3.38376,-0.94445 -4.80451,0.19923 l -0.3898,0.31378 -0.34537,-0.74316 c -0.83159,-1.78936 -2.02785,-2.55469 -4.21245,-2.695 -2.26562,-0.14552 -4.37046,0.55417 -5.87114,1.95167 -0.4229,0.39382 -0.77947,0.69897 -0.79239,0.6781 -0.0129,-0.0209 -0.1838,-0.3046 -0.37974,-0.63053 -1.10265,-1.83413 -4.15598,-2.83224 -6.51818,-2.13074 -1.03525,0.30744 -2.38389,1.25753 -3.07156,2.16388 -0.59865,0.78901 -0.82958,0.95254 -0.82958,0.58747 0,-0.32573 -1.2765,-1.61501 -1.93997,-1.95939 -0.32601,-0.16922 -0.88877,-0.2792 -1.42003,-0.27753 -1.12159,0.004 -1.93925,0.47176 -2.50263,1.4331 -0.3512,0.59927 -0.40455,0.85175 -0.34727,1.64355 l 0.0677,0.93551 -0.86072,0.10116 c -2.82628,0.33218 -4.2956,2.88328 -2.62011,4.54917 l 0.58307,0.57974 -0.67672,0.6207 c -1.52326,1.39714 -1.99825,3.66832 -1.00401,4.80069 0.26359,0.30022 0.69489,0.63517 0.95843,0.74433 l 0.47917,0.19848 -0.38369,0.45599 c -0.62658,0.74465 -1.32688,2.08212 -1.61697,3.08818 -0.61002,2.11561 -0.0133,3.75599 1.68478,4.631523 0.77266,0.398381 0.99896,0.442764 1.8704,0.366824 1.0843,-0.09449 1.0225,-0.144603 1.25794,1.019958 0.50333,2.489548 2.85236,4.445695 5.53093,4.605863 2.11652,0.126559 3.79078,-0.744167 4.49903,-2.339803 l 0.30802,-0.693939 0.48357,0.693939 c 1.12622,1.616141 3.21874,2.582189 5.58077,2.576458 0.79196,-0.0019 1.75606,-0.115077 2.28122,-0.267746 l 0.90956,-0.264417 0.97175,0.808693 c 2.00057,1.664896 3.87631,2.202029 5.53746,1.585699 z m -245.96057,-0.917711 c -0.62886,-0.29418 -1.82855,-1.508473 -1.83352,-1.855836 -0.001,-0.09416 -0.0657,-0.27111 -0.14305,-0.393222 -0.11447,-0.180746 -0.21068,-0.156117 -0.51755,0.132479 -1.15447,1.085715 -3.58503,1.086125 -5.10914,8.62e-4 -0.46919,-0.334092 -0.4731,-0.334187 -0.98943,-0.02408 -1.11629,0.67044 -2.6593,0.552261 -3.92277,-0.300444 -0.65968,-0.445218 -0.75313,-0.466029 -1.29281,-0.287918 -0.79417,0.2621 -2.21774,0.22073 -2.93685,-0.08535 -1.48179,-0.630707 -2.41185,-2.106308 -2.44326,-3.876409 -0.0159,-0.896381 -0.0618,-1.020234 -0.52189,-1.407343 -0.27745,-0.23346 -0.70533,-0.83505 -0.95085,-1.33688 -0.37942,-0.77549 -0.44366,-1.09795 -0.42812,-2.14887 0.0181,-1.22542 0.0134,-1.24015 -0.52325,-1.64952 -1.56956,-1.19716 -1.84672,-3.86378 -0.6143,-5.91042 0.46152,-0.76643 0.5131,-0.95479 0.38439,-1.4036 -0.21373,-0.74522 -0.18335,-1.71442 0.0813,-2.59381 l 0.22998,-0.76419 -0.47573,-0.4003 c -1.64919,-1.3877 -1.13709,-3.28929 1.37005,-5.08742 0.43615,-0.31281 0.44582,-0.34841 0.25322,-0.932 -0.933,-2.82702 2.69123,-4.83199 6.26121,-3.46378 l 0.85128,0.32626 0.23262,-0.36263 c 0.51516,-0.80304 1.57443,-1.68082 2.16118,-1.7909 1.18232,-0.2218 2.67809,0.43979 3.37492,1.49276 l 0.40156,0.6068 0.75486,-0.38827 c 0.90197,-0.46392 1.96585,-0.41693 2.88876,0.1276 l 0.57885,0.34152 0.24362,-0.36945 c 1.73864,-2.63663 4.36558,-2.51071 6.24363,0.29929 l 0.24,0.3591 0.8,-0.39553 c 1.0336,-0.51103 2.02658,-0.52258 2.879998,-0.0335 l 0.64,0.36677 0.699245,-0.3054 c 0.926659,-0.40472 2.329817,-0.40088 3.241511,0.009 1.021552,0.45912 1.450954,0.99888 1.541113,1.93718 l 0.0759,0.78988 0.741117,0.10856 c 0.820028,0.12012 1.822851,0.53931 2.392189,0.99996 0.556953,0.45063 0.64511,1.46491 0.193806,2.22982 l -0.355305,0.6022 0.410008,0.32692 c 0.810376,0.64618 1.220419,1.37651 1.220419,2.17372 0,0.63933 -0.08836,0.84791 -0.606605,1.4319 l -0.606604,0.68355 0.366604,0.72414 c 0.533224,1.05325 0.491885,2.00971 -0.129189,2.98904 l -0.495794,0.78178 0.417672,0.30426 c 0.578401,0.42133 1.167188,1.48119 1.383701,2.49075 0.227804,1.06222 0.0099,2.06801 -0.649621,2.99895 -0.451176,0.63683 -0.45793,0.67494 -0.244976,1.38253 0.264652,0.87937 0.12703,1.64128 -0.455449,2.52146 -0.37985,0.573996 -1.433213,1.421649 -2.039963,1.641586 -0.177998,0.06452 -0.236024,0.220916 -0.183637,0.494956 0.202998,1.06192 -0.703467,2.458375 -2.012116,3.099765 -1.130643,0.554146 -2.623922,0.610535 -3.672152,0.138667 l -0.680115,-0.306158 -0.515878,0.529802 c -0.283733,0.291391 -0.767879,0.636093 -1.075879,0.766005 -0.73652,0.310658 -2.07516,0.289971 -2.7171,-0.04199 -0.28195,-0.145803 -0.52395,-0.241787 -0.53777,-0.213298 -0.46839,0.965393 -0.76801,1.368285 -1.25945,1.6935 -0.79995,0.529381 -1.78347,0.614144 -2.61461,0.225334 z m 2.26866,-1.071241 c 0.34962,-0.266666 0.59236,-0.634157 0.71338,-1.08 0.10089,-0.371687 0.20574,-0.75742 0.233,-0.857185 0.0312,-0.11433 0.38773,-0.01082 0.96427,0.28 1.00494,0.506901 1.72487,0.576303 2.52223,0.243146 0.477173,-0.199377 1.277282,-0.976826 1.412084,-1.372096 0.03183,-0.09332 0.394949,-0.0023 0.855304,0.214441 1.082409,0.509549 1.801406,0.615112 2.771919,0.406974 0.986374,-0.211539 1.730854,-0.688527 2.239559,-1.434882 0.31806,-0.466647 0.365613,-0.691431 0.295368,-1.396193 -0.05491,-0.550864 -0.02368,-0.84 0.09071,-0.84 0.422799,0 1.809138,-1.085583 2.226226,-1.743265 0.557928,-0.87976 0.578957,-1.55122 0.07198,-2.29829 l -0.384243,-0.56622 0.538065,-0.52151 c 0.718756,-0.69665 1.030421,-1.39969 1.030421,-2.32438 0,-1.66359 -1.196454,-2.99899 -2.688168,-3.00036 -0.682047,-6.2e-4 -0.714196,-0.0167 -0.346356,-0.17333 1.236868,-0.52663 2.074524,-1.57655 2.074524,-2.60021 0,-0.61288 -0.667618,-1.93285 -1.118564,-2.21155 -0.120251,-0.0743 0.106584,-0.28663 0.618743,-0.57914 1.241237,-0.7089 1.45215,-1.38205 0.729767,-2.32915 -0.225529,-0.29568 -0.773952,-0.74544 -1.218718,-0.99945 -0.758093,-0.43297 -0.787673,-0.47308 -0.473,-0.64149 0.184616,-0.0988 0.510713,-0.43725 0.72466,-0.7521 0.323922,-0.4767 0.36243,-0.64865 0.230205,-1.02795 -0.224928,-0.64523 -1.277136,-1.1139 -2.751093,-1.22537 l -1.187469,-0.0898 0.222732,-0.53308 c 0.122503,-0.29319 0.222732,-0.70487 0.222732,-0.91484 0,-0.45281 -0.619357,-1.16775 -1.204286,-1.39014 -0.918911,-0.34936 -2.45291,-0.11319 -3.248199,0.50009 -0.366911,0.28294 -0.380758,0.27897 -0.925333,-0.26561 -0.477267,-0.47726 -0.658099,-0.55285 -1.32271,-0.55285 -0.62454,0 -0.954,0.11902 -1.74539,0.63052 l -0.97553,0.63051 -0.17291,-0.52394 c -0.26953,-0.81667 -1.10121,-1.83812 -1.77759,-2.18319 -0.34179,-0.17436 -0.93572,-0.3139 -1.33611,-0.3139 -0.88908,0 -1.64541,0.5989 -2.36376,1.87174 l -0.48015,0.85078 -0.31814,-0.40445 c -1.08145,-1.37485 -3.13441,-1.16778 -4.29409,0.43311 l -0.45359,0.62618 -0.10991,-0.73292 c -0.30239,-2.01651 -2.20927,-3.0512 -3.62838,-1.96879 -0.31414,0.23961 -0.72565,0.75478 -0.91447,1.14484 l -0.34331,0.70918 -0.91723,-0.47304 c -2.04832,-1.05641 -4.27994,-0.98026 -5.53325,0.18881 -0.59234,0.55253 -0.65566,0.68611 -0.65566,1.38308 0,0.54419 0.10622,0.9204 0.36054,1.27695 l 0.36055,0.50546 -0.68055,0.33037 c -0.98155,0.47648 -1.84256,1.237 -2.20519,1.94781 -0.5979,1.17199 -0.33011,2.03545 0.807,2.6021 l 0.75277,0.37512 -0.39768,0.6734 c -0.50646,0.85758 -0.57445,2.46525 -0.13278,3.13932 0.27834,0.4248 0.27601,0.44199 -0.11598,0.85722 -1.00888,1.06871 -1.44967,2.76886 -1.07684,4.15343 0.21437,0.79613 1.27089,1.9503 1.78528,1.9503 0.26114,0 0.30946,0.0631 0.21441,0.28 -0.0675,0.154 -0.15445,0.79006 -0.19326,1.41346 -0.0614,0.9864 -0.0165,1.24009 0.34597,1.95544 0.28515,0.56273 0.61525,0.93636 1.04657,1.1846 l 0.63004,0.3626 -0.0933,0.999009 c -0.11705,1.253485 0.19985,2.158579 1.03376,2.952514 1.00331,0.955201 2.39594,1.198399 3.63868,0.635425 0.63792,-0.288986 0.6413,-0.288704 1.04,0.08687 0.41998,0.395617 1.8773,1.010089 2.39558,1.010089 0.79547,0 1.76442,-0.735311 1.76442,-1.33897 0,-0.252441 0.1199,-0.178553 0.57719,0.355689 1.759,2.054995 4.53597,1.872032 5.71774,-0.376719 0.14713,-0.279969 0.25492,-0.372274 0.25866,-0.221497 0.004,0.142177 0.26586,0.777127 0.58298,1.411 0.98478,1.968469 2.43982,2.634638 3.68316,1.686292 z m 127.340274,-9.73712 c -0.44,-0.20801 -1.01142,-0.60325 -1.26982,-0.87832 -0.46786,-0.49803 -0.4712,-0.49881 -0.80218,-0.18787 -0.83027,0.78 -2.45936,1.02923 -3.7503,0.57376 -0.45385,-0.16013 -0.97968,-0.20414 -1.66944,-0.13973 -1.25849,0.11752 -2.53086,-0.22644 -3.7701,-1.01917 -0.81527,-0.52152 -0.90158,-0.54498 -1.05311,-0.28628 -0.6087199,1.03929 -1.7362499,1.82722 -2.6264899,1.83542 -1.33567,0.0123 -2.83485,-1.0949 -3.56109,-2.63003 -0.25147,-0.53155 -0.45728,-1.09687 -0.45735,-1.25626 -10e-5,-0.25101 -0.0927,-0.27592 -0.6915,-0.18612 -1.04289,0.15639 -1.89995,-0.14287 -2.58693003,-0.90327 -0.79801,-0.88331 -1.04169,-1.53261 -1.04169,-2.77567 v -1.04513 h -0.53484 c -0.73366997,0 -1.87984997,-0.63889 -2.23396997,-1.24522 -0.64251,-1.10013 -0.45781,-3.16724 0.39132,-4.37948 0.38356,-0.54758 0.38225,-0.55652 -0.17462,-1.19076 -0.9531,-1.08552 -0.7301,-2.70556 0.53263,-3.8695 0.37563,-0.34625 0.76692,-0.65778 0.86955,-0.69229 0.13868,-0.0466 0.14284,-0.221 0.0162,-0.67911 -0.54344,-1.96611 1.62038997,-4.41984 3.32585,-3.77143 0.22531,0.0857 0.62701,0.31052 0.89267,0.49969 l 0.48302,0.34394 0.25608,-0.33195 c 0.14085,-0.18258 0.44337,-0.57387 0.67228,-0.86954 0.22891,-0.29567 0.7979,-0.74534 1.26444,-0.99926 1.70496,-0.92795 3.97305,-0.48851 5.3510399,1.03675 l 0.58029,0.64231 1.06163,-0.52263 c 1.69027,-0.83212 3.56946,-0.70306 4.74081,0.3256 0.27481,0.24133 0.31578,0.2292 0.61553,-0.18229 0.17662,-0.24246 0.62014,-0.64204 0.9856,-0.88796 1.92081,-1.29251 4.98935,-1.07958 5.94447,0.4125 0.31897,0.4983 0.3236,0.49963 1.44,0.41363 1.49625,-0.11527 2.7203,0.33206 3.76364,1.37539 0.80007,0.80007 1.01833,1.40771 0.8604,2.39535 -0.0821,0.51324 -0.0446,0.61377 0.28506,0.76395 1.64467,0.74936 2.8548,3.16916 2.19833,4.3958 -0.1478,0.27615 -0.0793,0.40852 0.47683,0.92197 1.8536,1.71124 1.90358,4.79961 0.10671,6.59416 l -0.70128,0.70038 0.17035,0.80873 c 0.22399,1.06345 0.0639,1.62193 -0.66318,2.31359 -0.67344,0.64063 -1.56002,0.96044 -2.98621,1.07721 l -0.96935,0.0794 -0.26827,0.75532 c -0.36362,1.02381 -1.44147,2.20839 -2.42693,2.66729 -1.04079,0.48465 -2.01685,0.48375 -3.0461,-0.003 z m 2.52514,-0.95422 c 0.99215,-0.41535 2.19486,-2.0798 2.19486,-3.03751 0,-0.37072 0.0487,-0.38613 1.48,-0.46805 0.814,-0.0466 1.74335,-0.19859 2.06522,-0.33777 1.14539,-0.4953 1.51119,-1.41773 1.02431,-2.58299 l -0.23047,-0.5516 0.91673,-0.92326 c 1.00317,-1.01034 1.30657,-1.71522 1.3007,-3.02184 -0.002,-0.42979 -0.13468,-1.06943 -0.295,-1.42143 -0.30998,-0.68063 -1.36913,-1.73834 -1.91382,-1.91122 -0.32377,-0.10276 -0.32302,-0.1109 0.0623,-0.67872 0.47599,-0.70143 0.48617,-1.0304 0.0591,-1.91252 -0.38071,-0.78644 -1.14391,-1.50727 -2.11358,-1.99623 -0.37155,-0.18736 -0.6945,-0.35674 -0.71765,-0.37641 -0.0232,-0.0197 0.0668,-0.29651 0.2,-0.6152 0.34589,-0.82784 0.3013,-1.29479 -0.17803,-1.86445 -1.03413,-1.229 -2.95281,-1.66283 -4.58464,-1.03664 -0.18815,0.0722 -0.32123,-0.049 -0.48546,-0.44205 -0.4822,-1.15406 -1.56356,-1.67298 -3.19719,-1.53427 -1.52481,0.12948 -2.72769,0.993 -3.48295,2.50033 l -0.37448,0.74738 -0.10871,-0.52656 c -0.21792,-1.05557 -1.17951,-1.68519 -2.54135,-1.664 -1.13538,0.0177 -2.12339,0.37228 -2.96992,1.06594 l -0.67263,0.55118 -0.2793,-0.61937 c -0.7716499,-1.71123 -2.7020999,-2.50385 -4.5286599,-1.8594 -0.35511,0.12529 -0.69416,0.17929 -0.75345,0.12 -0.0593,-0.0593 -0.0838,-0.0294 -0.0545,0.0664 0.0293,0.0958 -0.16559,0.35954 -0.43316,0.58602 -0.26756,0.22648 -0.66356,0.76342 -0.88,1.19319 l -0.39351,0.7814 -0.90754,-0.70342 c -1.39115,-1.07826 -2.47076003,-0.92688 -3.17040003,0.44454 -0.38921,0.76292 -0.40693997,1.36182 -0.0646,2.18125 0.23987,0.57408 0.23866,0.62747 -0.0177,0.77954 -1.36275997,0.80846 -2.15982997,1.80314 -2.15982997,2.69529 0,0.515 0.53082,1.16113 1.22421,1.49017 l 0.56599,0.26858 -0.51706,0.48324 c -0.81984,0.7662 -1.3228,2.03114 -1.24351,3.12739 0.10663,1.47406 0.75462,2.09848 2.17789997,2.09868 l 0.75247,1e-4 0.001,1.3999 c 0.001,1.54714 0.26198,2.18694 1.22009003,2.99314 0.59438,0.50014 1.58924,0.54557 2.31084,0.10554 l 0.49199,-0.30002 0.1872,0.90635 c 0.54038,2.61626 2.94502,4.40035 4.50882,3.34526 0.31346,-0.2115 0.77131,-0.77088 1.04,-1.27063 l 0.4799999,-0.8928 0.48,0.46215 c 1.22114,1.17574 3.59902,1.86007 4.93325,1.41973 0.47501,-0.15677 0.65323,-0.14261 1.09695,0.0871 0.66348,0.34355 2.14516,0.34841 2.80113,0.009 0.26464,-0.13685 0.70371,-0.50228 0.9757,-0.81206 0.43203,-0.49206 0.50637,-0.52595 0.5882,-0.26814 0.13985,0.44063 1.18704,1.462 1.75047,1.7073 0.64108,0.27911 1.72854,0.28469 2.37944,0.0122 z m -87.005144,-5.05938 c -0.702444,-0.16025 -1.097702,-0.40632 -1.634201,-1.01736 -0.43901,-0.5 -0.509462,-0.52756 -0.861943,-0.33715 -1.102508,0.59558 -3.085105,0.3811 -4.532175,-0.49028 l -0.831097,-0.50046 -0.617947,0.41009 c -1.533418,1.01762 -3.702473,0.17837 -4.715742,-1.82461 -0.279274,-0.55206 -0.395378,-0.63728 -0.891692,-0.65451 -0.614649,-0.0213 -1.229599,-0.40166 -1.727267,-1.06824 -0.421833,-0.565 -0.43763,-1.93402 -0.03268,-2.83204 0.199137,-0.44161 0.246992,-0.71209 0.138474,-0.78267 -0.271859,-0.1768 -0.533733,-0.77798 -0.533733,-1.22527 0,-0.54659 0.335259,-1.17215 0.932384,-1.73974 0.440664,-0.41886 0.474538,-0.52609 0.404381,-1.28 -0.05973,-0.64185 -0.0056,-0.9355 0.246256,-1.33507 0.529235,-0.83974 1.149138,-1.06209 2.692529,-0.96581 1.242624,0.0775 1.34368,0.0601 1.507722,-0.25943 0.307766,-0.59955 0.972699,-1.20958 1.512705,-1.3878 0.621176,-0.20501 1.653342,0.022 2.347376,0.51614 l 0.446287,0.31779 0.626819,-0.6459 c 1.535168,-1.58188 3.673248,-1.84443 5.065502,-0.62201 0.505381,0.44373 0.568788,0.46102 0.828508,0.22598 0.54908,-0.49691 1.485887,-0.76451 2.676423,-0.76451 1.252486,0 1.9031,0.22606 2.644933,0.91899 l 0.411824,0.38467 1.013962,-0.52294 c 0.864873,-0.44605 1.18073,-0.52294 2.148176,-0.52294 1.36226,0 1.963232,0.34314 2.483592,1.41806 l 0.336843,0.69583 0.624588,-0.16671 c 0.591512,-0.15789 1.503515,-0.0459 2.260692,0.27772 0.1721,0.0735 0.307096,-0.0145 0.427597,-0.27902 0.09685,-0.21257 0.408365,-0.65103 0.69225,-0.97436 1.33432,-1.5197 3.197838,-1.65608 4.728346,-0.34602 l 0.645716,0.55271 0.457556,-0.30015 c 1.110608,-0.72855 2.701758,-0.52362 3.737308,0.48134 l 0.61428,0.59614 0.62272,-0.37695 c 0.96547,-0.58442 2.20565,-0.47566 2.93905,0.25773 0.29718,0.29719 0.37149,0.30765 0.76639,0.10786 0.9022,-0.45645 2.00858,-0.61616 2.83204,-0.40881 0.7914,0.19928 1.84525,0.97129 1.84525,1.35177 0,0.33327 0.16991,0.36502 1.19459,0.2232 2.52158,-0.349 3.9778,0.95414 3.46652,3.1021 -0.24809,1.04228 -0.24866,1.16514 -0.009,1.95402 0.11156,0.36746 0.14967,0.89477 0.0883,1.22184 -0.15414,0.82168 -1.18936,1.92801 -2.2356,2.38919 -0.8197,0.36131 -0.87775,0.42557 -1.04728,1.1593 -0.23735,1.02721 -0.7206,1.6746 -1.52154,2.03835 -0.75643,0.34353 -2.32748,0.40268 -3.14312,0.11835 -0.39154,-0.13649 -0.55102,-0.13855 -0.59465,-0.008 -0.35561,1.06683 -1.6935,1.95419 -2.94637,1.95419 -0.85081,0 -2.14524,-0.38359 -2.57267,-0.76238 -0.15454,-0.13695 -0.30386,-0.21944 -0.33182,-0.18331 -0.028,0.0361 -0.2061,0.29081 -0.39587,0.56596 -0.48611,0.70483 -1.24885,1.01973 -2.46996,1.01973 -0.832588,0 -1.221217,-0.0954 -2.025507,-0.49733 -0.873394,-0.43644 -1.018546,-0.46753 -1.185556,-0.25393 -0.396089,0.50659 -1.308729,0.91006 -2.059895,0.91066 -0.974472,7.7e-4 -1.411224,-0.17642 -2.207083,-0.89543 l -0.653395,-0.5903 -0.354969,0.32317 c -1.149797,1.04679 -3.090941,1.20626 -4.290038,0.35242 l -0.469215,-0.33411 -0.473793,0.39868 c -1.150013,0.96767 -2.849172,0.96936 -4.76507,0.005 -0.639731,-0.3221 -1.183522,-0.55704 -1.208426,-0.52211 -0.0249,0.0349 -0.162095,0.25076 -0.30487,0.47961 -0.437736,0.70161 -1.798951,1.16905 -2.763557,0.94899 z m 1.645679,-1.23152 c 0.201124,-0.12561 0.517037,-0.53991 0.70203,-0.92068 l 0.33635,-0.69231 0.675027,0.45557 c 1.190266,0.8033 2.158129,1.14407 3.308026,1.16471 1.194779,0.0215 1.776604,-0.27208 2.212888,-1.11639 0.132,-0.25545 0.253561,-0.49002 0.270136,-0.52126 0.01657,-0.0312 0.25393,0.19809 0.527456,0.50962 0.638917,0.72768 1.697482,1.14497 2.515506,0.99161 0.973382,-0.18249 1.467076,-0.57473 1.956733,-1.55462 l 0.456351,-0.91324 0.174509,0.69304 c 0.199736,0.79322 0.955703,1.55218 1.835172,1.84243 0.848578,0.28006 1.73851,-0.0145 2.352577,-0.7786 l 0.495033,-0.616 0.79979,0.53822 c 0.990152,0.66632 1.917166,0.92697 2.844691,0.79984 0.80032,-0.1097 1.35763,-0.42012 1.61389,-0.89894 0.14302,-0.26724 0.0833,-0.44843 -0.34353,-1.04283 -0.36412,-0.50702 -0.46654,-0.7695 -0.34693,-0.8891 0.1196,-0.1196 0.42003,0.0526 1.01765,0.5834 1.09123,0.96916 2.24755,1.50839 3.23891,1.51041 1.22635,0.002 1.96516,-0.50697 2.36071,-1.62789 0.20723,-0.58725 0.20975,-0.58856 0.67168,-0.34969 0.25502,0.13188 0.94883,0.28045 1.5418,0.33016 1.9233,0.16125 3.01461,-0.61843 3.13557,-2.24018 0.0459,-0.61604 0.0934,-0.66979 0.95439,-1.08019 1.95164,-0.93032 2.6069,-2.2389 1.65086,-3.29688 -0.31108,-0.34426 -0.31083,-0.34902 0.0446,-0.82974 0.20865,-0.28221 0.38834,-0.8048 0.43163,-1.25528 0.0653,-0.67959 0.0218,-0.82417 -0.36432,-1.21027 -0.38646,-0.38645 -0.55975,-0.43847 -1.46066,-0.43847 -0.59862,0 -1.38516,0.12757 -1.89818,0.30789 l -0.876,0.30789 v -0.52632 c 0,-1.62455 -2.11312,-2.15716 -4.11703,-1.03768 l -0.83703,0.4676 -0.10095,-0.40222 c -0.11973,-0.47703 -0.7799,-1.03716 -1.22239,-1.03716 -0.47458,0 -1.36458,0.46845 -1.83309,0.96484 l -0.41731,0.44211 -0.39463,-0.79192 c -0.81891,-1.64334 -2.43361,-1.9547 -3.924335,-0.75671 -0.423977,0.34072 -0.675408,0.45523 -0.718129,0.32706 -0.123609,-0.37082 -0.872753,-1.15663 -1.326242,-1.39114 -0.630434,-0.32601 -1.573428,-0.29126 -2.18305,0.0804 -0.630797,0.38461 -1.54585,1.61754 -1.822379,2.45543 l -0.205338,0.62218 -0.421984,-0.51704 c -0.666411,-0.81652 -1.99065,-0.83243 -3.365892,-0.0404 -0.04937,0.0284 -0.214189,-0.34306 -0.366274,-0.82553 -0.350316,-1.11132 -1.055531,-1.84928 -1.767238,-1.84928 -1.05593,0 -2.225528,0.48035 -2.916052,1.1976 l -0.659319,0.68485 -0.255317,-0.53541 c -0.140425,-0.29447 -0.558572,-0.73602 -0.929216,-0.98122 -0.58373,-0.38617 -0.825293,-0.44439 -1.805364,-0.43517 -1.281814,0.0121 -2.20333,0.38827 -2.835056,1.15738 l -0.376409,0.45827 -0.324245,-0.63643 c -0.37022,-0.72668 -1.171985,-1.22987 -1.959633,-1.22987 -0.999747,0 -2.636068,1.09317 -3.174171,2.12056 l -0.230747,0.44055 -0.499353,-0.56873 c -1.444549,-1.64524 -2.949209,-1.30479 -3.402457,0.76986 -0.09577,0.43837 -0.100925,0.44001 -0.588416,0.18792 -0.670601,-0.34678 -2.015395,-0.5409 -2.595206,-0.37461 -1.194043,0.34245 -1.587896,1.44954 -0.834295,2.34514 l 0.391477,0.46524 -0.627637,0.27692 c -1.277759,0.56374 -1.695078,1.76658 -0.801454,2.31002 l 0.473863,0.28818 -0.412407,0.57962 c -1.15108,1.6178 -0.270781,3.79911 1.34468,3.33202 0.286,-0.0827 0.525351,-0.13738 0.53189,-0.12152 0.0065,0.0159 0.04252,0.19366 0.07995,0.39511 0.257301,1.38463 1.617699,2.59372 2.918304,2.59372 0.60451,0 0.794602,-0.0873 1.305872,-0.6 l 0.598374,-0.6 0.267072,0.35575 c 0.676047,0.90054 2.798553,1.62388 4.113229,1.40176 0.341569,-0.0577 0.884628,-0.2838 1.206797,-0.50243 0.461124,-0.31293 0.614259,-0.35257 0.719685,-0.1863 0.07366,0.11617 0.135025,0.26649 0.136373,0.33404 0.0013,0.0675 0.259989,0.37293 0.574759,0.67862 0.881194,0.85575 1.85184,1.01514 2.75337,0.45211 z" id="path1"/>
    <path style="fill:#ff2a2a;stroke-width:2.20961" d="m 87.446296,81.700428 c 0.980504,-3.742393 3.299971,-7.960516 5.833759,-10.609201 l 1.095067,-1.144724 -1.601059,-0.895888 c -4.032126,-2.256199 -5.568855,-6.228664 -4.184394,-10.816654 0.796873,-2.640673 2.104461,-4.705299 4.324949,-6.828892 l 2.028521,-1.93999 -1.202486,-1.320252 c -2.544415,-2.793641 -2.980394,-5.606148 -1.323742,-8.539451 1.738416,-3.078073 5.399927,-5.143073 10.307859,-5.81337 l 2.56586,-0.350435 0.22395,-1.442337 c 0.30968,-1.993517 1.40551,-3.750092 3.26341,-5.231096 2.05692,-1.639658 3.68148,-2.208358 6.92454,-2.424069 3.90557,-0.259775 7.27923,0.595245 11.34228,2.874607 0.69475,0.389746 0.97286,0.30745 2.54936,-0.754335 1.90689,-1.284285 3.77881,-1.878076 5.92986,-1.881024 1.90871,-0.0021 3.57912,0.557076 6.06518,2.032144 l 2.15118,1.276397 1.17854,-1.293998 c 1.17525,-1.290344 4.48191,-3.062319 6.4952,-3.480604 1.95587,-0.406371 5.46871,0.469385 8.0798,2.014295 l 2.4313,1.438497 1.53374,-1.353275 c 2.25865,-1.992896 4.10894,-2.713338 7.40616,-2.88374 3.37227,-0.174346 6.53481,0.635325 9.68203,2.478531 l 2.00701,1.175422 1.45813,-0.89157 c 2.0012,-1.223657 4.55769,-1.842294 7.61312,-1.842294 h 2.57479 v -1.029097 c 0,-2.449619 3.07697,-5.781614 6.2085,-6.723079 4.92859,-1.481752 10.70982,0.06828 15.24885,4.088593 1.14076,1.010416 2.41102,2.259104 2.82279,2.774855 l 0.74863,0.937772 1.84149,-1.520127 c 3.03529,-2.505556 6.85309,-3.125022 11.2342,-1.822784 2.5706,0.764091 3.91898,1.490095 6.01561,3.239051 1.28493,1.071853 1.45752,1.126793 2.07004,0.65911 2.01547,-1.538912 6.98397,-1.735092 9.99598,-0.394706 1.07989,0.480572 2.10336,1.040968 2.27437,1.245326 0.22324,0.266749 0.36679,0.24921 0.50887,-0.06206 0.52617,-1.152986 2.72606,-3.233553 4.07305,-3.852107 2.81192,-1.291277 7.43112,-0.657552 10.05898,1.380029 0.58399,0.452802 0.83838,0.432108 2.51618,-0.204855 3.94991,-1.49927 9.47113,-0.595971 13.69614,2.240735 4.14584,2.783554 6.76772,7.332772 7.2663,12.607766 l 0.24406,2.582121 1.73958,0.549065 c 3.15665,0.996324 5.75137,3.445195 7.06886,6.67142 0.74245,1.818114 0.70595,8.655163 -0.0598,11.169995 -0.7307,2.40022 -0.71091,2.988783 0.10045,2.988783 0.36595,0 1.28016,0.368616 2.03156,0.819134 3.87643,2.324152 4.58754,7.601679 1.54927,11.498035 -1.24934,1.602195 -4.37118,4.287185 -4.98472,4.287185 -0.20842,0 0.45172,1.008707 1.46699,2.241589 2.99902,3.641844 4.0673,7.53947 2.96013,10.800046 -0.53103,1.563844 -3.42661,4.483129 -5.35615,5.400004 -0.74567,0.354311 -1.27788,0.795705 -1.18268,0.980858 1.89767,3.691571 2.18265,4.676661 2.01354,6.960501 -0.1696,2.2901 -1.11071,4.55319 -2.45485,5.90289 -0.51622,0.51837 -0.45454,0.68684 0.66273,1.8096 2.06464,2.0748 2.80572,3.90191 2.80572,6.91725 0,3.24462 -0.81468,5.02146 -3.43611,7.49423 -2.13239,2.01147 -4.79875,3.2986 -6.83318,3.2986 -1.34158,0 -1.51658,0.10899 -2.1434,1.33552 -0.81705,1.59869 -3.45947,3.8299 -5.38236,4.54479 -1.29091,0.4799 -4.48791,0.70392 -5.66398,0.39686 -0.34831,-0.0909 -0.71442,0.50228 -1.14732,1.85896 -0.9351,2.93071 -2.80089,5.77582 -5.22338,7.965 -3.84372,3.47357 -7.75209,4.35661 -11.66591,2.63576 -1.81197,-0.7967 -5.35145,-3.78711 -5.35145,-4.52129 0,-0.17849 -0.76784,0.27198 -1.70633,1.00085 -3.89174,3.02257 -8.04241,3.67917 -11.81257,1.86863 -1.1134,-0.5347 -2.46494,-1.45935 -3.0034,-2.05479 -0.53846,-0.59542 -1.1017,-1.08262 -1.25162,-1.08262 -0.14985,-3e-5 -0.52375,0.42847 -0.83069,0.95218 -0.98785,1.68554 -4.49201,4.5455 -6.69709,5.46594 -4.59977,1.92 -8.74396,0.80251 -12.95406,-3.49308 l -1.18311,-1.20712 -1.34317,1.71471 c -1.93814,2.47418 -5.61769,5.63036 -7.76782,6.6629 -3.76748,1.80927 -7.10611,1.40301 -10.46343,-1.27322 l -1.52435,-1.21513 -2.45378,1.48225 c -6.57953,3.97452 -14.59425,2.44647 -20.75228,-3.95654 l -1.93021,-2.00698 -1.48089,0.58688 c -1.65102,0.65434 -4.8448,0.78514 -6.4034,0.2623 -0.5608,-0.18805 -1.64992,-0.78253 -2.42029,-1.32089 l -1.40066,-0.9788 -0.70931,0.70489 c -1.16957,1.16231 -3.78562,2.03107 -5.34088,1.77364 -2.23672,-0.37023 -4.12036,-1.41319 -5.66371,-3.13594 l -1.45961,-1.62927 -1.77211,1.58745 c -3.47142,3.10972 -7.64431,4.07197 -10.25972,2.36584 l -1.19089,-0.77686 -1.43697,0.99862 c -0.79034,0.54928 -2.36848,1.42436 -3.50702,1.94464 -1.86404,0.85187 -2.44455,0.94707 -5.83377,0.95665 -3.54766,0.01 -3.8937,-0.0517 -6.02835,-1.07369 -1.24555,-0.59636 -2.95664,-1.64244 -3.80244,-2.3246 l -1.53782,-1.24031 h -4.29746 c -4.120099,0 -4.403927,-0.0462 -6.87653,-1.12027 -4.92759,-2.14041 -6.819944,-4.59924 -6.805189,-8.84234 0.01165,-3.10223 0.789159,-4.93524 3.021516,-7.11544 l 1.421867,-1.38866 -1.404652,-1.20382 c -2.122531,-1.81903 -2.631201,-2.9052 -2.617766,-5.58979 0.01411,-2.67401 1.103688,-4.87915 3.371329,-6.81841 l 1.272007,-1.08782 -0.891271,-0.51919 c -1.674229,-0.97531 -3.611394,-3.38661 -4.230642,-5.26609 -1.123491,-3.40995 -0.06821,-8.916718 2.318549,-12.098989 0.510948,-0.681255 0.928975,-1.363613 0.928975,-1.516329 0,-0.152765 -0.575939,-0.520045 -1.279902,-0.816226 -0.703925,-0.296205 -1.748784,-1.08096 -2.321914,-1.743962 -0.89606,-1.036557 -1.057078,-1.56279 -1.149715,-3.757087 -0.05928,-1.403416 0.107432,-3.373588 0.370821,-4.378141 z m 1.729226,5.450211 c 0.187708,0.714536 0.849618,1.747447 1.470652,2.295392 0.914155,0.806591 1.527811,1.025435 3.223229,1.149494 l 2.094132,0.153174 -1.095106,1.100478 c -0.602279,0.605269 -1.7051,2.193293 -2.45069,3.528944 -3.445056,6.171529 -2.346481,11.922669 2.842764,14.881979 1.832555,1.04508 2.10705,1.31276 1.515929,1.4783 -1.472555,0.41239 -4.485489,3.66141 -5.106574,5.50675 -0.70012,2.08019 -0.716778,2.41282 -0.202542,4.04627 0.501163,1.59215 1.959687,3.10774 3.778781,3.92658 l 1.442422,0.64928 -1.798772,1.48457 c -3.262888,2.69295 -4.789197,6.61229 -3.819139,9.80705 1.260163,4.15021 9.384942,7.4633 14.494112,5.91033 l 1.5055,-0.45759 2.02771,1.79606 c 2.91212,2.5795 5.45739,3.54822 9.26346,3.52563 3.77996,-0.0225 5.77327,-0.76733 8.66399,-3.23776 l 2.09833,-1.79326 1.23963,1.09376 c 0.68179,0.60157 1.692,1.19395 2.24492,1.3164 1.62377,0.35958 4.76248,-1.21607 7.31118,-3.67028 l 2.20382,-2.12207 0.60297,0.90066 c 1.00304,1.49823 3.69368,4.03554 4.82842,4.55331 0.58704,0.26785 1.74607,0.48697 2.57567,0.48697 1.23831,0 1.76382,-0.22293 2.93557,-1.24532 0.78499,-0.68493 1.61904,-1.5442 1.85344,-1.9095 0.41259,-0.643 0.45346,-0.63393 1.28239,0.2848 0.47089,0.52197 1.53246,1.38124 2.35897,1.90951 2.35324,1.50411 5.84937,1.23866 8.26095,-0.62724 0.36353,-0.28125 0.71983,-0.45003 0.79177,-0.37504 0.072,0.0749 0.58123,0.8253 1.13177,1.66737 1.40973,2.15624 4.93571,5.0092 7.78842,6.30178 2.12514,0.96291 2.77737,1.09742 5.29403,1.09193 3.41349,-0.009 5.9611,-0.94315 8.88637,-3.26375 l 1.8263,-1.4488 1.83509,1.83649 c 2.15028,2.15196 3.86395,2.90387 5.948,2.60982 1.64371,-0.2319 2.66649,-0.74589 5.31551,-2.67124 1.66457,-1.20985 6.6705,-6.52487 7.11943,-7.55907 0.12116,-0.27891 0.41338,-0.14092 0.86715,0.40949 1.4483,1.75661 4.16854,4.12898 5.77147,5.03344 2.31402,1.30566 4.76833,1.29697 7.38272,-0.0262 2.11055,-1.06814 5.73224,-4.33878 7.03689,-6.3548 0.98135,-1.51646 1.15163,-1.57258 1.67813,-0.55299 1.1022,2.13444 4.18759,4.33039 6.65916,4.73951 2.87524,0.47594 7.00395,-1.45134 9.43381,-4.40371 0.62626,-0.76091 1.22335,-1.39208 1.32686,-1.40256 0.10355,-0.01 0.75955,0.95588 1.4579,2.14752 2.21667,3.78247 5.49005,5.56347 8.79825,4.78705 4.75734,-1.11656 10.44431,-8.1431 10.44431,-12.90451 v -1.32015 l 1.74992,0.68298 c 3.83782,1.4979 7.68566,0.0662 9.72868,-3.61969 l 1.12988,-2.03846 1.88185,-0.0249 c 4.7701,-0.0631 9.26634,-4.38734 9.34211,-8.98495 0.0395,-2.39593 -1.03973,-4.47368 -3.53078,-6.79768 l -1.94638,-1.81586 0.97081,-0.39028 c 1.37733,-0.55371 2.77833,-2.49273 3.27215,-4.52873 0.67314,-2.77538 -0.42116,-6.12171 -2.82681,-8.644266 l -0.96503,-1.011931 1.8868,-0.357038 c 3.38051,-0.639679 5.87288,-2.698955 6.75163,-5.5784 0.47014,-1.540545 0.10239,-3.592803 -1.05957,-5.910192 -0.62866,-1.253986 -3.83631,-5.033914 -4.70562,-5.545205 -0.45272,-0.26626 -0.50468,-0.227374 1.46726,-1.097341 1.95774,-0.863704 5.0969,-3.627347 6.03536,-5.313394 0.50738,-0.911559 0.73934,-2.013734 0.73934,-3.512754 0,-1.881127 -0.14631,-2.353791 -1.05447,-3.404244 -1.23964,-1.434035 -2.78594,-2.215394 -4.38423,-2.215394 -1.35419,0 -1.34259,0.07741 -0.38952,-2.605203 1.16998,-3.293244 1.67944,-7.983973 1.13493,-10.449365 -1.04528,-4.732634 -4.84771,-8.199 -8.99387,-8.199 -0.75524,0 -0.80317,-0.163967 -0.80317,-2.746898 0,-3.153042 -0.89189,-6.399587 -2.36911,-8.623678 -2.69688,-4.060384 -9.35097,-7.392712 -13.42101,-6.721149 -1.70434,0.281215 -4.13843,1.388974 -4.40652,2.00537 -0.16303,0.374967 -0.56073,0.21019 -1.71689,-0.711456 -1.89994,-1.514503 -3.56558,-2.131147 -5.75644,-2.131147 -3.26691,0 -5.24675,1.615686 -6.45606,5.268539 l -0.69971,2.113735 -1.29682,-1.67677 c -1.47564,-1.908007 -3.32849,-2.962258 -5.71302,-3.250634 -2.96531,-0.358612 -5.63025,0.670111 -6.91519,2.669398 -0.34247,0.532855 -0.5129,0.426213 -1.483,-0.927955 -1.30476,-1.82131 -3.32485,-3.319458 -5.76109,-4.27263 -2.21794,-0.867764 -6.48399,-0.956827 -8.17662,-0.170818 -1.25054,0.580799 -3.36197,2.462758 -4.71302,4.200859 l -0.87921,1.131047 -0.9594,-1.791527 c -1.36582,-2.550449 -5.34228,-6.012061 -8.3469,-7.266228 -4.27754,-1.785509 -9.32635,-1.242173 -11.71304,1.260519 -1.27332,1.335176 -1.91542,3.082203 -1.73759,4.727507 l 0.14137,1.308029 -1.32737,-0.250208 c -4.32087,-0.814463 -9.17069,0.419031 -11.19506,2.847376 -0.55916,0.670753 -1.03662,1.256015 -1.06099,1.300578 -0.0245,0.04463 -0.86015,-0.608674 -1.85728,-1.451656 -2.05976,-1.741403 -4.75918,-2.942478 -7.84014,-3.48843 -3.84382,-0.681109 -7.66193,0.757948 -9.54895,3.598994 l -0.95859,1.443249 -1.67055,-1.358671 c -2.19849,-1.788039 -5.86142,-3.307088 -7.97533,-3.30742 -0.90024,-1.45e-4 -2.25518,0.258135 -3.01098,0.573971 -1.87629,0.784078 -4.3805,3.059143 -4.98158,4.525743 -0.27266,0.665316 -0.59671,1.209669 -0.72012,1.209669 -0.12348,0 -0.89388,-0.610023 -1.71216,-1.355621 -4.24363,-3.866634 -8.94298,-4.274955 -12.55199,-1.090594 l -1.66783,1.471602 -1.93354,-1.132749 c -3.09325,-1.812137 -4.81742,-2.479922 -7.44564,-2.88376 -3.05409,-0.46926 -6.5393,0.196346 -8.56312,1.6353 -1.77102,1.259232 -3.38735,4.044155 -3.38735,5.836366 v 1.408464 l -2.37717,0.195931 c -4.81277,0.396554 -8.808202,2.44279 -10.386428,5.319308 -1.458628,2.658625 -0.839497,4.882343 2.049049,7.359358 0.962875,0.825693 1.596257,1.501262 1.407513,1.501262 -0.716868,0 -3.467124,2.391982 -4.823821,4.195442 -2.516456,3.345091 -3.413629,7.382459 -2.343038,10.543907 0.597063,1.763092 3.145671,4.022424 5.128825,4.546685 l 1.523034,0.402635 -1.68193,1.695678 c -2.742413,2.764811 -5.563923,8.171877 -6.528675,12.51133 -0.442244,1.989267 -0.449466,2.580054 -0.05009,4.09906 z" id="path1-3" sodipodi:nodetypes="cscssscsssccsssscscssscssscsscsssscsssssscsscsscsscssssssscsssssssssssssssssssscssscsscssscssscsscsscsscsscscscscssssssscccsscssssssscssscssscssscssssssssssscscssssssssssscssscsscssscssscssssssscssssssssssscssssssscsssscsssssscssssssscsssscssssssscsscc"/>
  </g>
</svg>